<!-- Generated by graphviz version 2.36.0 (20140111.2315)
 -->
<!-- Title: G Pages: 1 -->
<svg id="mainsvg" width="2062pt" height="1374pt"
 viewBox="0.00 0.00 2062.00 1374.00" xmlns="http://www.w3.org/2000/svg" xmlns:xlink="http://www.w3.org/1999/xlink">
<g id="graph0" class="graph" transform="scale(1 1) rotate(0) translate(4 1370)">
<title>G</title>
<polygon fill="white" stroke="none" points="-4,4 -4,-1370 2058,-1370 2058,4 -4,4"/>
<g id="clust1" class="cluster"><title>clusterSS_AGPL2</title>
<polygon fill="#FFFFFF" stroke="black" points="8,-515 8,-1358 286,-1358 286,-515 8,-515"/>
<text text-anchor="middle" x="147" y="-522.8" font-family="Times New Roman,serif" font-size="14.00">SS_AGPL2</text>
</g>
<g id="clust3" class="cluster"><title>clusterSS_AGPL2b</title>
<polygon fill="#FFFFFF" stroke="black" points="665,-700 665,-1021 1036,-1021 1036,-700 665,-700"/>
<text text-anchor="middle" x="850.5" y="-707.8" font-family="Times New Roman,serif" font-size="14.00">SS_AGPL2b</text>
</g>
<g id="clust2" class="cluster"><title>clusterSS_AGPL2a</title>
<polygon fill="#FFFFFF" stroke="black" points="294,-917 294,-1138 657,-1138 657,-917 294,-917"/>
<text text-anchor="middle" x="475.5" y="-924.8" font-family="Times New Roman,serif" font-size="14.00">SS_AGPL2a</text>
</g>
<g id="clust4" class="cluster"><title>clusterSS_AGPL2c</title>
<polygon fill="#FFFFFF" stroke="black" points="1044,-8 1044,-834 1376,-834 1376,-8 1044,-8"/>
<text text-anchor="middle" x="1210" y="-15.8" font-family="Times New Roman,serif" font-size="14.00">SS_AGPL2c</text>
</g>
<g id="clust5" class="cluster"><title>clusterSS_AGPL2d</title>
<polygon fill="#FFFFFF" stroke="black" points="1384,-121 1384,-834 2046,-834 2046,-121 1384,-121"/>
<text text-anchor="middle" x="1715" y="-128.8" font-family="Times New Roman,serif" font-size="14.00">SS_AGPL2d</text>
</g>
<!-- AGPL2 -->
<g id="node1" class="node"><title>AGPL2</title>
<g id="a_node1"><a title="2. You may modify your copy or copies of the Program or any portion of it, thus forming a work based on the Program, and copy and distribute such modifications or work under the terms of Section 1 above, provided that you also meet all of these conditions.">
<polygon fill="#FFFFFF" stroke="black" points="207.986,-1327 91.0069,-1350 91.0069,-1304 207.986,-1327"/>
<text text-anchor="middle" x="130" y="-1323.3" font-family="Times New Roman,serif" font-size="14.00">AGPL2</text>
</a>
</g>
</g>
<!-- AGPL2_1 -->
<g id="node2" class="node"><title>AGPL2_1</title>
<polygon fill="#FFFFFF" stroke="black" points="278,-1251.5 88,-1251.5 88,-1168.5 278,-1168.5 278,-1251.5"/>
<text text-anchor="middle" x="183" y="-1236.3" font-family="Times New Roman,serif" font-size="14.00">modify your copy or copies of</text>
<text text-anchor="middle" x="183" y="-1221.3" font-family="Times New Roman,serif" font-size="14.00"> the Program or any portion</text>
<text text-anchor="middle" x="183" y="-1206.3" font-family="Times New Roman,serif" font-size="14.00"> of it, ... and copy and</text>
<text text-anchor="middle" x="183" y="-1191.3" font-family="Times New Roman,serif" font-size="14.00"> distribute such</text>
<text text-anchor="middle" x="183" y="-1176.3" font-family="Times New Roman,serif" font-size="14.00"> modifications or work</text>
</g>
<!-- AGPL2_1&#45;&gt;AGPL2 -->
<g id="edge1" class="edge"><title>AGPL2_1&#45;&gt;AGPL2</title>
<path fill="none" stroke="black" d="M164.314,-1251.54C156.275,-1268.99 147.182,-1288.72 140.377,-1303.48"/>
<polygon fill="black" stroke="black" points="137.079,-1302.28 136.073,-1312.82 143.437,-1305.21 137.079,-1302.28"/>
<text text-anchor="middle" x="177.5" y="-1274.3" font-family="Times New Roman,serif" font-size="14.00">satisfies</text>
</g>
<!-- AGPL2_2 -->
<g id="node3" class="node"><title>AGPL2_2</title>
<polygon fill="#FFFFFF" stroke="black" points="70,-1228 16,-1228 16,-1192 70,-1192 70,-1228"/>
<text text-anchor="middle" x="43" y="-1206.3" font-family="Times New Roman,serif" font-size="14.00">and</text>
</g>
<!-- AGPL2_2&#45;&gt;AGPL2 -->
<g id="edge2" class="edge"><title>AGPL2_2&#45;&gt;AGPL2</title>
<path fill="none" stroke="black" d="M54.5731,-1228.29C65.036,-1243.7 81.0466,-1266.73 96,-1286 99.7223,-1290.8 103.81,-1295.81 107.821,-1300.59"/>
<polygon fill="black" stroke="black" points="105.278,-1303.01 114.42,-1308.36 110.613,-1298.47 105.278,-1303.01"/>
<text text-anchor="middle" x="120.5" y="-1274.3" font-family="Times New Roman,serif" font-size="14.00">activates</text>
</g>
<!-- AGPL2_3 -->
<g id="node4" class="node"><title>AGPL2_3</title>
<polygon fill="#FFFFFF" stroke="black" points="273.5,-1125 98.5,-1125 98.5,-1089 273.5,-1089 273.5,-1125"/>
<text text-anchor="middle" x="186" y="-1103.3" font-family="Times New Roman,serif" font-size="14.00">under the terms of Section 1</text>
</g>
<!-- AGPL2_3&#45;&gt;AGPL2_2 -->
<g id="edge3" class="edge"><title>AGPL2_3&#45;&gt;AGPL2_2</title>
<path fill="none" stroke="black" d="M148.39,-1125.13C126.936,-1135.84 100.186,-1150.84 79,-1168 73.2625,-1172.65 67.6817,-1178.26 62.6941,-1183.83"/>
<polygon fill="black" stroke="black" points="59.6946,-1181.95 55.862,-1191.83 65.0177,-1186.5 59.6946,-1181.95"/>
</g>
<!-- AGPL2_4 -->
<g id="node5" class="node"><title>AGPL2_4</title>
<polygon fill="#FFFFFF" stroke="black" points="80,-1125 26,-1125 26,-1089 80,-1089 80,-1125"/>
<text text-anchor="middle" x="53" y="-1103.3" font-family="Times New Roman,serif" font-size="14.00">and</text>
</g>
<!-- AGPL2_4&#45;&gt;AGPL2_2 -->
<g id="edge4" class="edge"><title>AGPL2_4&#45;&gt;AGPL2_2</title>
<path fill="none" stroke="black" d="M51.3036,-1125.13C49.7736,-1140.59 47.4966,-1163.58 45.7138,-1181.59"/>
<polygon fill="black" stroke="black" points="42.2071,-1181.49 44.7047,-1191.78 49.173,-1182.18 42.2071,-1181.49"/>
</g>
<!-- AGPL2_5 -->
<g id="node6" class="node"><title>AGPL2_5</title>
<polygon fill="#FFFFFF" stroke="black" points="274,-1008 184,-1008 184,-972 274,-972 274,-1008"/>
<text text-anchor="middle" x="229" y="-986.3" font-family="Times New Roman,serif" font-size="14.00">SS_AGPL2a</text>
</g>
<!-- AGPL2_5&#45;&gt;AGPL2_4 -->
<g id="edge5" class="edge"><title>AGPL2_5&#45;&gt;AGPL2_4</title>
<path fill="none" stroke="black" d="M205.953,-1008.11C195.673,-1015.61 183.345,-1024.4 172,-1032 156.702,-1042.24 117.901,-1066.24 88.7335,-1084.14"/>
<polygon fill="black" stroke="black" points="86.7216,-1081.27 80.0273,-1089.48 90.3816,-1087.24 86.7216,-1081.27"/>
</g>
<!-- AGPL2a -->
<g id="node12" class="node"><title>AGPL2a</title>
<g id="a_node12"><a title="2.a) You must cause the modified files to carry prominent notices stating that you changed the files and the date of any change.">
<polygon fill="#FFFFFF" stroke="black" points="388,-1130 302.415,-1095.5 473.585,-1095.5 388,-1130"/>
<text text-anchor="middle" x="388" y="-1103.3" font-family="Times New Roman,serif" font-size="14.00">AGPL2a</text>
</a>
</g>
</g>
<!-- AGPL2_5&#45;&gt;AGPL2a -->
<g id="edge31" class="edge"><title>AGPL2_5&#45;&gt;AGPL2a</title>
<path fill="none" stroke="grey" stroke-dasharray="5,2" d="M252.804,-1008.22C262.215,-1015.02 273.719,-1023.34 286.003,-1032.23"/>
<polygon fill="grey" stroke="grey" points="284.021,-1035.11 294.175,-1038.14 288.123,-1029.44 284.021,-1035.11"/>
</g>
<!-- AGPL2_6 -->
<g id="node7" class="node"><title>AGPL2_6</title>
<polygon fill="#FFFFFF" stroke="black" points="163,-1008 109,-1008 109,-972 163,-972 163,-1008"/>
<text text-anchor="middle" x="136" y="-986.3" font-family="Times New Roman,serif" font-size="14.00">and</text>
</g>
<!-- AGPL2_6&#45;&gt;AGPL2_4 -->
<g id="edge6" class="edge"><title>AGPL2_6&#45;&gt;AGPL2_4</title>
<path fill="none" stroke="black" d="M123.394,-1008.47C109.542,-1027.66 87.1633,-1058.67 71.3621,-1080.56"/>
<polygon fill="black" stroke="black" points="68.4669,-1078.59 65.4526,-1088.75 74.143,-1082.69 68.4669,-1078.59"/>
</g>
<!-- AGPL2_7 -->
<g id="node8" class="node"><title>AGPL2_7</title>
<polygon fill="#FFFFFF" stroke="black" points="275,-821 183,-821 183,-785 275,-785 275,-821"/>
<text text-anchor="middle" x="229" y="-799.3" font-family="Times New Roman,serif" font-size="14.00">SS_AGPL2b</text>
</g>
<!-- AGPL2_7&#45;&gt;AGPL2_6 -->
<g id="edge7" class="edge"><title>AGPL2_7&#45;&gt;AGPL2_6</title>
<path fill="none" stroke="black" d="M220.417,-821.073C204.085,-853.563 168.441,-924.467 149.105,-962.931"/>
<polygon fill="black" stroke="black" points="145.926,-961.462 144.562,-971.969 152.18,-964.606 145.926,-961.462"/>
</g>
<!-- AGPL2b -->
<g id="node15" class="node"><title>AGPL2b</title>
<g id="a_node15"><a title="2.b) You must cause any work that you distribute or publish, that in whole or in part contains or is derived from the Program or any part thereof, to be licensed as a whole at no charge to all third parties under the terms of this License.">
<polygon fill="#FFFFFF" stroke="black" points="761,-1013 672.716,-978.5 849.284,-978.5 761,-1013"/>
<text text-anchor="middle" x="761" y="-986.3" font-family="Times New Roman,serif" font-size="14.00">AGPL2b</text>
</a>
</g>
</g>
<!-- AGPL2_7&#45;&gt;AGPL2b -->
<g id="edge32" class="edge"><title>AGPL2_7&#45;&gt;AGPL2b</title>
<path fill="none" stroke="grey" stroke-dasharray="5,2" d="M275.042,-810.346C354.322,-822.468 520.739,-853.18 656.018,-914.786"/>
<polygon fill="grey" stroke="grey" points="654.748,-918.055 665.293,-919.082 657.69,-911.703 654.748,-918.055"/>
</g>
<!-- AGPL2_8 -->
<g id="node9" class="node"><title>AGPL2_8</title>
<polygon fill="#FFFFFF" stroke="black" points="163,-821 109,-821 109,-785 163,-785 163,-821"/>
<text text-anchor="middle" x="136" y="-799.3" font-family="Times New Roman,serif" font-size="14.00">and</text>
</g>
<!-- AGPL2_8&#45;&gt;AGPL2_6 -->
<g id="edge8" class="edge"><title>AGPL2_8&#45;&gt;AGPL2_6</title>
<path fill="none" stroke="black" d="M136,-821.073C136,-853.287 136,-923.268 136,-961.947"/>
<polygon fill="black" stroke="black" points="132.5,-961.968 136,-971.969 139.5,-961.969 132.5,-961.968"/>
</g>
<!-- AGPL2_9 -->
<g id="node10" class="node"><title>AGPL2_9</title>
<polygon fill="#FFFFFF" stroke="black" points="167.5,-582 76.5,-582 76.5,-546 167.5,-546 167.5,-582"/>
<text text-anchor="middle" x="122" y="-560.3" font-family="Times New Roman,serif" font-size="14.00">SS_AGPL2c</text>
</g>
<!-- AGPL2_9&#45;&gt;AGPL2_8 -->
<g id="edge9" class="edge"><title>AGPL2_9&#45;&gt;AGPL2_8</title>
<path fill="none" stroke="black" d="M123.007,-582.044C125.402,-622.599 131.459,-725.127 134.378,-774.541"/>
<polygon fill="black" stroke="black" points="130.9,-775.015 134.983,-784.792 137.888,-774.603 130.9,-775.015"/>
</g>
<!-- AGPL2c -->
<g id="node18" class="node"><title>AGPL2c</title>
<g id="a_node18"><a title="2.c) If the modified program normally reads commands interactively when run, you must cause it, when started running for such interactive use in the most ordinary way, to print or display an announcement including an appropriate copyright notice and a notice that there is no warranty (or else, saying that you provide a warranty) and that users may redistribute the program under these conditions, and telling the user how to view a copy of this License. (Exception: if the Program itself is interactive but does not normally print such an announcement, your work based on the Program is not required to print an announcement.)">
<polygon fill="#FFFFFF" stroke="black" points="1139,-826 1051.82,-791.5 1226.18,-791.5 1139,-826"/>
<text text-anchor="middle" x="1139" y="-799.3" font-family="Times New Roman,serif" font-size="14.00">AGPL2c</text>
</a>
</g>
</g>
<!-- AGPL2_9&#45;&gt;AGPL2c -->
<g id="edge33" class="edge"><title>AGPL2_9&#45;&gt;AGPL2c</title>
<path fill="none" stroke="grey" stroke-dasharray="5,2" d="M128.123,-582.029C136.316,-602.61 152.689,-637.075 177,-658 207.526,-684.273 221.507,-684.1 261,-692 301.533,-700.108 938.945,-684.46 1034.4,-699.543"/>
<polygon fill="grey" stroke="grey" points="1033.61,-702.953 1044.15,-701.881 1035.24,-696.146 1033.61,-702.953"/>
</g>
<!-- AGPL2_10 -->
<g id="node11" class="node"><title>AGPL2_10</title>
<polygon fill="#FFFFFF" stroke="black" points="278,-582 186,-582 186,-546 278,-546 278,-582"/>
<text text-anchor="middle" x="232" y="-560.3" font-family="Times New Roman,serif" font-size="14.00">SS_AGPL2d</text>
</g>
<!-- AGPL2_10&#45;&gt;AGPL2_8 -->
<g id="edge10" class="edge"><title>AGPL2_10&#45;&gt;AGPL2_8</title>
<path fill="none" stroke="black" d="M224.216,-582.361C212.817,-607.952 191.083,-657.38 174,-700 163.836,-725.36 153.032,-754.607 145.553,-775.263"/>
<polygon fill="black" stroke="black" points="142.165,-774.343 142.067,-784.937 148.75,-776.716 142.165,-774.343"/>
</g>
<!-- AGPL2d -->
<g id="node26" class="node"><title>AGPL2d</title>
<g id="a_node26"><a title="2.d) If the Program as you received it is intended to interact with users through a computer network and if, in the version you received, any user interacting with the Program was given the opportunity to request transmission to that user of the Program&#39;s complete source code, you must not remove that facility from your modified version of the Program or work based on the Program, and must offer an equivalent opportunity for all users interacting with your Program through a computer network to request immediate transmission by HTTP of the complete source code of your modified version or other derivative work.">
<polygon fill="#FFFFFF" stroke="black" points="1513,-826 1424.72,-791.5 1601.28,-791.5 1513,-826"/>
<text text-anchor="middle" x="1513" y="-799.3" font-family="Times New Roman,serif" font-size="14.00">AGPL2d</text>
</a>
</g>
</g>
<!-- AGPL2_10&#45;&gt;AGPL2d -->
<g id="edge34" class="edge"><title>AGPL2_10&#45;&gt;AGPL2d</title>
<path fill="none" stroke="grey" stroke-dasharray="5,2" d="M278.188,-574.462C401.318,-599.205 747.949,-665.728 1040,-692 1075.28,-695.174 1311.92,-688.387 1374.23,-699.169"/>
<polygon fill="grey" stroke="grey" points="1373.72,-702.646 1384.26,-701.568 1375.35,-695.838 1373.72,-702.646"/>
</g>
<!-- AGPL2a_11 -->
<g id="node13" class="node"><title>AGPL2a_11</title>
<polygon fill="#FFFFFF" stroke="black" points="648.5,-1031.5 485.5,-1031.5 485.5,-948.5 648.5,-948.5 648.5,-1031.5"/>
<text text-anchor="middle" x="567" y="-1016.3" font-family="Times New Roman,serif" font-size="14.00">cause the modified files to</text>
<text text-anchor="middle" x="567" y="-1001.3" font-family="Times New Roman,serif" font-size="14.00"> carry prominent notices</text>
<text text-anchor="middle" x="567" y="-986.3" font-family="Times New Roman,serif" font-size="14.00"> stating that you changed</text>
<text text-anchor="middle" x="567" y="-971.3" font-family="Times New Roman,serif" font-size="14.00"> the files and the date of</text>
<text text-anchor="middle" x="567" y="-956.3" font-family="Times New Roman,serif" font-size="14.00"> any change</text>
</g>
<!-- AGPL2a_11&#45;&gt;AGPL2a -->
<g id="edge11" class="edge"><title>AGPL2a_11&#45;&gt;AGPL2a</title>
<path fill="none" stroke="black" d="M503.891,-1031.54C472.613,-1051.64 436.612,-1074.77 413.142,-1089.85"/>
<polygon fill="black" stroke="black" points="411.021,-1087.05 404.499,-1095.4 414.804,-1092.94 411.021,-1087.05"/>
<text text-anchor="middle" x="495.5" y="-1054.3" font-family="Times New Roman,serif" font-size="14.00">satisfies</text>
</g>
<!-- AGPL2a_12 -->
<g id="node14" class="node"><title>AGPL2a_12</title>
<polygon fill="#FFFFFF" stroke="black" points="467.5,-1009 302.5,-1009 302.5,-971 467.5,-971 467.5,-1009"/>
<text text-anchor="middle" x="385" y="-993.8" font-family="Times New Roman,serif" font-size="14.00">intent to modify, copy and</text>
<text text-anchor="middle" x="385" y="-978.8" font-family="Times New Roman,serif" font-size="14.00"> distribute</text>
</g>
<!-- AGPL2a_12&#45;&gt;AGPL2a -->
<g id="edge12" class="edge"><title>AGPL2a_12&#45;&gt;AGPL2a</title>
<path fill="none" stroke="black" d="M385.475,-1009.22C386.016,-1029.93 386.896,-1063.66 387.461,-1085.34"/>
<polygon fill="black" stroke="black" points="383.965,-1085.53 387.724,-1095.44 390.962,-1085.35 383.965,-1085.53"/>
<text text-anchor="middle" x="411.5" y="-1054.3" font-family="Times New Roman,serif" font-size="14.00">activates</text>
</g>
<!-- AGPL2b_13 -->
<g id="node16" class="node"><title>AGPL2b_13</title>
<polygon fill="#FFFFFF" stroke="black" points="1027.5,-874.5 856.5,-874.5 856.5,-731.5 1027.5,-731.5 1027.5,-874.5"/>
<text text-anchor="middle" x="942" y="-859.3" font-family="Times New Roman,serif" font-size="14.00">cause any work that you</text>
<text text-anchor="middle" x="942" y="-844.3" font-family="Times New Roman,serif" font-size="14.00"> distribute or publish, that</text>
<text text-anchor="middle" x="942" y="-829.3" font-family="Times New Roman,serif" font-size="14.00"> in whole or in part</text>
<text text-anchor="middle" x="942" y="-814.3" font-family="Times New Roman,serif" font-size="14.00"> contains or is derived from</text>
<text text-anchor="middle" x="942" y="-799.3" font-family="Times New Roman,serif" font-size="14.00"> the Program or any part</text>
<text text-anchor="middle" x="942" y="-784.3" font-family="Times New Roman,serif" font-size="14.00"> thereof, to be licensed as</text>
<text text-anchor="middle" x="942" y="-769.3" font-family="Times New Roman,serif" font-size="14.00"> a whole at no charge to all</text>
<text text-anchor="middle" x="942" y="-754.3" font-family="Times New Roman,serif" font-size="14.00"> third parties under the</text>
<text text-anchor="middle" x="942" y="-739.3" font-family="Times New Roman,serif" font-size="14.00"> terms of this License</text>
</g>
<!-- AGPL2b_13&#45;&gt;AGPL2b -->
<g id="edge13" class="edge"><title>AGPL2b_13&#45;&gt;AGPL2b</title>
<path fill="none" stroke="black" d="M872.797,-874.732C838.666,-909.618 800.25,-948.883 778.502,-971.111"/>
<polygon fill="black" stroke="black" points="775.774,-968.894 771.283,-978.49 780.778,-973.79 775.774,-968.894"/>
<text text-anchor="middle" x="874.5" y="-897.3" font-family="Times New Roman,serif" font-size="14.00">satisfies</text>
</g>
<!-- AGPL2b_14 -->
<g id="node17" class="node"><title>AGPL2b_14</title>
<polygon fill="#FFFFFF" stroke="black" points="838.5,-822 673.5,-822 673.5,-784 838.5,-784 838.5,-822"/>
<text text-anchor="middle" x="756" y="-806.8" font-family="Times New Roman,serif" font-size="14.00">intent to modify, copy and</text>
<text text-anchor="middle" x="756" y="-791.8" font-family="Times New Roman,serif" font-size="14.00"> distribute</text>
</g>
<!-- AGPL2b_14&#45;&gt;AGPL2b -->
<g id="edge14" class="edge"><title>AGPL2b_14&#45;&gt;AGPL2b</title>
<path fill="none" stroke="black" d="M756.489,-822.075C757.42,-856.532 759.444,-931.437 760.433,-968.032"/>
<polygon fill="black" stroke="black" points="756.946,-968.565 760.715,-978.467 763.944,-968.376 756.946,-968.565"/>
<text text-anchor="middle" x="783.5" y="-897.3" font-family="Times New Roman,serif" font-size="14.00">activates</text>
</g>
<!-- AGPL2c_15 -->
<g id="node19" class="node"><title>AGPL2c_15</title>
<polygon fill="#FFFFFF" stroke="black" points="1367.5,-658 1124.5,-658 1124.5,-470 1367.5,-470 1367.5,-658"/>
<text text-anchor="middle" x="1246" y="-642.8" font-family="Times New Roman,serif" font-size="14.00">cause it ... to print or</text>
<text text-anchor="middle" x="1246" y="-627.8" font-family="Times New Roman,serif" font-size="14.00"> display an announcement</text>
<text text-anchor="middle" x="1246" y="-612.8" font-family="Times New Roman,serif" font-size="14.00"> including an appropriate</text>
<text text-anchor="middle" x="1246" y="-597.8" font-family="Times New Roman,serif" font-size="14.00"> copyright notice and a</text>
<text text-anchor="middle" x="1246" y="-582.8" font-family="Times New Roman,serif" font-size="14.00"> notice that there is no</text>
<text text-anchor="middle" x="1246" y="-567.8" font-family="Times New Roman,serif" font-size="14.00"> warranty (or else, saying</text>
<text text-anchor="middle" x="1246" y="-552.8" font-family="Times New Roman,serif" font-size="14.00"> that you provide a</text>
<text text-anchor="middle" x="1246" y="-537.8" font-family="Times New Roman,serif" font-size="14.00"> warranty) and that users</text>
<text text-anchor="middle" x="1246" y="-522.8" font-family="Times New Roman,serif" font-size="14.00"> may redistribute the</text>
<text text-anchor="middle" x="1246" y="-507.8" font-family="Times New Roman,serif" font-size="14.00"> program under these</text>
<text text-anchor="middle" x="1246" y="-492.8" font-family="Times New Roman,serif" font-size="14.00"> conditions, and telling the</text>
<text text-anchor="middle" x="1246" y="-477.8" font-family="Times New Roman,serif" font-size="14.00"> user how to view a copy of this License</text>
</g>
<!-- AGPL2c_15&#45;&gt;AGPL2c -->
<g id="edge15" class="edge"><title>AGPL2c_15&#45;&gt;AGPL2c</title>
<path fill="none" stroke="black" d="M1203.86,-658.328C1183.23,-704.043 1160.22,-754.997 1147.92,-782.248"/>
<polygon fill="black" stroke="black" points="1144.68,-780.917 1143.75,-791.471 1151.06,-783.798 1144.68,-780.917"/>
<text text-anchor="middle" x="1218.5" y="-680.3" font-family="Times New Roman,serif" font-size="14.00">satisfies</text>
</g>
<!-- AGPL2c_16 -->
<g id="node20" class="node"><title>AGPL2c_16</title>
<polygon fill="#FFFFFF" stroke="black" points="1106,-582 1052,-582 1052,-546 1106,-546 1106,-582"/>
<text text-anchor="middle" x="1079" y="-560.3" font-family="Times New Roman,serif" font-size="14.00">and</text>
</g>
<!-- AGPL2c_16&#45;&gt;AGPL2c -->
<g id="edge16" class="edge"><title>AGPL2c_16&#45;&gt;AGPL2c</title>
<path fill="none" stroke="black" d="M1083.32,-582.044C1094.11,-624.689 1122.25,-735.857 1133.87,-781.74"/>
<polygon fill="black" stroke="black" points="1130.48,-782.613 1136.33,-791.448 1137.27,-780.895 1130.48,-782.613"/>
<text text-anchor="middle" x="1135.5" y="-680.3" font-family="Times New Roman,serif" font-size="14.00">activates</text>
</g>
<!-- AGPL2c_17 -->
<g id="node21" class="node"><title>AGPL2c_17</title>
<polygon fill="#FFFFFF" stroke="black" points="1289.5,-379 1124.5,-379 1124.5,-341 1289.5,-341 1289.5,-379"/>
<text text-anchor="middle" x="1207" y="-363.8" font-family="Times New Roman,serif" font-size="14.00">intent to modify, copy and</text>
<text text-anchor="middle" x="1207" y="-348.8" font-family="Times New Roman,serif" font-size="14.00"> distribute</text>
</g>
<!-- AGPL2c_17&#45;&gt;AGPL2c_16 -->
<g id="edge17" class="edge"><title>AGPL2c_17&#45;&gt;AGPL2c_16</title>
<path fill="none" stroke="black" d="M1188.29,-379.204C1168.03,-399.732 1135.84,-434.854 1115,-470 1102.58,-490.955 1092.93,-516.971 1086.77,-536.154"/>
<polygon fill="black" stroke="black" points="1083.41,-535.177 1083.79,-545.765 1090.09,-537.252 1083.41,-535.177"/>
</g>
<!-- AGPL2c_18 -->
<g id="node22" class="node"><title>AGPL2c_18</title>
<polygon fill="#FFFFFF" stroke="black" points="1106,-378 1052,-378 1052,-342 1106,-342 1106,-378"/>
<text text-anchor="middle" x="1079" y="-356.3" font-family="Times New Roman,serif" font-size="14.00">or</text>
</g>
<!-- AGPL2c_18&#45;&gt;AGPL2c_16 -->
<g id="edge18" class="edge"><title>AGPL2c_18&#45;&gt;AGPL2c_16</title>
<path fill="none" stroke="black" d="M1079,-378.222C1079,-413.33 1079,-493.415 1079,-535.694"/>
<polygon fill="black" stroke="black" points="1075.5,-535.821 1079,-545.821 1082.5,-535.821 1075.5,-535.821"/>
</g>
<!-- AGPL2c_19 -->
<g id="node23" class="node"><title>AGPL2c_19</title>
<polygon fill="#FFFFFF" stroke="black" points="1313.5,-227.5 1124.5,-227.5 1124.5,-174.5 1313.5,-174.5 1313.5,-227.5"/>
<text text-anchor="middle" x="1219" y="-212.3" font-family="Times New Roman,serif" font-size="14.00">the modified program normally</text>
<text text-anchor="middle" x="1219" y="-197.3" font-family="Times New Roman,serif" font-size="14.00"> reads commands</text>
<text text-anchor="middle" x="1219" y="-182.3" font-family="Times New Roman,serif" font-size="14.00"> interactively when run</text>
</g>
<!-- AGPL2c_19&#45;&gt;AGPL2c_18 -->
<g id="edge19" class="edge"><title>AGPL2c_19&#45;&gt;AGPL2c_18</title>
<path fill="none" stroke="black" d="M1180.8,-227.618C1159.53,-243.247 1133.66,-264.67 1115,-288 1104.37,-301.289 1095.64,-318.217 1089.44,-332.211"/>
<polygon fill="black" stroke="black" points="1086.06,-331.215 1085.38,-341.788 1092.51,-333.947 1086.06,-331.215"/>
</g>
<!-- AGPL2c_20 -->
<g id="node24" class="node"><title>AGPL2c_20</title>
<polygon fill="#FFFFFF" stroke="black" points="1106,-219 1052,-219 1052,-183 1106,-183 1106,-219"/>
<text text-anchor="middle" x="1079" y="-197.3" font-family="Times New Roman,serif" font-size="14.00">not</text>
</g>
<!-- AGPL2c_20&#45;&gt;AGPL2c_18 -->
<g id="edge20" class="edge"><title>AGPL2c_20&#45;&gt;AGPL2c_18</title>
<path fill="none" stroke="black" d="M1079,-219.101C1079,-246.234 1079,-299.386 1079,-331.793"/>
<polygon fill="black" stroke="black" points="1075.5,-331.92 1079,-341.92 1082.5,-331.92 1075.5,-331.92"/>
</g>
<!-- AGPL2c_21 -->
<g id="node25" class="node"><title>AGPL2c_21</title>
<polygon fill="#FFFFFF" stroke="black" points="1224,-92.5 1052,-92.5 1052,-39.5 1224,-39.5 1224,-92.5"/>
<text text-anchor="middle" x="1138" y="-77.3" font-family="Times New Roman,serif" font-size="14.00">Program itself is interactive</text>
<text text-anchor="middle" x="1138" y="-62.3" font-family="Times New Roman,serif" font-size="14.00"> but does not normally print</text>
<text text-anchor="middle" x="1138" y="-47.3" font-family="Times New Roman,serif" font-size="14.00"> such an announcement</text>
</g>
<!-- AGPL2c_21&#45;&gt;AGPL2c_20 -->
<g id="edge21" class="edge"><title>AGPL2c_21&#45;&gt;AGPL2c_20</title>
<path fill="none" stroke="black" d="M1126.62,-92.6437C1116.31,-115.893 1101.17,-150.02 1090.74,-173.525"/>
<polygon fill="black" stroke="black" points="1087.45,-172.325 1086.59,-182.885 1093.85,-175.163 1087.45,-172.325"/>
</g>
<!-- AGPL2d_22 -->
<g id="node27" class="node"><title>AGPL2d_22</title>
<polygon fill="#FFFFFF" stroke="black" points="1833,-582 1779,-582 1779,-546 1833,-546 1833,-582"/>
<text text-anchor="middle" x="1806" y="-560.3" font-family="Times New Roman,serif" font-size="14.00">and</text>
</g>
<!-- AGPL2d_22&#45;&gt;AGPL2d -->
<g id="edge22" class="edge"><title>AGPL2d_22&#45;&gt;AGPL2d</title>
<path fill="none" stroke="black" d="M1784.93,-582.044C1730.87,-625.769 1587.76,-741.53 1533.9,-785.098"/>
<polygon fill="black" stroke="black" points="1531.62,-782.438 1526.05,-791.448 1536.02,-787.88 1531.62,-782.438"/>
<text text-anchor="middle" x="1690.5" y="-680.3" font-family="Times New Roman,serif" font-size="14.00">satisfies</text>
</g>
<!-- AGPL2d_23 -->
<g id="node28" class="node"><title>AGPL2d_23</title>
<polygon fill="#FFFFFF" stroke="black" points="1977,-378 1923,-378 1923,-342 1977,-342 1977,-378"/>
<text text-anchor="middle" x="1950" y="-356.3" font-family="Times New Roman,serif" font-size="14.00">not</text>
</g>
<!-- AGPL2d_23&#45;&gt;AGPL2d_22 -->
<g id="edge23" class="edge"><title>AGPL2d_23&#45;&gt;AGPL2d_22</title>
<path fill="none" stroke="black" d="M1942.57,-378.221C1935.9,-392.973 1925.43,-414.537 1914,-432 1888.23,-471.394 1852.57,-512.623 1829.4,-538.064"/>
<polygon fill="black" stroke="black" points="1826.53,-536.014 1822.35,-545.747 1831.69,-540.749 1826.53,-536.014"/>
</g>
<!-- AGPL2d_24 -->
<g id="node29" class="node"><title>AGPL2d_24</title>
<polygon fill="#FFFFFF" stroke="black" points="2038,-235 1856,-235 1856,-167 2038,-167 2038,-235"/>
<text text-anchor="middle" x="1947" y="-219.8" font-family="Times New Roman,serif" font-size="14.00">remove that facility from your</text>
<text text-anchor="middle" x="1947" y="-204.8" font-family="Times New Roman,serif" font-size="14.00"> modified version of the</text>
<text text-anchor="middle" x="1947" y="-189.8" font-family="Times New Roman,serif" font-size="14.00"> Program or work based on</text>
<text text-anchor="middle" x="1947" y="-174.8" font-family="Times New Roman,serif" font-size="14.00"> the Program</text>
</g>
<!-- AGPL2d_24&#45;&gt;AGPL2d_23 -->
<g id="edge24" class="edge"><title>AGPL2d_24&#45;&gt;AGPL2d_23</title>
<path fill="none" stroke="black" d="M1947.64,-235.296C1948.18,-263.934 1948.96,-304.749 1949.48,-331.548"/>
<polygon fill="black" stroke="black" points="1945.98,-331.827 1949.67,-341.759 1952.98,-331.693 1945.98,-331.827"/>
</g>
<!-- AGPL2d_25 -->
<g id="node30" class="node"><title>AGPL2d_25</title>
<polygon fill="#FFFFFF" stroke="black" points="1905,-431.5 1707,-431.5 1707,-288.5 1905,-288.5 1905,-431.5"/>
<text text-anchor="middle" x="1806" y="-416.3" font-family="Times New Roman,serif" font-size="14.00">offer an equivalent</text>
<text text-anchor="middle" x="1806" y="-401.3" font-family="Times New Roman,serif" font-size="14.00"> opportunity for all users</text>
<text text-anchor="middle" x="1806" y="-386.3" font-family="Times New Roman,serif" font-size="14.00"> interacting with your</text>
<text text-anchor="middle" x="1806" y="-371.3" font-family="Times New Roman,serif" font-size="14.00"> Program through a computer</text>
<text text-anchor="middle" x="1806" y="-356.3" font-family="Times New Roman,serif" font-size="14.00"> network to request</text>
<text text-anchor="middle" x="1806" y="-341.3" font-family="Times New Roman,serif" font-size="14.00"> immediate transmission by</text>
<text text-anchor="middle" x="1806" y="-326.3" font-family="Times New Roman,serif" font-size="14.00"> HTTP of the complete source</text>
<text text-anchor="middle" x="1806" y="-311.3" font-family="Times New Roman,serif" font-size="14.00"> code of your modified</text>
<text text-anchor="middle" x="1806" y="-296.3" font-family="Times New Roman,serif" font-size="14.00"> version or other derivative work</text>
</g>
<!-- AGPL2d_25&#45;&gt;AGPL2d_22 -->
<g id="edge25" class="edge"><title>AGPL2d_25&#45;&gt;AGPL2d_22</title>
<path fill="none" stroke="black" d="M1806,-431.65C1806,-467.648 1806,-509.316 1806,-535.899"/>
<polygon fill="black" stroke="black" points="1802.5,-535.973 1806,-545.973 1809.5,-535.973 1802.5,-535.973"/>
</g>
<!-- AGPL2d_26 -->
<g id="node31" class="node"><title>AGPL2d_26</title>
<polygon fill="#FFFFFF" stroke="black" points="1540,-582 1486,-582 1486,-546 1540,-546 1540,-582"/>
<text text-anchor="middle" x="1513" y="-560.3" font-family="Times New Roman,serif" font-size="14.00">and</text>
</g>
<!-- AGPL2d_26&#45;&gt;AGPL2d -->
<g id="edge26" class="edge"><title>AGPL2d_26&#45;&gt;AGPL2d</title>
<path fill="none" stroke="black" d="M1513,-582.044C1513,-624.509 1513,-734.92 1513,-781.156"/>
<polygon fill="black" stroke="black" points="1509.5,-781.448 1513,-791.448 1516.5,-781.448 1509.5,-781.448"/>
<text text-anchor="middle" x="1537.5" y="-680.3" font-family="Times New Roman,serif" font-size="14.00">activates</text>
</g>
<!-- AGPL2d_27 -->
<g id="node32" class="node"><title>AGPL2d_27</title>
<polygon fill="#FFFFFF" stroke="black" points="1688.5,-379 1523.5,-379 1523.5,-341 1688.5,-341 1688.5,-379"/>
<text text-anchor="middle" x="1606" y="-363.8" font-family="Times New Roman,serif" font-size="14.00">intent to modify, copy and</text>
<text text-anchor="middle" x="1606" y="-348.8" font-family="Times New Roman,serif" font-size="14.00"> distribute</text>
</g>
<!-- AGPL2d_27&#45;&gt;AGPL2d_26 -->
<g id="edge27" class="edge"><title>AGPL2d_27&#45;&gt;AGPL2d_26</title>
<path fill="none" stroke="black" d="M1597.58,-379.282C1581.07,-415.156 1544.36,-494.893 1525.19,-536.529"/>
<polygon fill="black" stroke="black" points="1521.94,-535.219 1520.93,-545.766 1528.3,-538.146 1521.94,-535.219"/>
</g>
<!-- AGPL2d_28 -->
<g id="node33" class="node"><title>AGPL2d_28</title>
<polygon fill="#FFFFFF" stroke="black" points="1505,-378 1451,-378 1451,-342 1505,-342 1505,-378"/>
<text text-anchor="middle" x="1478" y="-356.3" font-family="Times New Roman,serif" font-size="14.00">and</text>
</g>
<!-- AGPL2d_28&#45;&gt;AGPL2d_26 -->
<g id="edge28" class="edge"><title>AGPL2d_28&#45;&gt;AGPL2d_26</title>
<path fill="none" stroke="black" d="M1480.98,-378.222C1487.08,-413.404 1501,-493.755 1508.32,-535.963"/>
<polygon fill="black" stroke="black" points="1504.87,-536.566 1510.02,-545.821 1511.76,-535.37 1504.87,-536.566"/>
</g>
<!-- AGPL2d_29 -->
<g id="node34" class="node"><title>AGPL2d_29</title>
<polygon fill="#FFFFFF" stroke="black" points="1838,-235 1652,-235 1652,-167 1838,-167 1838,-235"/>
<text text-anchor="middle" x="1745" y="-219.8" font-family="Times New Roman,serif" font-size="14.00">the Program as you received it</text>
<text text-anchor="middle" x="1745" y="-204.8" font-family="Times New Roman,serif" font-size="14.00"> is intended to interact</text>
<text text-anchor="middle" x="1745" y="-189.8" font-family="Times New Roman,serif" font-size="14.00"> with users through a</text>
<text text-anchor="middle" x="1745" y="-174.8" font-family="Times New Roman,serif" font-size="14.00"> computer network</text>
</g>
<!-- AGPL2d_29&#45;&gt;AGPL2d_28 -->
<g id="edge29" class="edge"><title>AGPL2d_29&#45;&gt;AGPL2d_28</title>
<path fill="none" stroke="black" d="M1677.73,-235.051C1665.95,-240.35 1653.71,-245.547 1642,-250 1586.93,-270.943 1560.42,-250.472 1515,-288 1501.24,-299.366 1491.98,-317.187 1486.16,-332.131"/>
<polygon fill="black" stroke="black" points="1482.74,-331.307 1482.67,-341.902 1489.33,-333.662 1482.74,-331.307"/>
</g>
<!-- AGPL2d_30 -->
<g id="node35" class="node"><title>AGPL2d_30</title>
<polygon fill="#FFFFFF" stroke="black" points="1633.5,-250 1392.5,-250 1392.5,-152 1633.5,-152 1633.5,-250"/>
<text text-anchor="middle" x="1513" y="-234.8" font-family="Times New Roman,serif" font-size="14.00">in the version you received,</text>
<text text-anchor="middle" x="1513" y="-219.8" font-family="Times New Roman,serif" font-size="14.00"> any user interacting with</text>
<text text-anchor="middle" x="1513" y="-204.8" font-family="Times New Roman,serif" font-size="14.00"> the Program was given the</text>
<text text-anchor="middle" x="1513" y="-189.8" font-family="Times New Roman,serif" font-size="14.00"> opportunity to request</text>
<text text-anchor="middle" x="1513" y="-174.8" font-family="Times New Roman,serif" font-size="14.00"> transmission to that user</text>
<text text-anchor="middle" x="1513" y="-159.8" font-family="Times New Roman,serif" font-size="14.00"> of the Program&#39;s complete source code</text>
</g>
<!-- AGPL2d_30&#45;&gt;AGPL2d_28 -->
<g id="edge30" class="edge"><title>AGPL2d_30&#45;&gt;AGPL2d_28</title>
<path fill="none" stroke="black" d="M1502.21,-250.386C1496.21,-277.298 1488.97,-309.776 1483.98,-332.166"/>
<polygon fill="black" stroke="black" points="1480.55,-331.46 1481.79,-341.982 1487.39,-332.984 1480.55,-331.46"/>
</g>
</g>
</svg>
