<?xml version="1.0" encoding="UTF-8" standalone="no"?>
<!DOCTYPE svg PUBLIC "-//W3C//DTD SVG 1.1//EN"
 "http://www.w3.org/Graphics/SVG/1.1/DTD/svg11.dtd">
<!-- Generated by graphviz version 2.28.0 (20110507.0327)
 -->
<!-- Title: G Pages: 1 -->
<svg width="2062pt" height="953pt"
 viewBox="0.00 0.00 2062.00 953.00" xmlns="http://www.w3.org/2000/svg" xmlns:xlink="http://www.w3.org/1999/xlink">
<g id="graph1" class="graph" transform="scale(1 1) rotate(0) translate(4 949)">
<title>G</title>
<polygon fill="white" stroke="white" points="-4,5 -4,-949 2059,-949 2059,5 -4,5"/>
<g id="graph2" class="cluster"><title>clusterSS_AGPL2</title>
<polygon fill="none" stroke="black" points="8,-62 8,-937 286,-937 286,-62 8,-62"/>
<text text-anchor="middle" x="147" y="-69.8" font-family="Times New Roman,serif" font-size="14.00">SS_AGPL2</text>
</g>
<g id="graph3" class="cluster"><title>clusterSS_AGPL2a</title>
<polygon fill="none" stroke="black" points="294,-38 294,-338 657,-338 657,-38 294,-38"/>
<text text-anchor="middle" x="475.5" y="-45.8" font-family="Times New Roman,serif" font-size="14.00">SS_AGPL2a</text>
</g>
<g id="graph4" class="cluster"><title>clusterSS_AGPL2b</title>
<polygon fill="none" stroke="black" points="665,-8 665,-338 1036,-338 1036,-8 665,-8"/>
<text text-anchor="middle" x="850.5" y="-15.8" font-family="Times New Roman,serif" font-size="14.00">SS_AGPL2b</text>
</g>
<g id="graph5" class="cluster"><title>clusterSS_AGPL2c</title>
<polygon fill="none" stroke="black" points="1044,-53 1044,-820 1376,-820 1376,-53 1044,-53"/>
<text text-anchor="middle" x="1210" y="-60.8" font-family="Times New Roman,serif" font-size="14.00">SS_AGPL2c</text>
</g>
<g id="graph6" class="cluster"><title>clusterSS_AGPL2d</title>
<polygon fill="none" stroke="black" points="1384,-31 1384,-632 2046,-632 2046,-31 1384,-31"/>
<text text-anchor="middle" x="1715" y="-38.8" font-family="Times New Roman,serif" font-size="14.00">SS_AGPL2d</text>
</g>
<!-- AGPL2 -->
<g id="node2" class="node"><title>AGPL2</title>
<a xlink:title="2. You may modify your copy or copies of the Program or any portion of it, thus forming a work based on the Program, and copy and distribute such modifications or work under the terms of Section 1 above, provided that you also meet all of these conditions.">
<polygon fill="none" stroke="black" points="207.986,-906 91.0069,-929 91.0069,-883 207.986,-906"/>
<text text-anchor="middle" x="130" y="-902.3" font-family="Times New Roman,serif" font-size="14.00">AGPL2</text>
</a>
</g>
<!-- AGPL2_1 -->
<g id="node3" class="node"><title>AGPL2_1</title>
<polygon fill="none" stroke="black" points="278,-830.5 88,-830.5 88,-747.5 278,-747.5 278,-830.5"/>
<text text-anchor="middle" x="183" y="-815.3" font-family="Times New Roman,serif" font-size="14.00">modify your copy or copies of</text>
<text text-anchor="middle" x="183" y="-800.3" font-family="Times New Roman,serif" font-size="14.00"> the Program or any portion</text>
<text text-anchor="middle" x="183" y="-785.3" font-family="Times New Roman,serif" font-size="14.00"> of it, ... and copy and</text>
<text text-anchor="middle" x="183" y="-770.3" font-family="Times New Roman,serif" font-size="14.00"> distribute such</text>
<text text-anchor="middle" x="183" y="-755.3" font-family="Times New Roman,serif" font-size="14.00"> modifications or work</text>
</g>
<!-- AGPL2_1&#45;&gt;AGPL2 -->
<g id="edge3" class="edge"><title>AGPL2_1&#45;&gt;AGPL2</title>
<path fill="none" stroke="black" d="M164.314,-830.545C156.275,-847.988 147.182,-867.719 140.377,-882.484"/>
<polygon fill="black" stroke="black" points="137.079,-881.277 136.073,-891.824 143.437,-884.207 137.079,-881.277"/>
<text text-anchor="middle" x="177.5" y="-853.3" font-family="Times New Roman,serif" font-size="14.00">satisfies</text>
</g>
<!-- AGPL2_2 -->
<g id="node5" class="node"><title>AGPL2_2</title>
<polygon fill="none" stroke="black" points="70,-807 16,-807 16,-771 70,-771 70,-807"/>
<text text-anchor="middle" x="43" y="-785.3" font-family="Times New Roman,serif" font-size="14.00">and</text>
</g>
<!-- AGPL2_2&#45;&gt;AGPL2 -->
<g id="edge5" class="edge"><title>AGPL2_2&#45;&gt;AGPL2</title>
<path fill="none" stroke="black" d="M54.5731,-807.293C65.036,-822.701 81.0466,-845.726 96,-865 99.7223,-869.798 103.81,-874.807 107.821,-879.594"/>
<polygon fill="black" stroke="black" points="105.278,-882.007 114.42,-887.361 110.613,-877.474 105.278,-882.007"/>
<text text-anchor="middle" x="120.5" y="-853.3" font-family="Times New Roman,serif" font-size="14.00">activates</text>
</g>
<!-- AGPL2_3 -->
<g id="node7" class="node"><title>AGPL2_3</title>
<polygon fill="none" stroke="black" points="263.5,-619 88.5,-619 88.5,-583 263.5,-583 263.5,-619"/>
<text text-anchor="middle" x="176" y="-597.3" font-family="Times New Roman,serif" font-size="14.00">under the terms of Section 1</text>
</g>
<!-- AGPL2_3&#45;&gt;AGPL2_2 -->
<g id="edge7" class="edge"><title>AGPL2_3&#45;&gt;AGPL2_2</title>
<path fill="none" stroke="black" d="M163.726,-619.165C140.27,-651.969 88.9615,-723.723 61.3909,-762.28"/>
<polygon fill="black" stroke="black" points="58.2138,-760.706 55.2443,-770.876 63.9079,-764.778 58.2138,-760.706"/>
</g>
<!-- AGPL2_4 -->
<g id="node9" class="node"><title>AGPL2_4</title>
<polygon fill="none" stroke="black" points="70,-619 16,-619 16,-583 70,-583 70,-619"/>
<text text-anchor="middle" x="43" y="-597.3" font-family="Times New Roman,serif" font-size="14.00">and</text>
</g>
<!-- AGPL2_4&#45;&gt;AGPL2_2 -->
<g id="edge9" class="edge"><title>AGPL2_4&#45;&gt;AGPL2_2</title>
<path fill="none" stroke="black" d="M43,-619.165C43,-651.554 43,-721.913 43,-760.8"/>
<polygon fill="black" stroke="black" points="39.5001,-760.876 43,-770.876 46.5001,-760.876 39.5001,-760.876"/>
</g>
<!-- AGPL2_5 -->
<g id="node11" class="node"><title>AGPL2_5</title>
<polygon fill="none" stroke="black" points="180,-454 90,-454 90,-418 180,-418 180,-454"/>
<text text-anchor="middle" x="135" y="-432.3" font-family="Times New Roman,serif" font-size="14.00">SS_AGPL2a</text>
</g>
<!-- AGPL2_5&#45;&gt;AGPL2_4 -->
<g id="edge11" class="edge"><title>AGPL2_5&#45;&gt;AGPL2_4</title>
<path fill="none" stroke="black" d="M118.892,-454.036C106.724,-467.58 90.2528,-487.439 79,-507 66.8521,-528.117 57.1822,-554.117 50.9363,-573.252"/>
<polygon fill="black" stroke="black" points="47.5837,-572.246 47.906,-582.836 54.2581,-574.356 47.5837,-572.246"/>
</g>
<!-- AGPL2_6 -->
<g id="node13" class="node"><title>AGPL2_6</title>
<polygon fill="none" stroke="black" points="72,-454 18,-454 18,-418 72,-418 72,-454"/>
<text text-anchor="middle" x="45" y="-432.3" font-family="Times New Roman,serif" font-size="14.00">and</text>
</g>
<!-- AGPL2_6&#45;&gt;AGPL2_4 -->
<g id="edge13" class="edge"><title>AGPL2_6&#45;&gt;AGPL2_4</title>
<path fill="none" stroke="black" d="M44.7897,-454.136C44.444,-482.31 43.7526,-538.661 43.3377,-572.479"/>
<polygon fill="black" stroke="black" points="39.8365,-572.561 43.2135,-582.603 46.836,-572.647 39.8365,-572.561"/>
</g>
<!-- AGPL2_7 -->
<g id="node15" class="node"><title>AGPL2_7</title>
<polygon fill="none" stroke="black" points="189,-325 97,-325 97,-289 189,-289 189,-325"/>
<text text-anchor="middle" x="143" y="-303.3" font-family="Times New Roman,serif" font-size="14.00">SS_AGPL2b</text>
</g>
<!-- AGPL2_7&#45;&gt;AGPL2_6 -->
<g id="edge15" class="edge"><title>AGPL2_7&#45;&gt;AGPL2_6</title>
<path fill="none" stroke="black" d="M129.783,-325.128C112.979,-346.905 83.8288,-384.681 64.4759,-409.761"/>
<polygon fill="black" stroke="black" points="61.6585,-407.683 58.3203,-417.738 67.2004,-411.959 61.6585,-407.683"/>
</g>
<!-- AGPL2_8 -->
<g id="node17" class="node"><title>AGPL2_8</title>
<polygon fill="none" stroke="black" points="79,-325 25,-325 25,-289 79,-289 79,-325"/>
<text text-anchor="middle" x="52" y="-303.3" font-family="Times New Roman,serif" font-size="14.00">and</text>
</g>
<!-- AGPL2_8&#45;&gt;AGPL2_6 -->
<g id="edge17" class="edge"><title>AGPL2_8&#45;&gt;AGPL2_6</title>
<path fill="none" stroke="black" d="M51.0559,-325.128C49.8922,-346.242 47.8994,-382.396 46.5192,-407.436"/>
<polygon fill="black" stroke="black" points="43.0072,-407.56 45.9515,-417.738 49.9966,-407.946 43.0072,-407.56"/>
</g>
<!-- AGPL2_9 -->
<g id="node19" class="node"><title>AGPL2_9</title>
<polygon fill="none" stroke="black" points="217.5,-129 126.5,-129 126.5,-93 217.5,-93 217.5,-129"/>
<text text-anchor="middle" x="172" y="-107.3" font-family="Times New Roman,serif" font-size="14.00">SS_AGPL2c</text>
</g>
<!-- AGPL2_9&#45;&gt;AGPL2_8 -->
<g id="edge19" class="edge"><title>AGPL2_9&#45;&gt;AGPL2_8</title>
<path fill="none" stroke="black" d="M159.307,-129.052C142.186,-152.382 111.173,-195.83 88,-235 79.5062,-249.357 71.0189,-265.96 64.4202,-279.498"/>
<polygon fill="black" stroke="black" points="61.156,-278.21 59.976,-288.739 67.4643,-281.244 61.156,-278.21"/>
</g>
<!-- AGPL2_10 -->
<g id="node21" class="node"><title>AGPL2_10</title>
<polygon fill="none" stroke="black" points="108,-129 16,-129 16,-93 108,-93 108,-129"/>
<text text-anchor="middle" x="62" y="-107.3" font-family="Times New Roman,serif" font-size="14.00">SS_AGPL2d</text>
</g>
<!-- AGPL2_10&#45;&gt;AGPL2_8 -->
<g id="edge21" class="edge"><title>AGPL2_10&#45;&gt;AGPL2_8</title>
<path fill="none" stroke="black" d="M61.1126,-129.216C59.3706,-163.011 55.4917,-238.262 53.4004,-278.831"/>
<polygon fill="black" stroke="black" points="49.905,-278.655 52.8854,-288.822 56.8957,-279.016 49.905,-278.655"/>
</g>
<!-- AGPL2a -->
<g id="node24" class="node"><title>AGPL2a</title>
<a xlink:title="2.a) You must cause the modified files to carry prominent notices stating that you changed the files and the date of any change.">
<polygon fill="none" stroke="black" points="450,-330 364.415,-295.5 535.585,-295.5 450,-330"/>
<text text-anchor="middle" x="450" y="-303.3" font-family="Times New Roman,serif" font-size="14.00">AGPL2a</text>
</a>
</g>
<!-- AGPL2a_11 -->
<g id="node25" class="node"><title>AGPL2a_11</title>
<polygon fill="none" stroke="black" points="648.5,-152.5 485.5,-152.5 485.5,-69.5 648.5,-69.5 648.5,-152.5"/>
<text text-anchor="middle" x="567" y="-137.3" font-family="Times New Roman,serif" font-size="14.00">cause the modified files to</text>
<text text-anchor="middle" x="567" y="-122.3" font-family="Times New Roman,serif" font-size="14.00"> carry prominent notices</text>
<text text-anchor="middle" x="567" y="-107.3" font-family="Times New Roman,serif" font-size="14.00"> stating that you changed</text>
<text text-anchor="middle" x="567" y="-92.3" font-family="Times New Roman,serif" font-size="14.00"> the files and the date of</text>
<text text-anchor="middle" x="567" y="-77.3" font-family="Times New Roman,serif" font-size="14.00"> any change</text>
</g>
<!-- AGPL2a_11&#45;&gt;AGPL2a -->
<g id="edge24" class="edge"><title>AGPL2a_11&#45;&gt;AGPL2a</title>
<path fill="none" stroke="black" d="M542.473,-152.669C517.697,-193.751 480.479,-255.463 461.71,-286.583"/>
<polygon fill="black" stroke="black" points="458.68,-284.831 456.512,-295.202 464.674,-288.446 458.68,-284.831"/>
<text text-anchor="middle" x="535.5" y="-205.3" font-family="Times New Roman,serif" font-size="14.00">satisfies</text>
</g>
<!-- AGPL2a_12 -->
<g id="node27" class="node"><title>AGPL2a_12</title>
<polygon fill="none" stroke="black" points="467.5,-130 302.5,-130 302.5,-92 467.5,-92 467.5,-130"/>
<text text-anchor="middle" x="385" y="-114.8" font-family="Times New Roman,serif" font-size="14.00">intent to modify, copy and</text>
<text text-anchor="middle" x="385" y="-99.8" font-family="Times New Roman,serif" font-size="14.00"> distribute</text>
</g>
<!-- AGPL2a_12&#45;&gt;AGPL2a -->
<g id="edge26" class="edge"><title>AGPL2a_12&#45;&gt;AGPL2a</title>
<path fill="none" stroke="black" d="M391.115,-130.251C403.253,-166.479 430.318,-247.256 443.083,-285.356"/>
<polygon fill="black" stroke="black" points="439.922,-286.938 446.417,-295.307 446.559,-284.714 439.922,-286.938"/>
<text text-anchor="middle" x="444.5" y="-205.3" font-family="Times New Roman,serif" font-size="14.00">activates</text>
</g>
<!-- AGPL2b -->
<g id="node30" class="node"><title>AGPL2b</title>
<a xlink:title="2.b) You must cause any work that you distribute or publish, that in whole or in part contains or is derived from the Program or any part thereof, to be licensed as a whole at no charge to all third parties under the terms of this License.">
<polygon fill="none" stroke="black" points="824,-330 735.716,-295.5 912.284,-295.5 824,-330"/>
<text text-anchor="middle" x="824" y="-303.3" font-family="Times New Roman,serif" font-size="14.00">AGPL2b</text>
</a>
</g>
<!-- AGPL2b_13 -->
<g id="node31" class="node"><title>AGPL2b_13</title>
<polygon fill="none" stroke="black" points="1027.5,-182.5 856.5,-182.5 856.5,-39.5 1027.5,-39.5 1027.5,-182.5"/>
<text text-anchor="middle" x="942" y="-167.3" font-family="Times New Roman,serif" font-size="14.00">cause any work that you</text>
<text text-anchor="middle" x="942" y="-152.3" font-family="Times New Roman,serif" font-size="14.00"> distribute or publish, that</text>
<text text-anchor="middle" x="942" y="-137.3" font-family="Times New Roman,serif" font-size="14.00"> in whole or in part</text>
<text text-anchor="middle" x="942" y="-122.3" font-family="Times New Roman,serif" font-size="14.00"> contains or is derived from</text>
<text text-anchor="middle" x="942" y="-107.3" font-family="Times New Roman,serif" font-size="14.00"> the Program or any part</text>
<text text-anchor="middle" x="942" y="-92.3" font-family="Times New Roman,serif" font-size="14.00"> thereof, to be licensed as</text>
<text text-anchor="middle" x="942" y="-77.3" font-family="Times New Roman,serif" font-size="14.00"> a whole at no charge to all</text>
<text text-anchor="middle" x="942" y="-62.3" font-family="Times New Roman,serif" font-size="14.00"> third parties under the</text>
<text text-anchor="middle" x="942" y="-47.3" font-family="Times New Roman,serif" font-size="14.00"> terms of this License</text>
</g>
<!-- AGPL2b_13&#45;&gt;AGPL2b -->
<g id="edge29" class="edge"><title>AGPL2b_13&#45;&gt;AGPL2b</title>
<path fill="none" stroke="black" d="M899.065,-182.587C876.494,-219.697 850.526,-262.389 835.809,-286.585"/>
<polygon fill="black" stroke="black" points="832.784,-284.824 830.577,-295.187 838.764,-288.462 832.784,-284.824"/>
<text text-anchor="middle" x="909.5" y="-205.3" font-family="Times New Roman,serif" font-size="14.00">satisfies</text>
</g>
<!-- AGPL2b_14 -->
<g id="node33" class="node"><title>AGPL2b_14</title>
<polygon fill="none" stroke="black" points="838.5,-130 673.5,-130 673.5,-92 838.5,-92 838.5,-130"/>
<text text-anchor="middle" x="756" y="-114.8" font-family="Times New Roman,serif" font-size="14.00">intent to modify, copy and</text>
<text text-anchor="middle" x="756" y="-99.8" font-family="Times New Roman,serif" font-size="14.00"> distribute</text>
</g>
<!-- AGPL2b_14&#45;&gt;AGPL2b -->
<g id="edge31" class="edge"><title>AGPL2b_14&#45;&gt;AGPL2b</title>
<path fill="none" stroke="black" d="M762.397,-130.251C775.15,-166.635 803.653,-247.95 816.935,-285.844"/>
<polygon fill="black" stroke="black" points="813.641,-287.028 820.252,-295.307 820.247,-284.713 813.641,-287.028"/>
<text text-anchor="middle" x="817.5" y="-205.3" font-family="Times New Roman,serif" font-size="14.00">activates</text>
</g>
<!-- AGPL2c -->
<g id="node36" class="node"><title>AGPL2c</title>
<a xlink:title="2.c) If the modified program normally reads commands interactively when run, you must cause it, when started running for such interactive use in the most ordinary way, to print or display an announcement including an appropriate copyright notice and a notice that there is no warranty (or else, saying that you provide a warranty) and that users may redistribute the program under these conditions, and telling the user how to view a copy of this License. (Exception: if the Program itself is interactive but does not normally print such an announcement, your work based on the Program is not required to print an announcement.)">
<polygon fill="none" stroke="black" points="1180,-812 1092.82,-777.5 1267.18,-777.5 1180,-812"/>
<text text-anchor="middle" x="1180" y="-785.3" font-family="Times New Roman,serif" font-size="14.00">AGPL2c</text>
</a>
</g>
<!-- AGPL2c_15 -->
<g id="node37" class="node"><title>AGPL2c_15</title>
<polygon fill="none" stroke="black" points="1367.5,-695 1124.5,-695 1124.5,-507 1367.5,-507 1367.5,-695"/>
<text text-anchor="middle" x="1246" y="-679.8" font-family="Times New Roman,serif" font-size="14.00">cause it ... to print or</text>
<text text-anchor="middle" x="1246" y="-664.8" font-family="Times New Roman,serif" font-size="14.00"> display an announcement</text>
<text text-anchor="middle" x="1246" y="-649.8" font-family="Times New Roman,serif" font-size="14.00"> including an appropriate</text>
<text text-anchor="middle" x="1246" y="-634.8" font-family="Times New Roman,serif" font-size="14.00"> copyright notice and a</text>
<text text-anchor="middle" x="1246" y="-619.8" font-family="Times New Roman,serif" font-size="14.00"> notice that there is no</text>
<text text-anchor="middle" x="1246" y="-604.8" font-family="Times New Roman,serif" font-size="14.00"> warranty (or else, saying</text>
<text text-anchor="middle" x="1246" y="-589.8" font-family="Times New Roman,serif" font-size="14.00"> that you provide a</text>
<text text-anchor="middle" x="1246" y="-574.8" font-family="Times New Roman,serif" font-size="14.00"> warranty) and that users</text>
<text text-anchor="middle" x="1246" y="-559.8" font-family="Times New Roman,serif" font-size="14.00"> may redistribute the</text>
<text text-anchor="middle" x="1246" y="-544.8" font-family="Times New Roman,serif" font-size="14.00"> program under these</text>
<text text-anchor="middle" x="1246" y="-529.8" font-family="Times New Roman,serif" font-size="14.00"> conditions, and telling the</text>
<text text-anchor="middle" x="1246" y="-514.8" font-family="Times New Roman,serif" font-size="14.00"> user how to view a copy of this License</text>
</g>
<!-- AGPL2c_15&#45;&gt;AGPL2c -->
<g id="edge34" class="edge"><title>AGPL2c_15&#45;&gt;AGPL2c</title>
<path fill="none" stroke="black" d="M1212.9,-695.272C1203.22,-722.574 1193.54,-749.843 1187.21,-767.671"/>
<polygon fill="black" stroke="black" points="1183.87,-766.641 1183.82,-777.236 1190.46,-768.982 1183.87,-766.641"/>
<text text-anchor="middle" x="1228.5" y="-717.3" font-family="Times New Roman,serif" font-size="14.00">satisfies</text>
</g>
<!-- AGPL2c_16 -->
<g id="node39" class="node"><title>AGPL2c_16</title>
<polygon fill="none" stroke="black" points="1106,-619 1052,-619 1052,-583 1106,-583 1106,-619"/>
<text text-anchor="middle" x="1079" y="-597.3" font-family="Times New Roman,serif" font-size="14.00">and</text>
</g>
<!-- AGPL2c_16&#45;&gt;AGPL2c -->
<g id="edge36" class="edge"><title>AGPL2c_16&#45;&gt;AGPL2c</title>
<path fill="none" stroke="black" d="M1084.32,-619.343C1090.49,-638.443 1101.56,-669.79 1115,-695 1129.57,-722.339 1150.77,-751.185 1164.95,-769.369"/>
<polygon fill="black" stroke="black" points="1162.35,-771.714 1171.29,-777.387 1167.84,-767.372 1162.35,-771.714"/>
<text text-anchor="middle" x="1159.5" y="-717.3" font-family="Times New Roman,serif" font-size="14.00">activates</text>
</g>
<!-- AGPL2c_17 -->
<g id="node41" class="node"><title>AGPL2c_17</title>
<polygon fill="none" stroke="black" points="1289.5,-455 1124.5,-455 1124.5,-417 1289.5,-417 1289.5,-455"/>
<text text-anchor="middle" x="1207" y="-439.8" font-family="Times New Roman,serif" font-size="14.00">intent to modify, copy and</text>
<text text-anchor="middle" x="1207" y="-424.8" font-family="Times New Roman,serif" font-size="14.00"> distribute</text>
</g>
<!-- AGPL2c_17&#45;&gt;AGPL2c_16 -->
<g id="edge38" class="edge"><title>AGPL2c_17&#45;&gt;AGPL2c_16</title>
<path fill="none" stroke="black" d="M1174.81,-455.176C1155.25,-467.607 1131.04,-485.667 1115,-507 1100.18,-526.704 1090.71,-553.264 1085.22,-572.956"/>
<polygon fill="black" stroke="black" points="1081.78,-572.268 1082.64,-582.828 1088.56,-574.038 1081.78,-572.268"/>
</g>
<!-- AGPL2c_18 -->
<g id="node43" class="node"><title>AGPL2c_18</title>
<polygon fill="none" stroke="black" points="1106,-454 1052,-454 1052,-418 1106,-418 1106,-454"/>
<text text-anchor="middle" x="1079" y="-432.3" font-family="Times New Roman,serif" font-size="14.00">or</text>
</g>
<!-- AGPL2c_18&#45;&gt;AGPL2c_16 -->
<g id="edge40" class="edge"><title>AGPL2c_18&#45;&gt;AGPL2c_16</title>
<path fill="none" stroke="black" d="M1079,-454.136C1079,-482.31 1079,-538.661 1079,-572.479"/>
<polygon fill="black" stroke="black" points="1075.5,-572.603 1079,-582.603 1082.5,-572.603 1075.5,-572.603"/>
</g>
<!-- AGPL2c_19 -->
<g id="node45" class="node"><title>AGPL2c_19</title>
<polygon fill="none" stroke="black" points="1313.5,-333.5 1124.5,-333.5 1124.5,-280.5 1313.5,-280.5 1313.5,-333.5"/>
<text text-anchor="middle" x="1219" y="-318.3" font-family="Times New Roman,serif" font-size="14.00">the modified program normally</text>
<text text-anchor="middle" x="1219" y="-303.3" font-family="Times New Roman,serif" font-size="14.00"> reads commands</text>
<text text-anchor="middle" x="1219" y="-288.3" font-family="Times New Roman,serif" font-size="14.00"> interactively when run</text>
</g>
<!-- AGPL2c_19&#45;&gt;AGPL2c_18 -->
<g id="edge42" class="edge"><title>AGPL2c_19&#45;&gt;AGPL2c_18</title>
<path fill="none" stroke="black" d="M1190.67,-333.7C1165.72,-356.329 1129.68,-389.028 1105.35,-411.101"/>
<polygon fill="black" stroke="black" points="1102.94,-408.557 1097.89,-417.868 1107.64,-413.742 1102.94,-408.557"/>
</g>
<!-- AGPL2c_20 -->
<g id="node47" class="node"><title>AGPL2c_20</title>
<polygon fill="none" stroke="black" points="1106,-325 1052,-325 1052,-289 1106,-289 1106,-325"/>
<text text-anchor="middle" x="1079" y="-303.3" font-family="Times New Roman,serif" font-size="14.00">not</text>
</g>
<!-- AGPL2c_20&#45;&gt;AGPL2c_18 -->
<g id="edge44" class="edge"><title>AGPL2c_20&#45;&gt;AGPL2c_18</title>
<path fill="none" stroke="black" d="M1079,-325.128C1079,-346.242 1079,-382.396 1079,-407.436"/>
<polygon fill="black" stroke="black" points="1075.5,-407.738 1079,-417.738 1082.5,-407.738 1075.5,-407.738"/>
</g>
<!-- AGPL2c_21 -->
<g id="node49" class="node"><title>AGPL2c_21</title>
<polygon fill="none" stroke="black" points="1224,-137.5 1052,-137.5 1052,-84.5 1224,-84.5 1224,-137.5"/>
<text text-anchor="middle" x="1138" y="-122.3" font-family="Times New Roman,serif" font-size="14.00">Program itself is interactive</text>
<text text-anchor="middle" x="1138" y="-107.3" font-family="Times New Roman,serif" font-size="14.00"> but does not normally print</text>
<text text-anchor="middle" x="1138" y="-92.3" font-family="Times New Roman,serif" font-size="14.00"> such an announcement</text>
</g>
<!-- AGPL2c_21&#45;&gt;AGPL2c_20 -->
<g id="edge46" class="edge"><title>AGPL2c_21&#45;&gt;AGPL2c_20</title>
<path fill="none" stroke="black" d="M1130.17,-137.762C1118.99,-174.505 1098.57,-241.64 1087.2,-279.034"/>
<polygon fill="black" stroke="black" points="1083.81,-278.157 1084.25,-288.743 1090.51,-280.194 1083.81,-278.157"/>
</g>
<!-- AGPL2d -->
<g id="node52" class="node"><title>AGPL2d</title>
<a xlink:title="2.d) If the Program as you received it is intended to interact with users through a computer network and if, in the version you received, any user interacting with the Program was given the opportunity to request transmission to that user of the Program&#39;s complete source code, you must not remove that facility from your modified version of the Program or work based on the Program, and must offer an equivalent opportunity for all users interacting with your Program through a computer network to request immediate transmission by HTTP of the complete source code of your modified version or other derivative work.">
<polygon fill="none" stroke="black" points="1709,-624 1620.72,-589.5 1797.28,-589.5 1709,-624"/>
<text text-anchor="middle" x="1709" y="-597.3" font-family="Times New Roman,serif" font-size="14.00">AGPL2d</text>
</a>
</g>
<!-- AGPL2d_22 -->
<g id="node53" class="node"><title>AGPL2d_22</title>
<polygon fill="none" stroke="black" points="1868,-454 1814,-454 1814,-418 1868,-418 1868,-454"/>
<text text-anchor="middle" x="1841" y="-432.3" font-family="Times New Roman,serif" font-size="14.00">and</text>
</g>
<!-- AGPL2d_22&#45;&gt;AGPL2d -->
<g id="edge49" class="edge"><title>AGPL2d_22&#45;&gt;AGPL2d</title>
<path fill="none" stroke="black" d="M1827.12,-454.136C1802.2,-484.918 1750.03,-549.331 1724.18,-581.249"/>
<polygon fill="black" stroke="black" points="1721.21,-579.361 1717.64,-589.335 1726.65,-583.766 1721.21,-579.361"/>
<text text-anchor="middle" x="1831.5" y="-477.3" font-family="Times New Roman,serif" font-size="14.00">satisfies</text>
</g>
<!-- AGPL2d_23 -->
<g id="node55" class="node"><title>AGPL2d_23</title>
<polygon fill="none" stroke="black" points="2012,-325 1958,-325 1958,-289 2012,-289 2012,-325"/>
<text text-anchor="middle" x="1985" y="-303.3" font-family="Times New Roman,serif" font-size="14.00">not</text>
</g>
<!-- AGPL2d_23&#45;&gt;AGPL2d_22 -->
<g id="edge51" class="edge"><title>AGPL2d_23&#45;&gt;AGPL2d_22</title>
<path fill="none" stroke="black" d="M1979.76,-325.027C1974.22,-340.671 1964.18,-363.686 1949,-379 1929.1,-399.084 1900.48,-413.477 1877.7,-422.639"/>
<polygon fill="black" stroke="black" points="1876.41,-419.384 1868.33,-426.246 1878.92,-425.916 1876.41,-419.384"/>
</g>
<!-- AGPL2d_24 -->
<g id="node57" class="node"><title>AGPL2d_24</title>
<polygon fill="none" stroke="black" points="2038,-145 1856,-145 1856,-77 2038,-77 2038,-145"/>
<text text-anchor="middle" x="1947" y="-129.8" font-family="Times New Roman,serif" font-size="14.00">remove that facility from your</text>
<text text-anchor="middle" x="1947" y="-114.8" font-family="Times New Roman,serif" font-size="14.00"> modified version of the</text>
<text text-anchor="middle" x="1947" y="-99.8" font-family="Times New Roman,serif" font-size="14.00"> Program or work based on</text>
<text text-anchor="middle" x="1947" y="-84.8" font-family="Times New Roman,serif" font-size="14.00"> the Program</text>
</g>
<!-- AGPL2d_24&#45;&gt;AGPL2d_23 -->
<g id="edge53" class="edge"><title>AGPL2d_24&#45;&gt;AGPL2d_23</title>
<path fill="none" stroke="black" d="M1953.53,-145.35C1960.92,-183.05 1972.8,-243.718 1979.66,-278.715"/>
<polygon fill="black" stroke="black" points="1976.25,-279.558 1981.61,-288.699 1983.12,-278.212 1976.25,-279.558"/>
</g>
<!-- AGPL2d_25 -->
<g id="node59" class="node"><title>AGPL2d_25</title>
<polygon fill="none" stroke="black" points="1940,-378.5 1742,-378.5 1742,-235.5 1940,-235.5 1940,-378.5"/>
<text text-anchor="middle" x="1841" y="-363.3" font-family="Times New Roman,serif" font-size="14.00">offer an equivalent</text>
<text text-anchor="middle" x="1841" y="-348.3" font-family="Times New Roman,serif" font-size="14.00"> opportunity for all users</text>
<text text-anchor="middle" x="1841" y="-333.3" font-family="Times New Roman,serif" font-size="14.00"> interacting with your</text>
<text text-anchor="middle" x="1841" y="-318.3" font-family="Times New Roman,serif" font-size="14.00"> Program through a computer</text>
<text text-anchor="middle" x="1841" y="-303.3" font-family="Times New Roman,serif" font-size="14.00"> network to request</text>
<text text-anchor="middle" x="1841" y="-288.3" font-family="Times New Roman,serif" font-size="14.00"> immediate transmission by</text>
<text text-anchor="middle" x="1841" y="-273.3" font-family="Times New Roman,serif" font-size="14.00"> HTTP of the complete source</text>
<text text-anchor="middle" x="1841" y="-258.3" font-family="Times New Roman,serif" font-size="14.00"> code of your modified</text>
<text text-anchor="middle" x="1841" y="-243.3" font-family="Times New Roman,serif" font-size="14.00"> version or other derivative work</text>
</g>
<!-- AGPL2d_25&#45;&gt;AGPL2d_22 -->
<g id="edge55" class="edge"><title>AGPL2d_25&#45;&gt;AGPL2d_22</title>
<path fill="none" stroke="black" d="M1841,-378.556C1841,-388.833 1841,-398.86 1841,-407.543"/>
<polygon fill="black" stroke="black" points="1837.5,-407.74 1841,-417.74 1844.5,-407.74 1837.5,-407.74"/>
</g>
<!-- AGPL2d_26 -->
<g id="node61" class="node"><title>AGPL2d_26</title>
<polygon fill="none" stroke="black" points="1668,-454 1614,-454 1614,-418 1668,-418 1668,-454"/>
<text text-anchor="middle" x="1641" y="-432.3" font-family="Times New Roman,serif" font-size="14.00">and</text>
</g>
<!-- AGPL2d_26&#45;&gt;AGPL2d -->
<g id="edge57" class="edge"><title>AGPL2d_26&#45;&gt;AGPL2d</title>
<path fill="none" stroke="black" d="M1648.15,-454.136C1660.83,-484.523 1687.18,-547.685 1700.66,-580.005"/>
<polygon fill="black" stroke="black" points="1697.47,-581.453 1704.55,-589.335 1703.93,-578.758 1697.47,-581.453"/>
<text text-anchor="middle" x="1685.5" y="-477.3" font-family="Times New Roman,serif" font-size="14.00">activates</text>
</g>
<!-- AGPL2d_27 -->
<g id="node63" class="node"><title>AGPL2d_27</title>
<polygon fill="none" stroke="black" points="1723.5,-326 1558.5,-326 1558.5,-288 1723.5,-288 1723.5,-326"/>
<text text-anchor="middle" x="1641" y="-310.8" font-family="Times New Roman,serif" font-size="14.00">intent to modify, copy and</text>
<text text-anchor="middle" x="1641" y="-295.8" font-family="Times New Roman,serif" font-size="14.00"> distribute</text>
</g>
<!-- AGPL2d_27&#45;&gt;AGPL2d_26 -->
<g id="edge59" class="edge"><title>AGPL2d_27&#45;&gt;AGPL2d_26</title>
<path fill="none" stroke="black" d="M1641,-326.196C1641,-347.466 1641,-382.885 1641,-407.511"/>
<polygon fill="black" stroke="black" points="1637.5,-407.653 1641,-417.653 1644.5,-407.653 1637.5,-407.653"/>
</g>
<!-- AGPL2d_28 -->
<g id="node65" class="node"><title>AGPL2d_28</title>
<polygon fill="none" stroke="black" points="1540,-325 1486,-325 1486,-289 1540,-289 1540,-325"/>
<text text-anchor="middle" x="1513" y="-303.3" font-family="Times New Roman,serif" font-size="14.00">and</text>
</g>
<!-- AGPL2d_28&#45;&gt;AGPL2d_26 -->
<g id="edge61" class="edge"><title>AGPL2d_28&#45;&gt;AGPL2d_26</title>
<path fill="none" stroke="black" d="M1518.88,-325.071C1524.85,-340.531 1535.32,-363.233 1550,-379 1565.29,-395.416 1586.44,-408.819 1604.5,-418.391"/>
<polygon fill="black" stroke="black" points="1603.12,-421.616 1613.61,-423.044 1606.3,-415.381 1603.12,-421.616"/>
</g>
<!-- AGPL2d_29 -->
<g id="node67" class="node"><title>AGPL2d_29</title>
<polygon fill="none" stroke="black" points="1838,-145 1652,-145 1652,-77 1838,-77 1838,-145"/>
<text text-anchor="middle" x="1745" y="-129.8" font-family="Times New Roman,serif" font-size="14.00">the Program as you received it</text>
<text text-anchor="middle" x="1745" y="-114.8" font-family="Times New Roman,serif" font-size="14.00"> is intended to interact</text>
<text text-anchor="middle" x="1745" y="-99.8" font-family="Times New Roman,serif" font-size="14.00"> with users through a</text>
<text text-anchor="middle" x="1745" y="-84.8" font-family="Times New Roman,serif" font-size="14.00"> computer network</text>
</g>
<!-- AGPL2d_29&#45;&gt;AGPL2d_28 -->
<g id="edge63" class="edge"><title>AGPL2d_29&#45;&gt;AGPL2d_28</title>
<path fill="none" stroke="black" d="M1698.93,-145.055C1681.34,-157.326 1660.97,-171.136 1642,-183 1602.18,-207.909 1582.64,-201.228 1550,-235 1537.83,-247.587 1528.68,-264.972 1522.53,-279.389"/>
<polygon fill="black" stroke="black" points="1519.23,-278.216 1518.74,-288.8 1525.72,-280.828 1519.23,-278.216"/>
</g>
<!-- AGPL2d_30 -->
<g id="node69" class="node"><title>AGPL2d_30</title>
<polygon fill="none" stroke="black" points="1633.5,-160 1392.5,-160 1392.5,-62 1633.5,-62 1633.5,-160"/>
<text text-anchor="middle" x="1513" y="-144.8" font-family="Times New Roman,serif" font-size="14.00">in the version you received,</text>
<text text-anchor="middle" x="1513" y="-129.8" font-family="Times New Roman,serif" font-size="14.00"> any user interacting with</text>
<text text-anchor="middle" x="1513" y="-114.8" font-family="Times New Roman,serif" font-size="14.00"> the Program was given the</text>
<text text-anchor="middle" x="1513" y="-99.8" font-family="Times New Roman,serif" font-size="14.00"> opportunity to request</text>
<text text-anchor="middle" x="1513" y="-84.8" font-family="Times New Roman,serif" font-size="14.00"> transmission to that user</text>
<text text-anchor="middle" x="1513" y="-69.8" font-family="Times New Roman,serif" font-size="14.00"> of the Program&#39;s complete source code</text>
</g>
<!-- AGPL2d_30&#45;&gt;AGPL2d_28 -->
<g id="edge65" class="edge"><title>AGPL2d_30&#45;&gt;AGPL2d_28</title>
<path fill="none" stroke="black" d="M1513,-160.454C1513,-197.637 1513,-247.643 1513,-278.307"/>
<polygon fill="black" stroke="black" points="1509.5,-278.669 1513,-288.669 1516.5,-278.669 1509.5,-278.669"/>
</g>
</g>
</svg>
