<?xml version="1.0" encoding="UTF-8" standalone="no"?>
<!DOCTYPE svg PUBLIC "-//W3C//DTD SVG 1.1//EN"
 "http://www.w3.org/Graphics/SVG/1.1/DTD/svg11.dtd">
<!-- Generated by graphviz version 2.36.0 (20140111.2315)
 -->
<!-- Title: G Pages: 1 -->
<svg width="1060pt" height="1294pt"
 viewBox="0.00 0.00 1060.00 1294.00" xmlns="http://www.w3.org/2000/svg" xmlns:xlink="http://www.w3.org/1999/xlink">
<g id="graph0" class="graph" transform="scale(1 1) rotate(0) translate(4 1290)">
<title>G</title>
<polygon fill="white" stroke="none" points="-4,4 -4,-1290 1056,-1290 1056,4 -4,4"/>
<g id="clust1" class="cluster"><title>clusterSS_Apache4</title>
<polygon fill="none" stroke="black" points="8,-621 8,-1278 358,-1278 358,-621 8,-621"/>
<text text-anchor="middle" x="183" y="-628.8" font-family="Times New Roman,serif" font-size="14.00">SS_Apache4</text>
</g>
<g id="clust2" class="cluster"><title>clusterSS_Apache4d</title>
<polygon fill="none" stroke="black" points="366,-8 366,-927 1044,-927 1044,-8 366,-8"/>
<text text-anchor="middle" x="705" y="-15.8" font-family="Times New Roman,serif" font-size="14.00">SS_Apache4d</text>
</g>
<!-- Apache4 -->
<g id="node1" class="node"><title>Apache4</title>
<g id="a_node1"><a xlink:title="4. Redistribution. You may reproduce and distribute copies of the Work or Derivative Works thereof in any medium, with or without modifications, and in Source or Object form, provided that You meet the following conditions:">
<polygon fill="lightblue" stroke="black" points="256.585,-1247 128.207,-1270 128.207,-1224 256.585,-1247"/>
<text text-anchor="middle" x="171" y="-1243.3" font-family="Times New Roman,serif" font-size="14.00">Apache4</text>
</a>
</g>
</g>
<!-- Apache4_1 -->
<g id="node2" class="node"><title>Apache4_1</title>
<polygon fill="none" stroke="black" points="349.5,-1172 164.5,-1172 164.5,-1074 349.5,-1074 349.5,-1172"/>
<text text-anchor="middle" x="257" y="-1156.8" font-family="Times New Roman,serif" font-size="14.00">[You reproduced and</text>
<text text-anchor="middle" x="257" y="-1141.8" font-family="Times New Roman,serif" font-size="14.00"> distributed] copies of the</text>
<text text-anchor="middle" x="257" y="-1126.8" font-family="Times New Roman,serif" font-size="14.00"> Work or Derivative Works</text>
<text text-anchor="middle" x="257" y="-1111.8" font-family="Times New Roman,serif" font-size="14.00"> thereof in any medium, with</text>
<text text-anchor="middle" x="257" y="-1096.8" font-family="Times New Roman,serif" font-size="14.00"> or without modifications,</text>
<text text-anchor="middle" x="257" y="-1081.8" font-family="Times New Roman,serif" font-size="14.00"> and in Source or Object form</text>
</g>
<!-- Apache4_1&#45;&gt;Apache4 -->
<g id="edge1" class="edge"><title>Apache4_1&#45;&gt;Apache4</title>
<path fill="none" stroke="black" d="M228.879,-1172.13C221.759,-1183.48 213.884,-1195.36 206,-1206 201.091,-1212.63 195.343,-1219.5 189.941,-1225.64"/>
<polygon fill="black" stroke="black" points="186.985,-1223.7 182.9,-1233.47 192.189,-1228.38 186.985,-1223.7"/>
<text text-anchor="middle" x="239.5" y="-1194.3" font-family="Times New Roman,serif" font-size="14.00">satisfies</text>
</g>
<!-- Apache4_2 -->
<g id="node3" class="node"><title>Apache4_2</title>
<polygon fill="grey" stroke="black" points="146,-1141 92,-1141 92,-1105 146,-1105 146,-1141"/>
<text text-anchor="middle" x="119" y="-1119.3" font-family="Times New Roman,serif" font-size="14.00">and</text>
</g>
<!-- Apache4_2&#45;&gt;Apache4 -->
<g id="edge2" class="edge"><title>Apache4_2&#45;&gt;Apache4</title>
<path fill="none" stroke="black" d="M126.34,-1141.22C135.208,-1162.03 150.196,-1197.19 160.338,-1220.99"/>
<polygon fill="black" stroke="black" points="157.215,-1222.59 164.356,-1230.41 163.655,-1219.84 157.215,-1222.59"/>
<text text-anchor="middle" x="177.5" y="-1194.3" font-family="Times New Roman,serif" font-size="14.00">activates</text>
</g>
<!-- Apache4_3 -->
<g id="node4" class="node"><title>Apache4_3</title>
<polygon fill="none" stroke="black" points="340,-1036 164,-1036 164,-968 340,-968 340,-1036"/>
<text text-anchor="middle" x="252" y="-1020.8" font-family="Times New Roman,serif" font-size="14.00">(a) You must give any other</text>
<text text-anchor="middle" x="252" y="-1005.8" font-family="Times New Roman,serif" font-size="14.00"> recipients of the Work or</text>
<text text-anchor="middle" x="252" y="-990.8" font-family="Times New Roman,serif" font-size="14.00"> Derivative Works a copy of</text>
<text text-anchor="middle" x="252" y="-975.8" font-family="Times New Roman,serif" font-size="14.00"> this License</text>
</g>
<!-- Apache4_3&#45;&gt;Apache4_2 -->
<g id="edge3" class="edge"><title>Apache4_3&#45;&gt;Apache4_2</title>
<path fill="none" stroke="black" d="M200.892,-1036.1C185.379,-1047.26 168.804,-1060.36 155,-1074 148.291,-1080.63 141.823,-1088.58 136.266,-1096.08"/>
<polygon fill="black" stroke="black" points="133.162,-1094.4 130.2,-1104.58 138.859,-1098.47 133.162,-1094.4"/>
</g>
<!-- Apache4_4 -->
<g id="node5" class="node"><title>Apache4_4</title>
<polygon fill="grey" stroke="black" points="146,-1020 92,-1020 92,-984 146,-984 146,-1020"/>
<text text-anchor="middle" x="119" y="-998.3" font-family="Times New Roman,serif" font-size="14.00">and</text>
</g>
<!-- Apache4_4&#45;&gt;Apache4_2 -->
<g id="edge4" class="edge"><title>Apache4_4&#45;&gt;Apache4_2</title>
<path fill="none" stroke="black" d="M119,-1020.05C119,-1039.58 119,-1071.84 119,-1094.84"/>
<polygon fill="black" stroke="black" points="115.5,-1094.98 119,-1104.98 122.5,-1094.98 115.5,-1094.98"/>
</g>
<!-- Apache4_5 -->
<g id="node6" class="node"><title>Apache4_5</title>
<polygon fill="none" stroke="black" points="331.5,-930 166.5,-930 166.5,-862 331.5,-862 331.5,-930"/>
<text text-anchor="middle" x="249" y="-914.8" font-family="Times New Roman,serif" font-size="14.00">(b) You must cause any</text>
<text text-anchor="middle" x="249" y="-899.8" font-family="Times New Roman,serif" font-size="14.00"> modified files to carry</text>
<text text-anchor="middle" x="249" y="-884.8" font-family="Times New Roman,serif" font-size="14.00"> prominent notices stating</text>
<text text-anchor="middle" x="249" y="-869.8" font-family="Times New Roman,serif" font-size="14.00"> that You changed the files</text>
</g>
<!-- Apache4_5&#45;&gt;Apache4_4 -->
<g id="edge5" class="edge"><title>Apache4_5&#45;&gt;Apache4_4</title>
<path fill="none" stroke="black" d="M203.379,-930.095C187.786,-941.763 170.401,-955.174 155,-968 151.535,-970.886 147.955,-973.997 144.459,-977.115"/>
<polygon fill="black" stroke="black" points="142.069,-974.558 137.014,-983.868 146.772,-979.742 142.069,-974.558"/>
</g>
<!-- Apache4_6 -->
<g id="node7" class="node"><title>Apache4_6</title>
<polygon fill="grey" stroke="black" points="148,-914 94,-914 94,-878 148,-878 148,-914"/>
<text text-anchor="middle" x="121" y="-892.3" font-family="Times New Roman,serif" font-size="14.00">and</text>
</g>
<!-- Apache4_6&#45;&gt;Apache4_4 -->
<g id="edge6" class="edge"><title>Apache4_6&#45;&gt;Apache4_4</title>
<path fill="none" stroke="black" d="M120.67,-914.173C120.359,-930.357 119.887,-954.869 119.524,-973.727"/>
<polygon fill="black" stroke="black" points="116.024,-973.736 119.331,-983.801 123.022,-973.87 116.024,-973.736"/>
</g>
<!-- Apache4_7 -->
<g id="node8" class="node"><title>Apache4_7</title>
<polygon fill="none" stroke="black" points="234,-810 16,-810 16,-652 234,-652 234,-810"/>
<text text-anchor="middle" x="125" y="-794.8" font-family="Times New Roman,serif" font-size="14.00">(c) You must retain, in the</text>
<text text-anchor="middle" x="125" y="-779.8" font-family="Times New Roman,serif" font-size="14.00"> Source form of any</text>
<text text-anchor="middle" x="125" y="-764.8" font-family="Times New Roman,serif" font-size="14.00"> Derivative Works that You</text>
<text text-anchor="middle" x="125" y="-749.8" font-family="Times New Roman,serif" font-size="14.00"> distribute, all copyright,</text>
<text text-anchor="middle" x="125" y="-734.8" font-family="Times New Roman,serif" font-size="14.00"> patent, trademark, and</text>
<text text-anchor="middle" x="125" y="-719.8" font-family="Times New Roman,serif" font-size="14.00"> attribution notices from</text>
<text text-anchor="middle" x="125" y="-704.8" font-family="Times New Roman,serif" font-size="14.00"> the Source form of the</text>
<text text-anchor="middle" x="125" y="-689.8" font-family="Times New Roman,serif" font-size="14.00"> Work, excluding those</text>
<text text-anchor="middle" x="125" y="-674.8" font-family="Times New Roman,serif" font-size="14.00"> notices that do not pertain</text>
<text text-anchor="middle" x="125" y="-659.8" font-family="Times New Roman,serif" font-size="14.00"> to any part of the Derivative Works</text>
</g>
<!-- Apache4_7&#45;&gt;Apache4_6 -->
<g id="edge7" class="edge"><title>Apache4_7&#45;&gt;Apache4_6</title>
<path fill="none" stroke="black" d="M123.082,-810.158C122.574,-830.87 122.058,-851.871 121.668,-867.797"/>
<polygon fill="black" stroke="black" points="118.165,-867.863 121.419,-877.946 125.163,-868.035 118.165,-867.863"/>
</g>
<!-- Apache4_8 -->
<g id="node9" class="node"><title>Apache4_8</title>
<polygon fill="orange" stroke="black" points="350,-749 252,-749 252,-713 350,-713 350,-749"/>
<text text-anchor="middle" x="301" y="-727.3" font-family="Times New Roman,serif" font-size="14.00">SS_Apache4d</text>
</g>
<!-- Apache4_8&#45;&gt;Apache4_6 -->
<g id="edge8" class="edge"><title>Apache4_8&#45;&gt;Apache4_6</title>
<path fill="none" stroke="black" d="M291.078,-749.019C280.643,-765.912 262.982,-791.842 243,-810 209.944,-840.039 192.749,-835.222 157,-862 153.312,-864.762 149.568,-867.839 145.957,-870.972"/>
<polygon fill="black" stroke="black" points="143.436,-868.532 138.34,-877.82 148.116,-873.737 143.436,-868.532"/>
</g>
<!-- Apache4d -->
<g id="node10" class="node"><title>Apache4d</title>
<g id="a_node10"><a xlink:title="4(d) If the Work includes a &#39;NOTICE&#39; text file as part of its distribution, then any Derivative Works that You distribute must include a readable copy of the attribution notices contained within such NOTICE file, excluding those notices that do not pertain to any part of the Derivative Works, in at least one of the following places: within a NOTICE text file distributed as part of the Derivative Works; within the Source form or documentation, if provided along with the Derivative Works; or, within a display generated by the Derivative Works, if and wherever such third&#45;party notices normally appear. The contents of the NOTICE file are for informational purposes only and do not modify the License. You may add Your own attribution notices within Derivative Works that You distribute, alongside or as an addendum to the NOTICE text from the Work, provided that such additional attribution notices cannot be construed as modifying the License.">
<polygon fill="lightblue" stroke="black" points="522,-919 425.617,-884.5 618.383,-884.5 522,-919"/>
<text text-anchor="middle" x="522" y="-892.3" font-family="Times New Roman,serif" font-size="14.00">Apache4d</text>
</a>
</g>
</g>
<!-- Apache4_8&#45;&gt;Apache4d -->
<g id="edge27" class="edge"><title>Apache4_8&#45;&gt;Apache4d</title>
<path fill="none" stroke="grey" stroke-dasharray="5,2" d="M311.409,-749.225C321.251,-764.546 337.231,-787.13 358.883,-807.017"/>
<polygon fill="grey" stroke="grey" points="356.616,-809.684 366.443,-813.644 361.23,-804.42 356.616,-809.684"/>
</g>
<!-- Apache4d_9 -->
<g id="node11" class="node"><title>Apache4d_9</title>
<polygon fill="grey" stroke="black" points="900,-749 846,-749 846,-713 900,-713 900,-749"/>
<text text-anchor="middle" x="873" y="-727.3" font-family="Times New Roman,serif" font-size="14.00">and</text>
</g>
<!-- Apache4d_9&#45;&gt;Apache4d -->
<g id="edge9" class="edge"><title>Apache4d_9&#45;&gt;Apache4d</title>
<path fill="none" stroke="black" d="M845.75,-744.655C781.885,-774.313 622.777,-848.2 554.243,-880.027"/>
<polygon fill="black" stroke="black" points="552.406,-877.021 544.81,-884.407 555.354,-883.37 552.406,-877.021"/>
<text text-anchor="middle" x="688.5" y="-832.3" font-family="Times New Roman,serif" font-size="14.00">satisfies</text>
</g>
<!-- Apache4d_10 -->
<g id="node12" class="node"><title>Apache4d_10</title>
<polygon fill="grey" stroke="black" points="1036,-584 982,-584 982,-548 1036,-548 1036,-584"/>
<text text-anchor="middle" x="1009" y="-562.3" font-family="Times New Roman,serif" font-size="14.00">and</text>
</g>
<!-- Apache4d_10&#45;&gt;Apache4d_9 -->
<g id="edge10" class="edge"><title>Apache4d_10&#45;&gt;Apache4d_9</title>
<path fill="none" stroke="black" d="M994.703,-584.136C970.686,-612.92 922.132,-671.113 894.157,-704.643"/>
<polygon fill="black" stroke="black" points="891.234,-702.683 887.515,-712.603 896.609,-707.167 891.234,-702.683"/>
</g>
<!-- Apache4d_11 -->
<g id="node13" class="node"><title>Apache4d_11</title>
<polygon fill="none" stroke="black" points="1035.5,-501 842.5,-501 842.5,-433 1035.5,-433 1035.5,-501"/>
<text text-anchor="middle" x="939" y="-485.8" font-family="Times New Roman,serif" font-size="14.00">[You included] a readable copy</text>
<text text-anchor="middle" x="939" y="-470.8" font-family="Times New Roman,serif" font-size="14.00"> of the attribution notices</text>
<text text-anchor="middle" x="939" y="-455.8" font-family="Times New Roman,serif" font-size="14.00"> contained within such</text>
<text text-anchor="middle" x="939" y="-440.8" font-family="Times New Roman,serif" font-size="14.00"> NOTICE file</text>
</g>
<!-- Apache4d_11&#45;&gt;Apache4d_10 -->
<g id="edge11" class="edge"><title>Apache4d_11&#45;&gt;Apache4d_10</title>
<path fill="none" stroke="black" d="M962.894,-501.111C971.921,-513.619 982.047,-527.651 990.505,-539.371"/>
<polygon fill="black" stroke="black" points="987.912,-541.759 996.602,-547.82 993.588,-537.663 987.912,-541.759"/>
</g>
<!-- Apache4d_12 -->
<g id="node14" class="node"><title>Apache4d_12</title>
<polygon fill="grey" stroke="black" points="824,-485 770,-485 770,-449 824,-449 824,-485"/>
<text text-anchor="middle" x="797" y="-463.3" font-family="Times New Roman,serif" font-size="14.00">or</text>
</g>
<!-- Apache4d_12&#45;&gt;Apache4d_10 -->
<g id="edge12" class="edge"><title>Apache4d_12&#45;&gt;Apache4d_10</title>
<path fill="none" stroke="black" d="M813.052,-485.243C819.141,-490.949 826.44,-496.885 834,-501 889.874,-531.416 914.46,-511.868 972,-539 974.077,-539.979 976.163,-541.074 978.227,-542.246"/>
<polygon fill="black" stroke="black" points="976.72,-545.43 987.058,-547.749 980.422,-539.49 976.72,-545.43"/>
</g>
<!-- Apache4d_13 -->
<g id="node15" class="node"><title>Apache4d_13</title>
<polygon fill="none" stroke="black" points="972.5,-395 793.5,-395 793.5,-327 972.5,-327 972.5,-395"/>
<text text-anchor="middle" x="883" y="-379.8" font-family="Times New Roman,serif" font-size="14.00">[You included the attribution</text>
<text text-anchor="middle" x="883" y="-364.8" font-family="Times New Roman,serif" font-size="14.00"> notices] within a NOTICE</text>
<text text-anchor="middle" x="883" y="-349.8" font-family="Times New Roman,serif" font-size="14.00"> text file distributed as</text>
<text text-anchor="middle" x="883" y="-334.8" font-family="Times New Roman,serif" font-size="14.00"> part of the Derivative Works</text>
</g>
<!-- Apache4d_13&#45;&gt;Apache4d_12 -->
<g id="edge13" class="edge"><title>Apache4d_13&#45;&gt;Apache4d_12</title>
<path fill="none" stroke="black" d="M855.553,-395.192C843.34,-409.961 829.193,-427.069 817.865,-440.768"/>
<polygon fill="black" stroke="black" points="814.893,-438.87 811.218,-448.806 820.288,-443.33 814.893,-438.87"/>
</g>
<!-- Apache4d_14 -->
<g id="node16" class="node"><title>Apache4d_14</title>
<polygon fill="grey" stroke="black" points="775,-379 721,-379 721,-343 775,-343 775,-379"/>
<text text-anchor="middle" x="748" y="-357.3" font-family="Times New Roman,serif" font-size="14.00">or</text>
</g>
<!-- Apache4d_14&#45;&gt;Apache4d_12 -->
<g id="edge14" class="edge"><title>Apache4d_14&#45;&gt;Apache4d_12</title>
<path fill="none" stroke="black" d="M756.091,-379.173C763.823,-395.583 775.588,-420.555 784.52,-439.513"/>
<polygon fill="black" stroke="black" points="781.468,-441.247 788.897,-448.801 787.801,-438.263 781.468,-441.247"/>
</g>
<!-- Apache4d_15 -->
<g id="node17" class="node"><title>Apache4d_15</title>
<polygon fill="grey" stroke="black" points="830,-289 776,-289 776,-253 830,-253 830,-289"/>
<text text-anchor="middle" x="803" y="-267.3" font-family="Times New Roman,serif" font-size="14.00">or</text>
</g>
<!-- Apache4d_15&#45;&gt;Apache4d_14 -->
<g id="edge15" class="edge"><title>Apache4d_15&#45;&gt;Apache4d_14</title>
<path fill="none" stroke="black" d="M792.134,-289.386C784.097,-302.245 773.024,-319.962 763.98,-334.432"/>
<polygon fill="black" stroke="black" points="760.989,-332.615 758.657,-342.95 766.925,-336.325 760.989,-332.615"/>
</g>
<!-- Apache4d_16 -->
<g id="node18" class="node"><title>Apache4d_16</title>
<polygon fill="none" stroke="black" points="1024,-199.5 848,-199.5 848,-146.5 1024,-146.5 1024,-199.5"/>
<text text-anchor="middle" x="936" y="-184.3" font-family="Times New Roman,serif" font-size="14.00">[You included the attribution</text>
<text text-anchor="middle" x="936" y="-169.3" font-family="Times New Roman,serif" font-size="14.00"> notices] within the Source</text>
<text text-anchor="middle" x="936" y="-154.3" font-family="Times New Roman,serif" font-size="14.00"> form or documentation</text>
</g>
<!-- Apache4d_16&#45;&gt;Apache4d_15 -->
<g id="edge16" class="edge"><title>Apache4d_16&#45;&gt;Apache4d_15</title>
<path fill="none" stroke="black" d="M900.358,-199.726C879.982,-214.434 854.64,-232.726 834.919,-246.961"/>
<polygon fill="black" stroke="black" points="832.627,-244.298 826.567,-252.989 836.724,-249.974 832.627,-244.298"/>
</g>
<!-- Apache4d_17 -->
<g id="node19" class="node"><title>Apache4d_17</title>
<polygon fill="grey" stroke="black" points="830,-191 776,-191 776,-155 830,-155 830,-191"/>
<text text-anchor="middle" x="803" y="-169.3" font-family="Times New Roman,serif" font-size="14.00">not</text>
</g>
<!-- Apache4d_17&#45;&gt;Apache4d_15 -->
<g id="edge17" class="edge"><title>Apache4d_17&#45;&gt;Apache4d_15</title>
<path fill="none" stroke="black" d="M803,-191.163C803,-205.497 803,-226.193 803,-242.784"/>
<polygon fill="black" stroke="black" points="799.5,-242.986 803,-252.986 806.5,-242.986 799.5,-242.986"/>
</g>
<!-- Apache4d_18 -->
<g id="node20" class="node"><title>Apache4d_18</title>
<polygon fill="none" stroke="black" points="885.5,-85 720.5,-85 720.5,-47 885.5,-47 885.5,-85"/>
<text text-anchor="middle" x="803" y="-69.8" font-family="Times New Roman,serif" font-size="14.00">source [is] provided along</text>
<text text-anchor="middle" x="803" y="-54.8" font-family="Times New Roman,serif" font-size="14.00"> with the Derivative Works</text>
</g>
<!-- Apache4d_18&#45;&gt;Apache4d_17 -->
<g id="edge18" class="edge"><title>Apache4d_18&#45;&gt;Apache4d_17</title>
<path fill="none" stroke="black" d="M803,-85.2896C803,-101.771 803,-126.22 803,-144.959"/>
<polygon fill="black" stroke="black" points="799.5,-144.962 803,-154.962 806.5,-144.962 799.5,-144.962"/>
</g>
<!-- Apache4d_19 -->
<g id="node21" class="node"><title>Apache4d_19</title>
<polygon fill="grey" stroke="black" points="677,-289 623,-289 623,-253 677,-253 677,-289"/>
<text text-anchor="middle" x="650" y="-267.3" font-family="Times New Roman,serif" font-size="14.00">or</text>
</g>
<!-- Apache4d_19&#45;&gt;Apache4d_14 -->
<g id="edge19" class="edge"><title>Apache4d_19&#45;&gt;Apache4d_14</title>
<path fill="none" stroke="black" d="M669.362,-289.386C684.222,-302.73 704.909,-321.306 721.335,-336.056"/>
<polygon fill="black" stroke="black" points="719.233,-338.872 729.012,-342.95 723.91,-333.664 719.233,-338.872"/>
</g>
<!-- Apache4d_20 -->
<g id="node22" class="node"><title>Apache4d_20</title>
<polygon fill="none" stroke="black" points="757.5,-214.5 542.5,-214.5 542.5,-131.5 757.5,-131.5 757.5,-214.5"/>
<text text-anchor="middle" x="650" y="-199.3" font-family="Times New Roman,serif" font-size="14.00">[You included the attribution</text>
<text text-anchor="middle" x="650" y="-184.3" font-family="Times New Roman,serif" font-size="14.00"> notices] within a display</text>
<text text-anchor="middle" x="650" y="-169.3" font-family="Times New Roman,serif" font-size="14.00"> generated by the Derivative</text>
<text text-anchor="middle" x="650" y="-154.3" font-family="Times New Roman,serif" font-size="14.00"> Works ... wherever such</text>
<text text-anchor="middle" x="650" y="-139.3" font-family="Times New Roman,serif" font-size="14.00"> third&#45;party notices normally appear</text>
</g>
<!-- Apache4d_20&#45;&gt;Apache4d_19 -->
<g id="edge20" class="edge"><title>Apache4d_20&#45;&gt;Apache4d_19</title>
<path fill="none" stroke="black" d="M650,-214.713C650,-224.055 650,-233.774 650,-242.41"/>
<polygon fill="black" stroke="black" points="646.5,-242.66 650,-252.66 653.5,-242.66 646.5,-242.66"/>
</g>
<!-- Apache4d_21 -->
<g id="node23" class="node"><title>Apache4d_21</title>
<polygon fill="grey" stroke="black" points="524,-191 470,-191 470,-155 524,-155 524,-191"/>
<text text-anchor="middle" x="497" y="-169.3" font-family="Times New Roman,serif" font-size="14.00">not</text>
</g>
<!-- Apache4d_21&#45;&gt;Apache4d_19 -->
<g id="edge21" class="edge"><title>Apache4d_21&#45;&gt;Apache4d_19</title>
<path fill="none" stroke="black" d="M509.751,-191.01C516.353,-199.008 524.923,-208.246 534,-215 558.202,-233.008 589.239,-247.349 613.118,-256.866"/>
<polygon fill="black" stroke="black" points="611.955,-260.169 622.544,-260.522 614.486,-253.642 611.955,-260.169"/>
</g>
<!-- Apache4d_22 -->
<g id="node24" class="node"><title>Apache4d_22</title>
<polygon fill="none" stroke="black" points="582.5,-92.5 411.5,-92.5 411.5,-39.5 582.5,-39.5 582.5,-92.5"/>
<text text-anchor="middle" x="497" y="-77.3" font-family="Times New Roman,serif" font-size="14.00">third&#45;party [attribution]</text>
<text text-anchor="middle" x="497" y="-62.3" font-family="Times New Roman,serif" font-size="14.00"> notices normally appear [in</text>
<text text-anchor="middle" x="497" y="-47.3" font-family="Times New Roman,serif" font-size="14.00"> display]</text>
</g>
<!-- Apache4d_22&#45;&gt;Apache4d_21 -->
<g id="edge22" class="edge"><title>Apache4d_22&#45;&gt;Apache4d_21</title>
<path fill="none" stroke="black" d="M497,-92.6859C497,-108.373 497,-128.425 497,-144.443"/>
<polygon fill="black" stroke="black" points="493.5,-144.784 497,-154.784 500.5,-144.784 493.5,-144.784"/>
</g>
<!-- Apache4d_23 -->
<g id="node25" class="node"><title>Apache4d_23</title>
<polygon fill="none" stroke="black" points="963.5,-592.5 782.5,-592.5 782.5,-539.5 963.5,-539.5 963.5,-592.5"/>
<text text-anchor="middle" x="873" y="-577.3" font-family="Times New Roman,serif" font-size="14.00">[You excluded] those notices</text>
<text text-anchor="middle" x="873" y="-562.3" font-family="Times New Roman,serif" font-size="14.00"> that do not pertain to any</text>
<text text-anchor="middle" x="873" y="-547.3" font-family="Times New Roman,serif" font-size="14.00"> part of the Derivative Works</text>
</g>
<!-- Apache4d_23&#45;&gt;Apache4d_9 -->
<g id="edge23" class="edge"><title>Apache4d_23&#45;&gt;Apache4d_9</title>
<path fill="none" stroke="black" d="M873,-592.828C873,-622.729 873,-671.782 873,-702.412"/>
<polygon fill="black" stroke="black" points="869.5,-702.793 873,-712.793 876.5,-702.793 869.5,-702.793"/>
</g>
<!-- Apache4d_24 -->
<g id="node26" class="node"><title>Apache4d_24</title>
<polygon fill="grey" stroke="black" points="549,-749 495,-749 495,-713 549,-713 549,-749"/>
<text text-anchor="middle" x="522" y="-727.3" font-family="Times New Roman,serif" font-size="14.00">and</text>
</g>
<!-- Apache4d_24&#45;&gt;Apache4d -->
<g id="edge24" class="edge"><title>Apache4d_24&#45;&gt;Apache4d</title>
<path fill="none" stroke="black" d="M522,-749.136C522,-779.26 522,-841.594 522,-874.159"/>
<polygon fill="black" stroke="black" points="518.5,-874.335 522,-884.335 525.5,-874.335 518.5,-874.335"/>
<text text-anchor="middle" x="546.5" y="-832.3" font-family="Times New Roman,serif" font-size="14.00">activates</text>
</g>
<!-- Apache4d_25 -->
<g id="node27" class="node"><title>Apache4d_25</title>
<polygon fill="none" stroke="black" points="764,-592.5 582,-592.5 582,-539.5 764,-539.5 764,-592.5"/>
<text text-anchor="middle" x="673" y="-577.3" font-family="Times New Roman,serif" font-size="14.00">[You intend to reproduce and</text>
<text text-anchor="middle" x="673" y="-562.3" font-family="Times New Roman,serif" font-size="14.00"> distribute copies of the</text>
<text text-anchor="middle" x="673" y="-547.3" font-family="Times New Roman,serif" font-size="14.00"> Work or Derivative Works]</text>
</g>
<!-- Apache4d_25&#45;&gt;Apache4d_24 -->
<g id="edge25" class="edge"><title>Apache4d_25&#45;&gt;Apache4d_24</title>
<path fill="none" stroke="black" d="M649.074,-592.828C620.523,-623.647 573.125,-674.812 544.993,-705.18"/>
<polygon fill="black" stroke="black" points="542.168,-703.079 537.94,-712.793 547.303,-707.836 542.168,-703.079"/>
</g>
<!-- Apache4d_26 -->
<g id="node28" class="node"><title>Apache4d_26</title>
<polygon fill="none" stroke="black" points="564,-592.5 374,-592.5 374,-539.5 564,-539.5 564,-592.5"/>
<text text-anchor="middle" x="469" y="-577.3" font-family="Times New Roman,serif" font-size="14.00">the Work includes a &#39;NOTICE&#39;</text>
<text text-anchor="middle" x="469" y="-562.3" font-family="Times New Roman,serif" font-size="14.00"> text file as part of its</text>
<text text-anchor="middle" x="469" y="-547.3" font-family="Times New Roman,serif" font-size="14.00"> distribution</text>
</g>
<!-- Apache4d_26&#45;&gt;Apache4d_24 -->
<g id="edge26" class="edge"><title>Apache4d_26&#45;&gt;Apache4d_24</title>
<path fill="none" stroke="black" d="M477.398,-592.828C487.206,-622.992 503.351,-672.644 513.29,-703.214"/>
<polygon fill="black" stroke="black" points="509.985,-704.366 516.405,-712.793 516.641,-702.201 509.985,-704.366"/>
</g>
</g>
</svg>
