<?xml version="1.0" encoding="UTF-8" standalone="no"?>
<!DOCTYPE svg PUBLIC "-//W3C//DTD SVG 1.1//EN"
 "http://www.w3.org/Graphics/SVG/1.1/DTD/svg11.dtd">
<!-- Generated by graphviz version 2.38.0 (20140413.2041)
 -->
<!-- Title: G Pages: 1 -->
<svg width="2973pt" height="1335pt"
 viewBox="0.00 0.00 2973.00 1334.50" xmlns="http://www.w3.org/2000/svg" xmlns:xlink="http://www.w3.org/1999/xlink">
<g id="graph0" class="graph" transform="scale(1 1) rotate(0) translate(4 1330.5)">
<title>G</title>
<polygon fill="white" stroke="none" points="-4,4 -4,-1330.5 2969,-1330.5 2969,4 -4,4"/>
<g id="clust1" class="cluster"><title>clusterSS_Apache4</title>
<polygon fill="none" stroke="black" points="466,-641.5 466,-1318.5 740,-1318.5 740,-641.5 466,-641.5"/>
<text text-anchor="middle" x="603" y="-649.3" font-family="Times New Roman,serif" font-size="14.00">SS_Apache4</text>
</g>
<g id="clust2" class="cluster"><title>clusterSS_Apache4a</title>
<polygon fill="none" stroke="black" points="748,-950.5 748,-1195.5 1150,-1195.5 1150,-950.5 748,-950.5"/>
<text text-anchor="middle" x="949" y="-958.3" font-family="Times New Roman,serif" font-size="14.00">SS_Apache4a</text>
</g>
<g id="clust3" class="cluster"><title>clusterSS_Apache4b</title>
<polygon fill="none" stroke="black" points="1158,-765.5 1158,-1039 1544,-1039 1544,-765.5 1158,-765.5"/>
<text text-anchor="middle" x="1351" y="-773.3" font-family="Times New Roman,serif" font-size="14.00">SS_Apache4b</text>
</g>
<g id="clust7" class="cluster"><title>clusterSS_Apache4dAddCopyright</title>
<polygon fill="none" stroke="black" points="8,-920.5 8,-1318.5 458,-1318.5 458,-920.5 8,-920.5"/>
<text text-anchor="middle" x="233" y="-928.3" font-family="Times New Roman,serif" font-size="14.00">SS_Apache4dAddCopyright</text>
</g>
<g id="clust4" class="cluster"><title>clusterSS_Apache4c</title>
<polygon fill="none" stroke="black" points="1552,-357 1552,-861.5 1822,-861.5 1822,-357 1552,-357"/>
<text text-anchor="middle" x="1687" y="-364.8" font-family="Times New Roman,serif" font-size="14.00">SS_Apache4c</text>
</g>
<g id="clust5" class="cluster"><title>clusterSS_Apache4d</title>
<polygon fill="none" stroke="black" points="1830,-8 1830,-861.5 2593,-861.5 2593,-8 1830,-8"/>
<text text-anchor="middle" x="2211.5" y="-15.8" font-family="Times New Roman,serif" font-size="14.00">SS_Apache4d</text>
</g>
<g id="clust6" class="cluster"><title>clusterSS_Apache4dAddAttrib</title>
<polygon fill="none" stroke="black" points="2601,-625.5 2601,-1039 2957,-1039 2957,-625.5 2601,-625.5"/>
<text text-anchor="middle" x="2779" y="-633.3" font-family="Times New Roman,serif" font-size="14.00">SS_Apache4dAddAttrib</text>
</g>
<!-- Apache4 -->
<g id="node1" class="node"><title>Apache4</title>
<g id="a_node1"><a xlink:title="4. Redistribution. You may reproduce and distribute copies of the Work or Derivative Works thereof in any medium, with or without modifications, and in Source or Object form, provided that You meet the following conditions:">
<polygon fill="lightblue" stroke="black" points="645.585,-1287.5 517.207,-1310.5 517.207,-1264.5 645.585,-1287.5"/>
<text text-anchor="middle" x="560" y="-1283.8" font-family="Times New Roman,serif" font-size="14.00">Apache4</text>
</a>
</g>
</g>
<!-- Apache4_1 -->
<g id="node2" class="node"><title>Apache4_1</title>
<polygon fill="none" stroke="black" points="731.5,-1213.5 546.5,-1213.5 546.5,-1115.5 731.5,-1115.5 731.5,-1213.5"/>
<text text-anchor="middle" x="639" y="-1198.3" font-family="Times New Roman,serif" font-size="14.00">[You reproduced and</text>
<text text-anchor="middle" x="639" y="-1183.3" font-family="Times New Roman,serif" font-size="14.00"> distributed] copies of the</text>
<text text-anchor="middle" x="639" y="-1168.3" font-family="Times New Roman,serif" font-size="14.00"> Work or Derivative Works</text>
<text text-anchor="middle" x="639" y="-1153.3" font-family="Times New Roman,serif" font-size="14.00"> thereof in any medium, with</text>
<text text-anchor="middle" x="639" y="-1138.3" font-family="Times New Roman,serif" font-size="14.00"> or without modifications,</text>
<text text-anchor="middle" x="639" y="-1123.3" font-family="Times New Roman,serif" font-size="14.00"> and in Source or Object form</text>
</g>
<!-- Apache4_1&#45;&gt;Apache4 -->
<g id="edge1" class="edge"><title>Apache4_1&#45;&gt;Apache4</title>
<path fill="none" stroke="black" d="M613.341,-1213.88C607.039,-1224.83 600.063,-1236.24 593,-1246.5 588.436,-1253.13 583.036,-1260 577.941,-1266.14"/>
<polygon fill="black" stroke="black" points="575.096,-1264.09 571.289,-1273.97 580.431,-1268.62 575.096,-1264.09"/>
<text text-anchor="middle" x="625.5" y="-1235.3" font-family="Times New Roman,serif" font-size="14.00">satisfies</text>
</g>
<!-- Apache4_2 -->
<g id="node3" class="node"><title>Apache4_2</title>
<polygon fill="grey" stroke="black" points="528,-1182.5 474,-1182.5 474,-1146.5 528,-1146.5 528,-1182.5"/>
<text text-anchor="middle" x="501" y="-1160.8" font-family="Times New Roman,serif" font-size="14.00">and</text>
</g>
<!-- Apache4_2&#45;&gt;Apache4 -->
<g id="edge2" class="edge"><title>Apache4_2&#45;&gt;Apache4</title>
<path fill="none" stroke="black" d="M509.328,-1182.58C519.379,-1203.19 536.359,-1238.02 547.865,-1261.61"/>
<polygon fill="black" stroke="black" points="544.749,-1263.21 552.277,-1270.66 551.04,-1260.14 544.749,-1263.21"/>
<text text-anchor="middle" x="564.5" y="-1235.3" font-family="Times New Roman,serif" font-size="14.00">activates</text>
</g>
<!-- Apache4_3 -->
<g id="node4" class="node"><title>Apache4_3</title>
<polygon fill="orange" stroke="black" points="728,-1026 632,-1026 632,-990 728,-990 728,-1026"/>
<text text-anchor="middle" x="680" y="-1004.3" font-family="Times New Roman,serif" font-size="14.00">SS_Apache4a</text>
</g>
<!-- Apache4_3&#45;&gt;Apache4_2 -->
<g id="edge3" class="edge"><title>Apache4_3&#45;&gt;Apache4_2</title>
<path fill="none" stroke="black" d="M662.855,-1026.16C651.017,-1037.61 634.647,-1052.67 619,-1064.5 584.764,-1090.38 568.64,-1086.5 537,-1115.5 529.935,-1121.98 523.299,-1130 517.695,-1137.61"/>
<polygon fill="black" stroke="black" points="514.509,-1136.06 511.628,-1146.26 520.238,-1140.08 514.509,-1136.06"/>
</g>
<!-- Apache4a -->
<g id="node10" class="node"><title>Apache4a</title>
<g id="a_node10"><a xlink:title="4(a) You must give any other recipients of the Work or Derivative Works a copy of this License;">
<polygon fill="lightblue" stroke="black" points="850,-1187.5 756.317,-1153 943.683,-1153 850,-1187.5"/>
<text text-anchor="middle" x="850" y="-1160.8" font-family="Times New Roman,serif" font-size="14.00">Apache4a</text>
</a>
</g>
</g>
<!-- Apache4_3&#45;&gt;Apache4a -->
<g id="edge42" class="edge"><title>Apache4_3&#45;&gt;Apache4a</title>
<path fill="none" stroke="grey" stroke-dasharray="5,2" d="M698.843,-1026.12C709.857,-1036.13 724.75,-1049.67 740.909,-1064.36"/>
<polygon fill="grey" stroke="grey" points="738.659,-1067.04 748.414,-1071.18 743.367,-1061.86 738.659,-1067.04"/>
</g>
<!-- Apache4_4 -->
<g id="node5" class="node"><title>Apache4_4</title>
<polygon fill="grey" stroke="black" points="610,-1026 556,-1026 556,-990 610,-990 610,-1026"/>
<text text-anchor="middle" x="583" y="-1004.3" font-family="Times New Roman,serif" font-size="14.00">and</text>
</g>
<!-- Apache4_4&#45;&gt;Apache4_2 -->
<g id="edge4" class="edge"><title>Apache4_4&#45;&gt;Apache4_2</title>
<path fill="none" stroke="black" d="M573.911,-1026.12C559.627,-1053.04 531.818,-1105.43 514.977,-1137.17"/>
<polygon fill="black" stroke="black" points="511.726,-1135.82 510.129,-1146.3 517.909,-1139.11 511.726,-1135.82"/>
</g>
<!-- Apache4_5 -->
<g id="node6" class="node"><title>Apache4_5</title>
<polygon fill="orange" stroke="black" points="729,-848.5 631,-848.5 631,-812.5 729,-812.5 729,-848.5"/>
<text text-anchor="middle" x="680" y="-826.8" font-family="Times New Roman,serif" font-size="14.00">SS_Apache4b</text>
</g>
<!-- Apache4_5&#45;&gt;Apache4_4 -->
<g id="edge5" class="edge"><title>Apache4_5&#45;&gt;Apache4_4</title>
<path fill="none" stroke="black" d="M667.918,-848.799C655.849,-866.426 637.111,-894.756 623,-920.5 612.297,-940.027 601.792,-962.93 594.235,-980.262"/>
<polygon fill="black" stroke="black" points="590.888,-979.187 590.148,-989.755 597.317,-981.955 590.888,-979.187"/>
</g>
<!-- Apache4b -->
<g id="node13" class="node"><title>Apache4b</title>
<g id="a_node13"><a xlink:title="4(b) You must cause any modified files to carry prominent notices stating that You changed the files;">
<polygon fill="lightblue" stroke="black" points="1262,-1031 1165.62,-996.5 1358.38,-996.5 1262,-1031"/>
<text text-anchor="middle" x="1262" y="-1004.3" font-family="Times New Roman,serif" font-size="14.00">Apache4b</text>
</a>
</g>
</g>
<!-- Apache4_5&#45;&gt;Apache4b -->
<g id="edge43" class="edge"><title>Apache4_5&#45;&gt;Apache4b</title>
<path fill="none" stroke="grey" stroke-dasharray="5,2" d="M729.093,-832.943C816.032,-837.114 1001.43,-853.344 1149.04,-918.377"/>
<polygon fill="grey" stroke="grey" points="1147.7,-921.615 1158.26,-922.527 1150.58,-915.231 1147.7,-921.615"/>
</g>
<!-- Apache4_6 -->
<g id="node7" class="node"><title>Apache4_6</title>
<polygon fill="grey" stroke="black" points="610,-848.5 556,-848.5 556,-812.5 610,-812.5 610,-848.5"/>
<text text-anchor="middle" x="583" y="-826.8" font-family="Times New Roman,serif" font-size="14.00">and</text>
</g>
<!-- Apache4_6&#45;&gt;Apache4_4 -->
<g id="edge6" class="edge"><title>Apache4_6&#45;&gt;Apache4_4</title>
<path fill="none" stroke="black" d="M583,-848.647C583,-879.053 583,-942.66 583,-979.333"/>
<polygon fill="black" stroke="black" points="579.5,-979.783 583,-989.783 586.5,-979.783 579.5,-979.783"/>
</g>
<!-- Apache4_7 -->
<g id="node8" class="node"><title>Apache4_7</title>
<polygon fill="orange" stroke="black" points="615.5,-708.5 518.5,-708.5 518.5,-672.5 615.5,-672.5 615.5,-708.5"/>
<text text-anchor="middle" x="567" y="-686.8" font-family="Times New Roman,serif" font-size="14.00">SS_Apache4c</text>
</g>
<!-- Apache4_7&#45;&gt;Apache4_6 -->
<g id="edge7" class="edge"><title>Apache4_7&#45;&gt;Apache4_6</title>
<path fill="none" stroke="black" d="M568.994,-708.699C571.701,-732.044 576.569,-774.034 579.793,-801.838"/>
<polygon fill="black" stroke="black" points="576.352,-802.554 580.981,-812.084 583.306,-801.748 576.352,-802.554"/>
</g>
<!-- Apache4c -->
<g id="node16" class="node"><title>Apache4c</title>
<g id="a_node16"><a xlink:title="4(c) You must retain, in the Source form of any Derivative Works that You distribute, all copyright, patent, trademark, and attribution notices from the Source form of the Work, excluding those notices that do not pertain to any part of the Derivative Works;">
<polygon fill="lightblue" stroke="black" points="1655,-853.5 1560.22,-819 1749.78,-819 1655,-853.5"/>
<text text-anchor="middle" x="1655" y="-826.8" font-family="Times New Roman,serif" font-size="14.00">Apache4c</text>
</a>
</g>
</g>
<!-- Apache4_7&#45;&gt;Apache4c -->
<g id="edge44" class="edge"><title>Apache4_7&#45;&gt;Apache4c</title>
<path fill="none" stroke="grey" stroke-dasharray="5,2" d="M594.34,-708.506C623.099,-725.21 670.303,-749.342 715,-757.5 758.572,-765.452 1440.89,-754.028 1542.23,-765.132"/>
<polygon fill="grey" stroke="grey" points="1541.82,-768.612 1552.25,-766.768 1542.95,-761.703 1541.82,-768.612"/>
</g>
<!-- Apache4_8 -->
<g id="node9" class="node"><title>Apache4_8</title>
<polygon fill="orange" stroke="black" points="732,-708.5 634,-708.5 634,-672.5 732,-672.5 732,-708.5"/>
<text text-anchor="middle" x="683" y="-686.8" font-family="Times New Roman,serif" font-size="14.00">SS_Apache4d</text>
</g>
<!-- Apache4_8&#45;&gt;Apache4_6 -->
<g id="edge8" class="edge"><title>Apache4_8&#45;&gt;Apache4_6</title>
<path fill="none" stroke="black" d="M667.732,-708.588C654.932,-723.242 636.477,-745.15 622,-765.5 613.43,-777.547 604.784,-791.508 597.819,-803.311"/>
<polygon fill="black" stroke="black" points="594.63,-801.832 592.626,-812.236 600.68,-805.352 594.63,-801.832"/>
</g>
<!-- Apache4d -->
<g id="node22" class="node"><title>Apache4d</title>
<g id="a_node22"><a xlink:title="4(d) If the Work includes a &#39;NOTICE&#39; text file as part of its distribution, then any Derivative Works that You distribute must include a readable copy of the attribution notices contained within such NOTICE file, excluding those notices that do not pertain to any part of the Derivative Works, in at least one of the following places: within a NOTICE text file distributed as part of the Derivative Works; within the Source form or documentation, if provided along with the Derivative Works; or, within a display generated by the Derivative Works, if and wherever such third&#45;party notices normally appear. The contents of the NOTICE file are for informational purposes only and do not modify the License. You may add Your own attribution notices within Derivative Works that You distribute, alongside or as an addendum to the NOTICE text from the Work, provided that such additional attribution notices cannot be construed as modifying the License.">
<polygon fill="lightblue" stroke="black" points="2207,-853.5 2110.62,-819 2303.38,-819 2207,-853.5"/>
<text text-anchor="middle" x="2207" y="-826.8" font-family="Times New Roman,serif" font-size="14.00">Apache4d</text>
</a>
</g>
</g>
<!-- Apache4_8&#45;&gt;Apache4d -->
<g id="edge45" class="edge"><title>Apache4_8&#45;&gt;Apache4d</title>
<path fill="none" stroke="grey" stroke-dasharray="5,2" d="M732.199,-696.075C864.162,-708.169 1237.04,-741.172 1548,-757.5 1668.06,-763.804 1701.19,-754.018 1819.82,-764.93"/>
<polygon fill="grey" stroke="grey" points="1819.75,-768.439 1830.04,-765.9 1820.41,-761.47 1819.75,-768.439"/>
</g>
<!-- Apache4a_9 -->
<g id="node11" class="node"><title>Apache4a_9</title>
<polygon fill="none" stroke="black" points="1142,-1034.5 956,-1034.5 956,-981.5 1142,-981.5 1142,-1034.5"/>
<text text-anchor="middle" x="1049" y="-1019.3" font-family="Times New Roman,serif" font-size="14.00">[You gave] other recipients of</text>
<text text-anchor="middle" x="1049" y="-1004.3" font-family="Times New Roman,serif" font-size="14.00"> the Work or Derivative</text>
<text text-anchor="middle" x="1049" y="-989.3" font-family="Times New Roman,serif" font-size="14.00"> Works a copy of this License</text>
</g>
<!-- Apache4a_9&#45;&gt;Apache4a -->
<g id="edge9" class="edge"><title>Apache4a_9&#45;&gt;Apache4a</title>
<path fill="none" stroke="black" d="M1016.14,-1034.51C975.228,-1066.28 906.499,-1119.64 871.656,-1146.69"/>
<polygon fill="black" stroke="black" points="869.318,-1144.07 863.566,-1152.97 873.611,-1149.6 869.318,-1144.07"/>
<text text-anchor="middle" x="972.5" y="-1086.3" font-family="Times New Roman,serif" font-size="14.00">satisfies</text>
</g>
<!-- Apache4a_10 -->
<g id="node12" class="node"><title>Apache4a_10</title>
<polygon fill="none" stroke="black" points="938,-1034.5 756,-1034.5 756,-981.5 938,-981.5 938,-1034.5"/>
<text text-anchor="middle" x="847" y="-1019.3" font-family="Times New Roman,serif" font-size="14.00">[You intend to reproduce and</text>
<text text-anchor="middle" x="847" y="-1004.3" font-family="Times New Roman,serif" font-size="14.00"> distribute copies of the</text>
<text text-anchor="middle" x="847" y="-989.3" font-family="Times New Roman,serif" font-size="14.00"> Work or Derivative Works]</text>
</g>
<!-- Apache4a_10&#45;&gt;Apache4a -->
<g id="edge10" class="edge"><title>Apache4a_10&#45;&gt;Apache4a</title>
<path fill="none" stroke="black" d="M847.495,-1034.51C848.083,-1064.79 849.053,-1114.71 849.597,-1142.74"/>
<polygon fill="black" stroke="black" points="846.102,-1143.04 849.795,-1152.97 853.101,-1142.9 846.102,-1143.04"/>
<text text-anchor="middle" x="873.5" y="-1086.3" font-family="Times New Roman,serif" font-size="14.00">activates</text>
</g>
<!-- Apache4b_11 -->
<g id="node14" class="node"><title>Apache4b_11</title>
<polygon fill="none" stroke="black" points="1535.5,-864.5 1366.5,-864.5 1366.5,-796.5 1535.5,-796.5 1535.5,-864.5"/>
<text text-anchor="middle" x="1451" y="-849.3" font-family="Times New Roman,serif" font-size="14.00">[You caused] any modified</text>
<text text-anchor="middle" x="1451" y="-834.3" font-family="Times New Roman,serif" font-size="14.00"> files to carry prominent</text>
<text text-anchor="middle" x="1451" y="-819.3" font-family="Times New Roman,serif" font-size="14.00"> notices stating that You</text>
<text text-anchor="middle" x="1451" y="-804.3" font-family="Times New Roman,serif" font-size="14.00"> changed the files</text>
</g>
<!-- Apache4b_11&#45;&gt;Apache4b -->
<g id="edge11" class="edge"><title>Apache4b_11&#45;&gt;Apache4b</title>
<path fill="none" stroke="black" d="M1415.45,-864.51C1375.6,-901.516 1312.46,-960.148 1281.05,-989.314"/>
<polygon fill="black" stroke="black" points="1278.37,-987.021 1273.43,-996.39 1283.14,-992.151 1278.37,-987.021"/>
<text text-anchor="middle" x="1401.5" y="-901.3" font-family="Times New Roman,serif" font-size="14.00">satisfies</text>
</g>
<!-- Apache4b_12 -->
<g id="node15" class="node"><title>Apache4b_12</title>
<polygon fill="none" stroke="black" points="1348,-857 1166,-857 1166,-804 1348,-804 1348,-857"/>
<text text-anchor="middle" x="1257" y="-841.8" font-family="Times New Roman,serif" font-size="14.00">[You intend to reproduce and</text>
<text text-anchor="middle" x="1257" y="-826.8" font-family="Times New Roman,serif" font-size="14.00"> distribute copies of the</text>
<text text-anchor="middle" x="1257" y="-811.8" font-family="Times New Roman,serif" font-size="14.00"> Work or Derivative Works]</text>
</g>
<!-- Apache4b_12&#45;&gt;Apache4b -->
<g id="edge12" class="edge"><title>Apache4b_12&#45;&gt;Apache4b</title>
<path fill="none" stroke="black" d="M1257.73,-857.019C1258.72,-891.886 1260.48,-953.759 1261.4,-986.057"/>
<polygon fill="black" stroke="black" points="1257.91,-986.259 1261.69,-996.155 1264.9,-986.06 1257.91,-986.259"/>
<text text-anchor="middle" x="1284.5" y="-901.3" font-family="Times New Roman,serif" font-size="14.00">activates</text>
</g>
<!-- Apache4c_13 -->
<g id="node17" class="node"><title>Apache4c_13</title>
<polygon fill="grey" stroke="black" points="1814,-708.5 1760,-708.5 1760,-672.5 1814,-672.5 1814,-708.5"/>
<text text-anchor="middle" x="1787" y="-686.8" font-family="Times New Roman,serif" font-size="14.00">and</text>
</g>
<!-- Apache4c_13&#45;&gt;Apache4c -->
<g id="edge13" class="edge"><title>Apache4c_13&#45;&gt;Apache4c</title>
<path fill="none" stroke="black" d="M1770.55,-708.699C1745.5,-734.89 1698,-784.549 1672.39,-811.316"/>
<polygon fill="black" stroke="black" points="1669.58,-809.191 1665.2,-818.836 1674.64,-814.029 1669.58,-809.191"/>
<text text-anchor="middle" x="1759.5" y="-746.3" font-family="Times New Roman,serif" font-size="14.00">satisfies</text>
</g>
<!-- Apache4c_14 -->
<g id="node18" class="node"><title>Apache4c_14</title>
<polygon fill="none" stroke="black" points="1814,-598.5 1636,-598.5 1636,-485.5 1814,-485.5 1814,-598.5"/>
<text text-anchor="middle" x="1725" y="-583.3" font-family="Times New Roman,serif" font-size="14.00">[You retained], in the Source</text>
<text text-anchor="middle" x="1725" y="-568.3" font-family="Times New Roman,serif" font-size="14.00"> form of any Derivative</text>
<text text-anchor="middle" x="1725" y="-553.3" font-family="Times New Roman,serif" font-size="14.00"> Works that You distribute,</text>
<text text-anchor="middle" x="1725" y="-538.3" font-family="Times New Roman,serif" font-size="14.00"> all copyright, patent,</text>
<text text-anchor="middle" x="1725" y="-523.3" font-family="Times New Roman,serif" font-size="14.00"> trademark, and attribution</text>
<text text-anchor="middle" x="1725" y="-508.3" font-family="Times New Roman,serif" font-size="14.00"> notices from the Source</text>
<text text-anchor="middle" x="1725" y="-493.3" font-family="Times New Roman,serif" font-size="14.00"> form of the Work</text>
</g>
<!-- Apache4c_14&#45;&gt;Apache4c_13 -->
<g id="edge14" class="edge"><title>Apache4c_14&#45;&gt;Apache4c_13</title>
<path fill="none" stroke="black" d="M1748.62,-598.803C1757.97,-620.909 1768.28,-645.265 1775.86,-663.166"/>
<polygon fill="black" stroke="black" points="1772.64,-664.547 1779.76,-672.392 1779.09,-661.819 1772.64,-664.547"/>
</g>
<!-- Apache4c_15 -->
<g id="node19" class="node"><title>Apache4c_15</title>
<polygon fill="grey" stroke="black" points="1618,-560 1564,-560 1564,-524 1618,-524 1618,-560"/>
<text text-anchor="middle" x="1591" y="-538.3" font-family="Times New Roman,serif" font-size="14.00">not</text>
</g>
<!-- Apache4c_15&#45;&gt;Apache4c_13 -->
<g id="edge15" class="edge"><title>Apache4c_15&#45;&gt;Apache4c_13</title>
<path fill="none" stroke="black" d="M1597.83,-560.174C1603.71,-572.71 1613.4,-589.095 1627,-598.5 1673.39,-630.574 1705.64,-591.98 1751,-625.5 1763.5,-634.737 1772.26,-649.692 1778.01,-662.824"/>
<polygon fill="black" stroke="black" points="1774.86,-664.397 1781.82,-672.385 1781.37,-661.8 1774.86,-664.397"/>
</g>
<!-- Apache4c_16 -->
<g id="node20" class="node"><title>Apache4c_16</title>
<polygon fill="none" stroke="black" points="1739.5,-441 1560.5,-441 1560.5,-388 1739.5,-388 1739.5,-441"/>
<text text-anchor="middle" x="1650" y="-425.8" font-family="Times New Roman,serif" font-size="14.00">[You retained] those notices</text>
<text text-anchor="middle" x="1650" y="-410.8" font-family="Times New Roman,serif" font-size="14.00"> that do not pertain to any</text>
<text text-anchor="middle" x="1650" y="-395.8" font-family="Times New Roman,serif" font-size="14.00"> part of the Derivative Works</text>
</g>
<!-- Apache4c_16&#45;&gt;Apache4c_15 -->
<g id="edge16" class="edge"><title>Apache4c_16&#45;&gt;Apache4c_15</title>
<path fill="none" stroke="black" d="M1637.92,-441.2C1627.86,-462.592 1613.6,-492.936 1603.44,-514.538"/>
<polygon fill="black" stroke="black" points="1600.18,-513.245 1599.09,-523.784 1606.52,-516.223 1600.18,-513.245"/>
</g>
<!-- Apache4c_17 -->
<g id="node21" class="node"><title>Apache4c_17</title>
<polygon fill="none" stroke="black" points="1742,-717 1560,-717 1560,-664 1742,-664 1742,-717"/>
<text text-anchor="middle" x="1651" y="-701.8" font-family="Times New Roman,serif" font-size="14.00">[You intend to reproduce and</text>
<text text-anchor="middle" x="1651" y="-686.8" font-family="Times New Roman,serif" font-size="14.00"> distribute copies of the</text>
<text text-anchor="middle" x="1651" y="-671.8" font-family="Times New Roman,serif" font-size="14.00"> Work or Derivative Works]</text>
</g>
<!-- Apache4c_17&#45;&gt;Apache4c -->
<g id="edge17" class="edge"><title>Apache4c_17&#45;&gt;Apache4c</title>
<path fill="none" stroke="black" d="M1651.74,-717.133C1652.51,-743.511 1653.68,-784.108 1654.39,-808.604"/>
<polygon fill="black" stroke="black" points="1650.9,-809.017 1654.69,-818.911 1657.9,-808.814 1650.9,-809.017"/>
<text text-anchor="middle" x="1677.5" y="-746.3" font-family="Times New Roman,serif" font-size="14.00">activates</text>
</g>
<!-- Apache4d_18 -->
<g id="node23" class="node"><title>Apache4d_18</title>
<polygon fill="grey" stroke="black" points="2366,-708.5 2312,-708.5 2312,-672.5 2366,-672.5 2366,-708.5"/>
<text text-anchor="middle" x="2339" y="-686.8" font-family="Times New Roman,serif" font-size="14.00">and</text>
</g>
<!-- Apache4d_18&#45;&gt;Apache4d -->
<g id="edge18" class="edge"><title>Apache4d_18&#45;&gt;Apache4d</title>
<path fill="none" stroke="black" d="M2322.55,-708.699C2297.5,-734.89 2250,-784.549 2224.39,-811.316"/>
<polygon fill="black" stroke="black" points="2221.58,-809.191 2217.2,-818.836 2226.64,-814.029 2221.58,-809.191"/>
<text text-anchor="middle" x="2311.5" y="-746.3" font-family="Times New Roman,serif" font-size="14.00">satisfies</text>
</g>
<!-- Apache4d_19 -->
<g id="node24" class="node"><title>Apache4d_19</title>
<polygon fill="grey" stroke="black" points="2502,-560 2448,-560 2448,-524 2502,-524 2502,-560"/>
<text text-anchor="middle" x="2475" y="-538.3" font-family="Times New Roman,serif" font-size="14.00">and</text>
</g>
<!-- Apache4d_19&#45;&gt;Apache4d_18 -->
<g id="edge19" class="edge"><title>Apache4d_19&#45;&gt;Apache4d_18</title>
<path fill="none" stroke="black" d="M2464.98,-560.264C2458.04,-571.618 2448.24,-586.533 2438,-598.5 2416.7,-623.399 2388.99,-648.352 2368.31,-665.814"/>
<polygon fill="black" stroke="black" points="2365.91,-663.258 2360.48,-672.354 2370.39,-668.632 2365.91,-663.258"/>
</g>
<!-- Apache4d_20 -->
<g id="node25" class="node"><title>Apache4d_20</title>
<polygon fill="none" stroke="black" points="2582.5,-448.5 2389.5,-448.5 2389.5,-380.5 2582.5,-380.5 2582.5,-448.5"/>
<text text-anchor="middle" x="2486" y="-433.3" font-family="Times New Roman,serif" font-size="14.00">[You included] a readable copy</text>
<text text-anchor="middle" x="2486" y="-418.3" font-family="Times New Roman,serif" font-size="14.00"> of the attribution notices</text>
<text text-anchor="middle" x="2486" y="-403.3" font-family="Times New Roman,serif" font-size="14.00"> contained within such</text>
<text text-anchor="middle" x="2486" y="-388.3" font-family="Times New Roman,serif" font-size="14.00"> NOTICE file</text>
</g>
<!-- Apache4d_20&#45;&gt;Apache4d_19 -->
<g id="edge20" class="edge"><title>Apache4d_20&#45;&gt;Apache4d_19</title>
<path fill="none" stroke="black" d="M2483.08,-448.802C2481.31,-469.05 2479.07,-494.588 2477.4,-513.649"/>
<polygon fill="black" stroke="black" points="2473.9,-513.498 2476.51,-523.766 2480.87,-514.11 2473.9,-513.498"/>
</g>
<!-- Apache4d_21 -->
<g id="node26" class="node"><title>Apache4d_21</title>
<polygon fill="grey" stroke="black" points="2371,-432.5 2317,-432.5 2317,-396.5 2371,-396.5 2371,-432.5"/>
<text text-anchor="middle" x="2344" y="-410.8" font-family="Times New Roman,serif" font-size="14.00">or</text>
</g>
<!-- Apache4d_21&#45;&gt;Apache4d_19 -->
<g id="edge21" class="edge"><title>Apache4d_21&#45;&gt;Apache4d_19</title>
<path fill="none" stroke="black" d="M2361.41,-432.588C2367.15,-437.907 2373.68,-443.646 2380,-448.5 2404.25,-467.123 2416.16,-464.098 2438,-485.5 2446.8,-494.126 2454.68,-505.172 2460.88,-515.134"/>
<polygon fill="black" stroke="black" points="2457.96,-517.074 2466.08,-523.878 2463.98,-513.495 2457.96,-517.074"/>
</g>
<!-- Apache4d_22 -->
<g id="node27" class="node"><title>Apache4d_22</title>
<polygon fill="none" stroke="black" points="2451,-330 2275,-330 2275,-247 2451,-247 2451,-330"/>
<text text-anchor="middle" x="2363" y="-314.8" font-family="Times New Roman,serif" font-size="14.00">[(in notice file) You included</text>
<text text-anchor="middle" x="2363" y="-299.8" font-family="Times New Roman,serif" font-size="14.00"> the attribution notices]</text>
<text text-anchor="middle" x="2363" y="-284.8" font-family="Times New Roman,serif" font-size="14.00"> within a NOTICE text file</text>
<text text-anchor="middle" x="2363" y="-269.8" font-family="Times New Roman,serif" font-size="14.00"> distributed as part of the</text>
<text text-anchor="middle" x="2363" y="-254.8" font-family="Times New Roman,serif" font-size="14.00"> Derivative Works</text>
</g>
<!-- Apache4d_22&#45;&gt;Apache4d_21 -->
<g id="edge22" class="edge"><title>Apache4d_22&#45;&gt;Apache4d_21</title>
<path fill="none" stroke="black" d="M2356.78,-330.102C2353.96,-348.527 2350.69,-369.826 2348.17,-386.287"/>
<polygon fill="black" stroke="black" points="2344.69,-385.913 2346.63,-396.328 2351.61,-386.973 2344.69,-385.913"/>
</g>
<!-- Apache4d_23 -->
<g id="node28" class="node"><title>Apache4d_23</title>
<polygon fill="grey" stroke="black" points="2257,-306.5 2203,-306.5 2203,-270.5 2257,-270.5 2257,-306.5"/>
<text text-anchor="middle" x="2230" y="-284.8" font-family="Times New Roman,serif" font-size="14.00">or</text>
</g>
<!-- Apache4d_23&#45;&gt;Apache4d_21 -->
<g id="edge23" class="edge"><title>Apache4d_23&#45;&gt;Apache4d_21</title>
<path fill="none" stroke="black" d="M2244.97,-306.53C2251.4,-313.798 2259.03,-322.351 2266,-330 2284.14,-349.909 2304.98,-372.189 2320.55,-388.724"/>
<polygon fill="black" stroke="black" points="2318.33,-391.47 2327.74,-396.344 2323.43,-386.668 2318.33,-391.47"/>
</g>
<!-- Apache4d_24 -->
<g id="node29" class="node"><title>Apache4d_24</title>
<polygon fill="grey" stroke="black" points="2338,-210 2284,-210 2284,-174 2338,-174 2338,-210"/>
<text text-anchor="middle" x="2311" y="-188.3" font-family="Times New Roman,serif" font-size="14.00">and</text>
</g>
<!-- Apache4d_24&#45;&gt;Apache4d_23 -->
<g id="edge24" class="edge"><title>Apache4d_24&#45;&gt;Apache4d_23</title>
<path fill="none" stroke="black" d="M2296.14,-210.333C2283.58,-224.986 2265.43,-246.16 2251.32,-262.623"/>
<polygon fill="black" stroke="black" points="2248.61,-260.407 2244.76,-270.277 2253.93,-264.962 2248.61,-260.407"/>
</g>
<!-- Apache4d_25 -->
<g id="node30" class="node"><title>Apache4d_25</title>
<polygon fill="none" stroke="black" points="2584.5,-122 2411.5,-122 2411.5,-54 2584.5,-54 2584.5,-122"/>
<text text-anchor="middle" x="2498" y="-106.8" font-family="Times New Roman,serif" font-size="14.00">[(in source) in You included</text>
<text text-anchor="middle" x="2498" y="-91.8" font-family="Times New Roman,serif" font-size="14.00"> the attribution notices]</text>
<text text-anchor="middle" x="2498" y="-76.8" font-family="Times New Roman,serif" font-size="14.00"> within the Source form or</text>
<text text-anchor="middle" x="2498" y="-61.8" font-family="Times New Roman,serif" font-size="14.00"> documentation</text>
</g>
<!-- Apache4d_25&#45;&gt;Apache4d_24 -->
<g id="edge25" class="edge"><title>Apache4d_25&#45;&gt;Apache4d_24</title>
<path fill="none" stroke="black" d="M2437.29,-122.116C2407.46,-138.384 2372.54,-157.432 2346.99,-171.369"/>
<polygon fill="black" stroke="black" points="2345.13,-168.396 2338.03,-176.258 2348.48,-174.542 2345.13,-168.396"/>
</g>
<!-- Apache4d_26 -->
<g id="node31" class="node"><title>Apache4d_26</title>
<polygon fill="none" stroke="black" points="2393.5,-107 2228.5,-107 2228.5,-69 2393.5,-69 2393.5,-107"/>
<text text-anchor="middle" x="2311" y="-91.8" font-family="Times New Roman,serif" font-size="14.00">source [is] provided along</text>
<text text-anchor="middle" x="2311" y="-76.8" font-family="Times New Roman,serif" font-size="14.00"> with the Derivative Works</text>
</g>
<!-- Apache4d_26&#45;&gt;Apache4d_24 -->
<g id="edge26" class="edge"><title>Apache4d_26&#45;&gt;Apache4d_24</title>
<path fill="none" stroke="black" d="M2311,-107.236C2311,-122.969 2311,-145.917 2311,-163.817"/>
<polygon fill="black" stroke="black" points="2307.5,-163.94 2311,-173.94 2314.5,-163.94 2307.5,-163.94"/>
</g>
<!-- Apache4d_27 -->
<g id="node32" class="node"><title>Apache4d_27</title>
<polygon fill="grey" stroke="black" points="2146,-210 2092,-210 2092,-174 2146,-174 2146,-210"/>
<text text-anchor="middle" x="2119" y="-188.3" font-family="Times New Roman,serif" font-size="14.00">and</text>
</g>
<!-- Apache4d_27&#45;&gt;Apache4d_23 -->
<g id="edge27" class="edge"><title>Apache4d_27&#45;&gt;Apache4d_23</title>
<path fill="none" stroke="black" d="M2139.1,-210.113C2156.67,-225.072 2182.37,-246.948 2201.96,-263.628"/>
<polygon fill="black" stroke="black" points="2199.79,-266.377 2209.67,-270.195 2204.33,-261.047 2199.79,-266.377"/>
</g>
<!-- Apache4d_28 -->
<g id="node33" class="node"><title>Apache4d_28</title>
<polygon fill="none" stroke="black" points="2210,-137 2028,-137 2028,-39 2210,-39 2210,-137"/>
<text text-anchor="middle" x="2119" y="-121.8" font-family="Times New Roman,serif" font-size="14.00">[(in display) You included the</text>
<text text-anchor="middle" x="2119" y="-106.8" font-family="Times New Roman,serif" font-size="14.00"> attribution notices] within</text>
<text text-anchor="middle" x="2119" y="-91.8" font-family="Times New Roman,serif" font-size="14.00"> a display generated by the</text>
<text text-anchor="middle" x="2119" y="-76.8" font-family="Times New Roman,serif" font-size="14.00"> Derivative Works ...</text>
<text text-anchor="middle" x="2119" y="-61.8" font-family="Times New Roman,serif" font-size="14.00"> wherever such third&#45;party</text>
<text text-anchor="middle" x="2119" y="-46.8" font-family="Times New Roman,serif" font-size="14.00"> notices normally appear</text>
</g>
<!-- Apache4d_28&#45;&gt;Apache4d_27 -->
<g id="edge28" class="edge"><title>Apache4d_28&#45;&gt;Apache4d_27</title>
<path fill="none" stroke="black" d="M2119,-137.013C2119,-146.211 2119,-155.538 2119,-163.794"/>
<polygon fill="black" stroke="black" points="2115.5,-163.927 2119,-173.927 2122.5,-163.928 2115.5,-163.927"/>
</g>
<!-- Apache4d_29 -->
<g id="node34" class="node"><title>Apache4d_29</title>
<polygon fill="none" stroke="black" points="2009.5,-114.5 1838.5,-114.5 1838.5,-61.5 2009.5,-61.5 2009.5,-114.5"/>
<text text-anchor="middle" x="1924" y="-99.3" font-family="Times New Roman,serif" font-size="14.00">third&#45;party [attribution]</text>
<text text-anchor="middle" x="1924" y="-84.3" font-family="Times New Roman,serif" font-size="14.00"> notices normally appear [in</text>
<text text-anchor="middle" x="1924" y="-69.3" font-family="Times New Roman,serif" font-size="14.00"> display]</text>
</g>
<!-- Apache4d_29&#45;&gt;Apache4d_27 -->
<g id="edge29" class="edge"><title>Apache4d_29&#45;&gt;Apache4d_27</title>
<path fill="none" stroke="black" d="M1972.96,-114.607C2007.1,-132.47 2051.92,-155.911 2082.85,-172.093"/>
<polygon fill="black" stroke="black" points="2081.5,-175.333 2091.98,-176.867 2084.74,-169.131 2081.5,-175.333"/>
</g>
<!-- Apache4d_30 -->
<g id="node35" class="node"><title>Apache4d_30</title>
<polygon fill="none" stroke="black" points="2429.5,-568.5 2248.5,-568.5 2248.5,-515.5 2429.5,-515.5 2429.5,-568.5"/>
<text text-anchor="middle" x="2339" y="-553.3" font-family="Times New Roman,serif" font-size="14.00">[You excluded] those notices</text>
<text text-anchor="middle" x="2339" y="-538.3" font-family="Times New Roman,serif" font-size="14.00"> that do not pertain to any</text>
<text text-anchor="middle" x="2339" y="-523.3" font-family="Times New Roman,serif" font-size="14.00"> part of the Derivative Works</text>
</g>
<!-- Apache4d_30&#45;&gt;Apache4d_18 -->
<g id="edge30" class="edge"><title>Apache4d_30&#45;&gt;Apache4d_18</title>
<path fill="none" stroke="black" d="M2339,-568.518C2339,-594.745 2339,-635.432 2339,-662.268"/>
<polygon fill="black" stroke="black" points="2335.5,-662.498 2339,-672.498 2342.5,-662.498 2335.5,-662.498"/>
</g>
<!-- Apache4d_31 -->
<g id="node36" class="node"><title>Apache4d_31</title>
<polygon fill="grey" stroke="black" points="2166,-708.5 2112,-708.5 2112,-672.5 2166,-672.5 2166,-708.5"/>
<text text-anchor="middle" x="2139" y="-686.8" font-family="Times New Roman,serif" font-size="14.00">and</text>
</g>
<!-- Apache4d_31&#45;&gt;Apache4d -->
<g id="edge31" class="edge"><title>Apache4d_31&#45;&gt;Apache4d</title>
<path fill="none" stroke="black" d="M2147.47,-708.699C2160.1,-734.326 2183.8,-782.419 2197.17,-809.554"/>
<polygon fill="black" stroke="black" points="2194.19,-811.413 2201.75,-818.836 2200.46,-808.319 2194.19,-811.413"/>
<text text-anchor="middle" x="2195.5" y="-746.3" font-family="Times New Roman,serif" font-size="14.00">activates</text>
</g>
<!-- Apache4d_32 -->
<g id="node37" class="node"><title>Apache4d_32</title>
<polygon fill="none" stroke="black" points="2230,-568.5 2048,-568.5 2048,-515.5 2230,-515.5 2230,-568.5"/>
<text text-anchor="middle" x="2139" y="-553.3" font-family="Times New Roman,serif" font-size="14.00">[You intend to reproduce and</text>
<text text-anchor="middle" x="2139" y="-538.3" font-family="Times New Roman,serif" font-size="14.00"> distribute copies of the</text>
<text text-anchor="middle" x="2139" y="-523.3" font-family="Times New Roman,serif" font-size="14.00"> Work or Derivative Works]</text>
</g>
<!-- Apache4d_32&#45;&gt;Apache4d_31 -->
<g id="edge32" class="edge"><title>Apache4d_32&#45;&gt;Apache4d_31</title>
<path fill="none" stroke="black" d="M2139,-568.518C2139,-594.745 2139,-635.432 2139,-662.268"/>
<polygon fill="black" stroke="black" points="2135.5,-662.498 2139,-672.498 2142.5,-662.498 2135.5,-662.498"/>
</g>
<!-- Apache4d_33 -->
<g id="node38" class="node"><title>Apache4d_33</title>
<polygon fill="none" stroke="black" points="2030,-568.5 1840,-568.5 1840,-515.5 2030,-515.5 2030,-568.5"/>
<text text-anchor="middle" x="1935" y="-553.3" font-family="Times New Roman,serif" font-size="14.00">the Work includes a &#39;NOTICE&#39;</text>
<text text-anchor="middle" x="1935" y="-538.3" font-family="Times New Roman,serif" font-size="14.00"> text file as part of its</text>
<text text-anchor="middle" x="1935" y="-523.3" font-family="Times New Roman,serif" font-size="14.00"> distribution</text>
</g>
<!-- Apache4d_33&#45;&gt;Apache4d_31 -->
<g id="edge33" class="edge"><title>Apache4d_33&#45;&gt;Apache4d_31</title>
<path fill="none" stroke="black" d="M1970.53,-568.518C2009,-596.144 2069.81,-639.813 2106.89,-666.439"/>
<polygon fill="black" stroke="black" points="2105.16,-669.507 2115.32,-672.498 2109.24,-663.822 2105.16,-669.507"/>
</g>
<!-- Apache4dAddAttrib -->
<g id="node39" class="node"><title>Apache4dAddAttrib</title>
<g id="a_node39"><a xlink:title="You may add Your own attribution notices within Derivative Works that You distribute, alongside or as an addendum to the NOTICE text from the Work, provided that such additional attribution notices cannot be construed as modifying the License.">
<polygon fill="lightblue" stroke="black" points="2949.07,-1008 2693.96,-1031 2693.96,-985 2949.07,-1008"/>
<text text-anchor="middle" x="2779" y="-1004.3" font-family="Times New Roman,serif" font-size="14.00">Apache4dAddAttrib</text>
</a>
</g>
</g>
<!-- Apache4dAddAttrib_34 -->
<g id="node40" class="node"><title>Apache4dAddAttrib_34</title>
<polygon fill="none" stroke="black" points="2920,-879.5 2734,-879.5 2734,-781.5 2920,-781.5 2920,-879.5"/>
<text text-anchor="middle" x="2827" y="-864.3" font-family="Times New Roman,serif" font-size="14.00">[You added] Your own</text>
<text text-anchor="middle" x="2827" y="-849.3" font-family="Times New Roman,serif" font-size="14.00"> attribution notices within</text>
<text text-anchor="middle" x="2827" y="-834.3" font-family="Times New Roman,serif" font-size="14.00"> Derivative Works that You</text>
<text text-anchor="middle" x="2827" y="-819.3" font-family="Times New Roman,serif" font-size="14.00"> distribute, alongside or as</text>
<text text-anchor="middle" x="2827" y="-804.3" font-family="Times New Roman,serif" font-size="14.00"> an addendum to the NOTICE</text>
<text text-anchor="middle" x="2827" y="-789.3" font-family="Times New Roman,serif" font-size="14.00"> text from the Work</text>
</g>
<!-- Apache4dAddAttrib_34&#45;&gt;Apache4dAddAttrib -->
<g id="edge34" class="edge"><title>Apache4dAddAttrib_34&#45;&gt;Apache4dAddAttrib</title>
<path fill="none" stroke="black" d="M2813.76,-879.921C2804.59,-913.45 2792.77,-956.638 2785.55,-983.048"/>
<polygon fill="black" stroke="black" points="2782.11,-982.37 2782.85,-992.939 2788.86,-984.217 2782.11,-982.37"/>
<text text-anchor="middle" x="2830.5" y="-901.3" font-family="Times New Roman,serif" font-size="14.00">satisfies</text>
</g>
<!-- Apache4dAddAttrib_35 -->
<g id="node41" class="node"><title>Apache4dAddAttrib_35</title>
<polygon fill="grey" stroke="black" points="2716,-848.5 2662,-848.5 2662,-812.5 2716,-812.5 2716,-848.5"/>
<text text-anchor="middle" x="2689" y="-826.8" font-family="Times New Roman,serif" font-size="14.00">and</text>
</g>
<!-- Apache4dAddAttrib_35&#45;&gt;Apache4dAddAttrib -->
<g id="edge35" class="edge"><title>Apache4dAddAttrib_35&#45;&gt;Apache4dAddAttrib</title>
<path fill="none" stroke="black" d="M2697.79,-848.647C2713.8,-879.867 2747.76,-946.09 2766.29,-982.219"/>
<polygon fill="black" stroke="black" points="2763.4,-984.257 2771.08,-991.558 2769.63,-981.062 2763.4,-984.257"/>
<text text-anchor="middle" x="2752.5" y="-901.3" font-family="Times New Roman,serif" font-size="14.00">activates</text>
</g>
<!-- Apache4dAddAttrib_36 -->
<g id="node42" class="node"><title>Apache4dAddAttrib_36</title>
<polygon fill="orange" stroke="black" points="2707,-708.5 2609,-708.5 2609,-672.5 2707,-672.5 2707,-708.5"/>
<text text-anchor="middle" x="2658" y="-686.8" font-family="Times New Roman,serif" font-size="14.00">SS_Apache4d</text>
</g>
<!-- Apache4dAddAttrib_36&#45;&gt;Apache4d -->
<g id="edge46" class="edge"><title>Apache4dAddAttrib_36&#45;&gt;Apache4d</title>
<path fill="none" stroke="grey" stroke-dasharray="5,2" d="M2629.81,-708.529C2621.91,-712.92 2613.09,-717.503 2602.31,-722.202"/>
<polygon fill="grey" stroke="grey" points="2600.66,-719.098 2592.77,-726.174 2603.35,-725.559 2600.66,-719.098"/>
</g>
<!-- Apache4dAddAttrib_36&#45;&gt;Apache4dAddAttrib_35 -->
<g id="edge36" class="edge"><title>Apache4dAddAttrib_36&#45;&gt;Apache4dAddAttrib_35</title>
<path fill="none" stroke="black" d="M2661.86,-708.699C2667.13,-732.148 2676.62,-774.406 2682.87,-802.207"/>
<polygon fill="black" stroke="black" points="2679.48,-803.095 2685.09,-812.084 2686.31,-801.56 2679.48,-803.095"/>
</g>
<!-- Apache4dAddAttrib_37 -->
<g id="node43" class="node"><title>Apache4dAddAttrib_37</title>
<polygon fill="none" stroke="black" points="2894.5,-724.5 2725.5,-724.5 2725.5,-656.5 2894.5,-656.5 2894.5,-724.5"/>
<text text-anchor="middle" x="2810" y="-709.3" font-family="Times New Roman,serif" font-size="14.00">[Your own] additional</text>
<text text-anchor="middle" x="2810" y="-694.3" font-family="Times New Roman,serif" font-size="14.00"> attribution notices cannot</text>
<text text-anchor="middle" x="2810" y="-679.3" font-family="Times New Roman,serif" font-size="14.00"> be construed as modifying</text>
<text text-anchor="middle" x="2810" y="-664.3" font-family="Times New Roman,serif" font-size="14.00"> the License</text>
</g>
<!-- Apache4dAddAttrib_37&#45;&gt;Apache4dAddAttrib_35 -->
<g id="edge37" class="edge"><title>Apache4dAddAttrib_37&#45;&gt;Apache4dAddAttrib_35</title>
<path fill="none" stroke="black" d="M2766.23,-724.648C2752.09,-736.595 2736.98,-750.784 2725,-765.5 2715.66,-776.966 2707.4,-791.181 2701.15,-803.299"/>
<polygon fill="black" stroke="black" points="2697.9,-801.963 2696.59,-812.476 2704.17,-805.079 2697.9,-801.963"/>
</g>
<!-- Apache4dAddCopyright -->
<g id="node44" class="node"><title>Apache4dAddCopyright</title>
<g id="a_node44"><a xlink:title="You may add Your own copyright statement to Your modifications and may provide additional or different license terms and conditions for use, reproduction, or distribution of Your modifications, or for any such Derivative Works as a whole, provided Your use, reproduction, and distribution of the Work otherwise complies with the conditions stated in this License.">
<polygon fill="lightblue" stroke="black" points="450.464,-1287.5 148.268,-1310.5 148.268,-1264.5 450.464,-1287.5"/>
<text text-anchor="middle" x="249" y="-1283.8" font-family="Times New Roman,serif" font-size="14.00">Apache4dAddCopyright</text>
</a>
</g>
</g>
<!-- Apache4dAddCopyright_38 -->
<g id="node45" class="node"><title>Apache4dAddCopyright_38</title>
<polygon fill="grey" stroke="black" points="276,-1182.5 222,-1182.5 222,-1146.5 276,-1146.5 276,-1182.5"/>
<text text-anchor="middle" x="249" y="-1160.8" font-family="Times New Roman,serif" font-size="14.00">or</text>
</g>
<!-- Apache4dAddCopyright_38&#45;&gt;Apache4dAddCopyright -->
<g id="edge38" class="edge"><title>Apache4dAddCopyright_38&#45;&gt;Apache4dAddCopyright</title>
<path fill="none" stroke="black" d="M249,-1182.58C249,-1203.28 249,-1238.3 249,-1261.9"/>
<polygon fill="black" stroke="black" points="245.5,-1262.15 249,-1272.15 252.5,-1262.15 245.5,-1262.15"/>
<text text-anchor="middle" x="271.5" y="-1235.3" font-family="Times New Roman,serif" font-size="14.00">satisfies</text>
</g>
<!-- Apache4dAddCopyright_39 -->
<g id="node46" class="node"><title>Apache4dAddCopyright_39</title>
<polygon fill="none" stroke="black" points="449.5,-1034.5 244.5,-1034.5 244.5,-981.5 449.5,-981.5 449.5,-1034.5"/>
<text text-anchor="middle" x="347" y="-1019.3" font-family="Times New Roman,serif" font-size="14.00">[You added] Your own copyright</text>
<text text-anchor="middle" x="347" y="-1004.3" font-family="Times New Roman,serif" font-size="14.00"> statement to Your</text>
<text text-anchor="middle" x="347" y="-989.3" font-family="Times New Roman,serif" font-size="14.00"> modifications</text>
</g>
<!-- Apache4dAddCopyright_39&#45;&gt;Apache4dAddCopyright_38 -->
<g id="edge39" class="edge"><title>Apache4dAddCopyright_39&#45;&gt;Apache4dAddCopyright_38</title>
<path fill="none" stroke="black" d="M330.817,-1034.51C312.765,-1062.97 283.714,-1108.77 265.524,-1137.45"/>
<polygon fill="black" stroke="black" points="262.428,-1135.8 260.028,-1146.11 268.34,-1139.54 262.428,-1135.8"/>
</g>
<!-- Apache4dAddCopyright_40 -->
<g id="node47" class="node"><title>Apache4dAddCopyright_40</title>
<polygon fill="none" stroke="black" points="226,-1064.5 16,-1064.5 16,-951.5 226,-951.5 226,-1064.5"/>
<text text-anchor="middle" x="121" y="-1049.3" font-family="Times New Roman,serif" font-size="14.00">[You provided] additional or</text>
<text text-anchor="middle" x="121" y="-1034.3" font-family="Times New Roman,serif" font-size="14.00"> different license terms and</text>
<text text-anchor="middle" x="121" y="-1019.3" font-family="Times New Roman,serif" font-size="14.00"> conditions for use,</text>
<text text-anchor="middle" x="121" y="-1004.3" font-family="Times New Roman,serif" font-size="14.00"> reproduction, or</text>
<text text-anchor="middle" x="121" y="-989.3" font-family="Times New Roman,serif" font-size="14.00"> distribution of Your</text>
<text text-anchor="middle" x="121" y="-974.3" font-family="Times New Roman,serif" font-size="14.00"> modifications, or for any</text>
<text text-anchor="middle" x="121" y="-959.3" font-family="Times New Roman,serif" font-size="14.00"> such Derivative Works as a whole</text>
</g>
<!-- Apache4dAddCopyright_40&#45;&gt;Apache4dAddCopyright_38 -->
<g id="edge40" class="edge"><title>Apache4dAddCopyright_40&#45;&gt;Apache4dAddCopyright_38</title>
<path fill="none" stroke="black" d="M167.211,-1064.78C188.139,-1090.04 211.823,-1118.63 228.299,-1138.51"/>
<polygon fill="black" stroke="black" points="225.815,-1141 234.89,-1146.47 231.205,-1136.53 225.815,-1141"/>
</g>
<!-- Apache4dAddCopyright_41 -->
<g id="node48" class="node"><title>Apache4dAddCopyright_41</title>
<polygon fill="orange" stroke="black" points="405,-1182.5 315,-1182.5 315,-1146.5 405,-1146.5 405,-1182.5"/>
<text text-anchor="middle" x="360" y="-1160.8" font-family="Times New Roman,serif" font-size="14.00">SS_Apache4</text>
</g>
<!-- Apache4dAddCopyright_41&#45;&gt;Apache4 -->
<g id="edge47" class="edge"><title>Apache4dAddCopyright_41&#45;&gt;Apache4</title>
<path fill="none" stroke="grey" stroke-dasharray="5,2" d="M388.231,-1182.58C406.682,-1193.74 432.023,-1209.07 457.575,-1224.53"/>
<polygon fill="grey" stroke="grey" points="455.871,-1227.59 466.238,-1229.77 459.494,-1221.6 455.871,-1227.59"/>
</g>
<!-- Apache4dAddCopyright_41&#45;&gt;Apache4dAddCopyright -->
<g id="edge41" class="edge"><title>Apache4dAddCopyright_41&#45;&gt;Apache4dAddCopyright</title>
<path fill="none" stroke="black" d="M348.702,-1182.55C337.008,-1199.6 317.72,-1226.15 298,-1246.5 291.04,-1253.68 282.832,-1260.81 275.144,-1267.03"/>
<polygon fill="black" stroke="black" points="272.785,-1264.43 267.089,-1273.36 277.113,-1269.93 272.785,-1264.43"/>
<text text-anchor="middle" x="336.5" y="-1235.3" font-family="Times New Roman,serif" font-size="14.00">activates</text>
</g>
</g>
</svg>
