<?xml version="1.0" encoding="UTF-8" standalone="no"?>
<!DOCTYPE svg PUBLIC "-//W3C//DTD SVG 1.1//EN"
 "http://www.w3.org/Graphics/SVG/1.1/DTD/svg11.dtd">
<!-- Generated by graphviz version 2.36.0 (20140111.2315)
 -->
<!-- Title: G Pages: 1 -->
<svg width="2690pt" height="1230pt"
 viewBox="0.00 0.00 2690.00 1230.00" xmlns="http://www.w3.org/2000/svg" xmlns:xlink="http://www.w3.org/1999/xlink">
<g id="graph0" class="graph" transform="scale(1 1) rotate(0) translate(4 1226)">
<title>G</title>
<polygon fill="white" stroke="none" points="-4,4 -4,-1226 2686,-1226 2686,4 -4,4"/>
<g id="clust1" class="cluster"><title>clusterSS_Apache4</title>
<polygon fill="none" stroke="black" points="8,-618 8,-1214 276,-1214 276,-618 8,-618"/>
<text text-anchor="middle" x="142" y="-625.8" font-family="Times New Roman,serif" font-size="14.00">SS_Apache4</text>
</g>
<g id="clust7" class="cluster"><title>clusterSS_Apache4dDisplay</title>
<polygon fill="none" stroke="black" points="2298,-8 2298,-203 2674,-203 2674,-8 2298,-8"/>
<text text-anchor="middle" x="2486" y="-15.8" font-family="Times New Roman,serif" font-size="14.00">SS_Apache4dDisplay</text>
</g>
<g id="clust6" class="cluster"><title>clusterSS_Apache4dSource</title>
<polygon fill="none" stroke="black" points="1878,-16 1878,-203 2290,-203 2290,-16 1878,-16"/>
<text text-anchor="middle" x="2084" y="-23.8" font-family="Times New Roman,serif" font-size="14.00">SS_Apache4dSource</text>
</g>
<g id="clust2" class="cluster"><title>clusterSS_Apache4a</title>
<polygon fill="none" stroke="black" points="284,-873 284,-1090 650,-1090 650,-873 284,-873"/>
<text text-anchor="middle" x="467" y="-880.8" font-family="Times New Roman,serif" font-size="14.00">SS_Apache4a</text>
</g>
<g id="clust4" class="cluster"><title>clusterSS_Apache4c</title>
<polygon fill="none" stroke="black" points="1012,-333 1012,-828 1274,-828 1274,-333 1012,-333"/>
<text text-anchor="middle" x="1143" y="-340.8" font-family="Times New Roman,serif" font-size="14.00">SS_Apache4c</text>
</g>
<g id="clust3" class="cluster"><title>clusterSS_Apache4b</title>
<polygon fill="none" stroke="black" points="658,-732 658,-962 1004,-962 1004,-732 658,-732"/>
<text text-anchor="middle" x="831" y="-739.8" font-family="Times New Roman,serif" font-size="14.00">SS_Apache4b</text>
</g>
<g id="clust5" class="cluster"><title>clusterSS_Apache4d</title>
<polygon fill="none" stroke="black" points="1282,-17 1282,-828 1870,-828 1870,-17 1282,-17"/>
<text text-anchor="middle" x="1576" y="-24.8" font-family="Times New Roman,serif" font-size="14.00">SS_Apache4d</text>
</g>
<g id="clust8" class="cluster"><title>clusterSS_Apache4dAddAttrib</title>
<polygon fill="none" stroke="black" points="1878,-446 1878,-698 2308,-698 2308,-446 1878,-446"/>
<text text-anchor="middle" x="2093" y="-453.8" font-family="Times New Roman,serif" font-size="14.00">SS_Apache4dAddAttrib</text>
</g>
<!-- Apache4 -->
<g id="node1" class="node"><title>Apache4</title>
<g id="a_node1"><a xlink:title="4. Redistribution. You may reproduce and distribute copies of the Work or Derivative Works thereof in any medium, with or without modifications, and in Source or Object form, provided that You meet the following conditions:">
<polygon fill="green" stroke="black" points="217.585,-1183 89.2074,-1206 89.2074,-1160 217.585,-1183"/>
<text text-anchor="middle" x="132" y="-1179.3" font-family="Times New Roman,serif" font-size="14.00">Apache4</text>
</a>
</g>
</g>
<!-- Apache4_1 -->
<g id="node2" class="node"><title>Apache4_1</title>
<polygon fill="none" stroke="black" points="267.5,-1108 88.5,-1108 88.5,-1010 267.5,-1010 267.5,-1108"/>
<text text-anchor="middle" x="178" y="-1092.8" font-family="Times New Roman,serif" font-size="14.00">reproduce and distribute</text>
<text text-anchor="middle" x="178" y="-1077.8" font-family="Times New Roman,serif" font-size="14.00"> copies of the Work or</text>
<text text-anchor="middle" x="178" y="-1062.8" font-family="Times New Roman,serif" font-size="14.00"> Derivative Works thereof in</text>
<text text-anchor="middle" x="178" y="-1047.8" font-family="Times New Roman,serif" font-size="14.00"> any medium, with or without</text>
<text text-anchor="middle" x="178" y="-1032.8" font-family="Times New Roman,serif" font-size="14.00"> modifications, and in</text>
<text text-anchor="middle" x="178" y="-1017.8" font-family="Times New Roman,serif" font-size="14.00"> Source or Object form</text>
</g>
<!-- Apache4_1&#45;&gt;Apache4 -->
<g id="edge1" class="edge"><title>Apache4_1&#45;&gt;Apache4</title>
<path fill="none" stroke="black" d="M159.82,-1108.22C153.232,-1125.69 146.092,-1144.63 140.695,-1158.94"/>
<polygon fill="black" stroke="black" points="137.359,-1157.87 137.105,-1168.46 143.909,-1160.34 137.359,-1157.87"/>
<text text-anchor="middle" x="175.5" y="-1130.3" font-family="Times New Roman,serif" font-size="14.00">satisfies</text>
</g>
<!-- Apache4_2 -->
<g id="node3" class="node"><title>Apache4_2</title>
<polygon fill="grey" stroke="black" points="70,-1077 16,-1077 16,-1041 70,-1041 70,-1077"/>
<text text-anchor="middle" x="43" y="-1055.3" font-family="Times New Roman,serif" font-size="14.00">and</text>
</g>
<!-- Apache4_2&#45;&gt;Apache4 -->
<g id="edge2" class="edge"><title>Apache4_2&#45;&gt;Apache4</title>
<path fill="none" stroke="black" d="M53.0055,-1077.18C63.1405,-1094.15 79.6182,-1120.6 96,-1142 99.7834,-1146.94 104.036,-1152.02 108.257,-1156.83"/>
<polygon fill="black" stroke="black" points="105.954,-1159.51 115.243,-1164.6 111.159,-1154.82 105.954,-1159.51"/>
<text text-anchor="middle" x="120.5" y="-1130.3" font-family="Times New Roman,serif" font-size="14.00">activates</text>
</g>
<!-- Apache4_3 -->
<g id="node4" class="node"><title>Apache4_3</title>
<polygon fill="orange" stroke="black" points="264,-949 168,-949 168,-913 264,-913 264,-949"/>
<text text-anchor="middle" x="216" y="-927.3" font-family="Times New Roman,serif" font-size="14.00">SS_Apache4a</text>
</g>
<!-- Apache4_3&#45;&gt;Apache4_2 -->
<g id="edge3" class="edge"><title>Apache4_3&#45;&gt;Apache4_2</title>
<path fill="none" stroke="black" d="M182.478,-949.066C147.641,-967.153 95.888,-995.115 79,-1010 71.8106,-1016.34 65.1392,-1024.32 59.5419,-1031.94"/>
<polygon fill="black" stroke="black" points="56.3463,-1030.41 53.498,-1040.61 62.0885,-1034.41 56.3463,-1030.41"/>
</g>
<!-- Apache4a -->
<g id="node10" class="node"><title>Apache4a</title>
<g id="a_node10"><a xlink:title="(a) You must give any other recipients of the Work or Derivative Works a copy of this License;">
<polygon fill="red" stroke="black" points="386,-1082 292.317,-1047.5 479.683,-1047.5 386,-1082"/>
<text text-anchor="middle" x="386" y="-1055.3" font-family="Times New Roman,serif" font-size="14.00">Apache4a</text>
</a>
</g>
</g>
<!-- Apache4_3&#45;&gt;Apache4a -->
<g id="edge39" class="edge"><title>Apache4_3&#45;&gt;Apache4a</title>
<path fill="none" stroke="grey" stroke-dasharray="5,2" d="M239.281,-949.256C249.495,-956.826 262.289,-966.308 276.039,-976.5"/>
<polygon fill="grey" stroke="grey" points="274.115,-979.43 284.233,-982.573 278.283,-973.806 274.115,-979.43"/>
</g>
<!-- Apache4_4 -->
<g id="node5" class="node"><title>Apache4_4</title>
<polygon fill="grey" stroke="black" points="146,-949 92,-949 92,-913 146,-913 146,-949"/>
<text text-anchor="middle" x="119" y="-927.3" font-family="Times New Roman,serif" font-size="14.00">and</text>
</g>
<!-- Apache4_4&#45;&gt;Apache4_2 -->
<g id="edge4" class="edge"><title>Apache4_4&#45;&gt;Apache4_2</title>
<path fill="none" stroke="black" d="M108.592,-949.256C95.6867,-970.651 73.5698,-1007.32 58.6249,-1032.1"/>
<polygon fill="black" stroke="black" points="55.4504,-1030.58 53.2824,-1040.95 61.4444,-1034.2 55.4504,-1030.58"/>
</g>
<!-- Apache4_5 -->
<g id="node6" class="node"><title>Apache4_5</title>
<polygon fill="orange" stroke="black" points="265,-815 167,-815 167,-779 265,-779 265,-815"/>
<text text-anchor="middle" x="216" y="-793.3" font-family="Times New Roman,serif" font-size="14.00">SS_Apache4b</text>
</g>
<!-- Apache4_5&#45;&gt;Apache4_4 -->
<g id="edge5" class="edge"><title>Apache4_5&#45;&gt;Apache4_4</title>
<path fill="none" stroke="black" d="M202.682,-815.138C191.009,-830.25 173.663,-852.926 159,-873 151.499,-883.269 143.409,-894.722 136.48,-904.653"/>
<polygon fill="black" stroke="black" points="133.568,-902.711 130.735,-912.92 139.316,-906.706 133.568,-902.711"/>
</g>
<!-- Apache4b -->
<g id="node13" class="node"><title>Apache4b</title>
<g id="a_node13"><a xlink:title="(b) You must cause any modified files to carry prominent notices stating that You changed the files;">
<polygon fill="red" stroke="black" points="762,-954 665.617,-919.5 858.383,-919.5 762,-954"/>
<text text-anchor="middle" x="762" y="-927.3" font-family="Times New Roman,serif" font-size="14.00">Apache4b</text>
</a>
</g>
</g>
<!-- Apache4_5&#45;&gt;Apache4b -->
<g id="edge40" class="edge"><title>Apache4_5&#45;&gt;Apache4b</title>
<path fill="none" stroke="grey" stroke-dasharray="5,2" d="M265.197,-801.345C345.72,-807.906 510.169,-825.871 648.731,-871.31"/>
<polygon fill="grey" stroke="grey" points="647.646,-874.638 658.24,-874.486 649.864,-867.998 647.646,-874.638"/>
</g>
<!-- Apache4_6 -->
<g id="node7" class="node"><title>Apache4_6</title>
<polygon fill="grey" stroke="black" points="146,-815 92,-815 92,-779 146,-779 146,-815"/>
<text text-anchor="middle" x="119" y="-793.3" font-family="Times New Roman,serif" font-size="14.00">and</text>
</g>
<!-- Apache4_6&#45;&gt;Apache4_4 -->
<g id="edge6" class="edge"><title>Apache4_6&#45;&gt;Apache4_4</title>
<path fill="none" stroke="black" d="M119,-815.257C119,-837.491 119,-876.401 119,-902.675"/>
<polygon fill="black" stroke="black" points="115.5,-902.739 119,-912.739 122.5,-902.739 115.5,-902.739"/>
</g>
<!-- Apache4_7 -->
<g id="node8" class="node"><title>Apache4_7</title>
<polygon fill="orange" stroke="black" points="151.5,-685 54.5,-685 54.5,-649 151.5,-649 151.5,-685"/>
<text text-anchor="middle" x="103" y="-663.3" font-family="Times New Roman,serif" font-size="14.00">SS_Apache4c</text>
</g>
<!-- Apache4_7&#45;&gt;Apache4_6 -->
<g id="edge7" class="edge"><title>Apache4_7&#45;&gt;Apache4_6</title>
<path fill="none" stroke="black" d="M105.158,-685.263C107.83,-706.639 112.414,-743.309 115.57,-768.558"/>
<polygon fill="black" stroke="black" points="112.112,-769.113 116.825,-778.602 119.058,-768.245 112.112,-769.113"/>
</g>
<!-- Apache4c -->
<g id="node16" class="node"><title>Apache4c</title>
<g id="a_node16"><a xlink:title="(c) You must retain, in the Source form of any Derivative Works that You distribute, all copyright, patent, trademark, and attribution notices from the Source form of the Work, excluding those notices that do not pertain to any part of the Derivative Works;">
<polygon fill="red" stroke="black" points="1115,-820 1020.22,-785.5 1209.78,-785.5 1115,-820"/>
<text text-anchor="middle" x="1115" y="-793.3" font-family="Times New Roman,serif" font-size="14.00">Apache4c</text>
</a>
</g>
</g>
<!-- Apache4_7&#45;&gt;Apache4c -->
<g id="edge41" class="edge"><title>Apache4_7&#45;&gt;Apache4c</title>
<path fill="none" stroke="grey" stroke-dasharray="5,2" d="M130.353,-685.121C139.728,-690.168 150.508,-695.11 161,-698 346.013,-748.965 400.248,-716.376 592,-724 613.518,-724.856 936.724,-725.533 1002.2,-731.806"/>
<polygon fill="grey" stroke="grey" points="1001.82,-735.288 1012.22,-733.279 1002.84,-728.363 1001.82,-735.288"/>
</g>
<!-- Apache4_8 -->
<g id="node9" class="node"><title>Apache4_8</title>
<polygon fill="orange" stroke="black" points="268,-685 170,-685 170,-649 268,-649 268,-685"/>
<text text-anchor="middle" x="219" y="-663.3" font-family="Times New Roman,serif" font-size="14.00">SS_Apache4d</text>
</g>
<!-- Apache4_8&#45;&gt;Apache4_6 -->
<g id="edge8" class="edge"><title>Apache4_8&#45;&gt;Apache4_6</title>
<path fill="none" stroke="black" d="M200.833,-685.01C188.097,-697.407 171.079,-714.949 158,-732 148.939,-743.812 140.187,-757.85 133.278,-769.764"/>
<polygon fill="black" stroke="black" points="130.053,-768.356 128.162,-778.781 136.141,-771.811 130.053,-768.356"/>
</g>
<!-- Apache4d -->
<g id="node22" class="node"><title>Apache4d</title>
<g id="a_node22"><a xlink:title="If the Work includes a &#39;NOTICE&#39; text file as part of its distribution, then any Derivative Works that You distribute must include a readable copy of the attribution notices contained within such NOTICE file, excluding those notices that do not pertain to any part of the Derivative Works, in at least one of the following places: within a NOTICE text file distributed as part of the Derivative Works; within the Source form or documentation, if provided along with the Derivative Works; or, within a display generated by the Derivative Works, if and wherever such third&#45;party notices normally appear. The contents of the NOTICE file are for informational purposes only and do not modify the License. You may add Your own attribution notices within Derivative Works that You distribute, alongside or as an addendum to the NOTICE text from the Work, provided that such additional attribution notices cannot be construed as modifying the License.">
<polygon fill="red" stroke="black" points="1430,-820 1333.62,-785.5 1526.38,-785.5 1430,-820"/>
<text text-anchor="middle" x="1430" y="-793.3" font-family="Times New Roman,serif" font-size="14.00">Apache4d</text>
</a>
</g>
</g>
<!-- Apache4_8&#45;&gt;Apache4d -->
<g id="edge42" class="edge"><title>Apache4_8&#45;&gt;Apache4d</title>
<path fill="none" stroke="grey" stroke-dasharray="5,2" d="M268.348,-672.213C392.493,-682.658 727.87,-709.915 1008,-724 1065.02,-726.867 1204.78,-719.981 1272.44,-731.105"/>
<polygon fill="grey" stroke="grey" points="1271.79,-734.545 1282.27,-732.964 1273.09,-727.667 1271.79,-734.545"/>
</g>
<!-- Apache4a_9 -->
<g id="node11" class="node"><title>Apache4a_9</title>
<polygon fill="none" stroke="black" points="642,-957.5 456,-957.5 456,-904.5 642,-904.5 642,-957.5"/>
<text text-anchor="middle" x="549" y="-942.3" font-family="Times New Roman,serif" font-size="14.00">give any other recipients of</text>
<text text-anchor="middle" x="549" y="-927.3" font-family="Times New Roman,serif" font-size="14.00"> the Work or Derivative</text>
<text text-anchor="middle" x="549" y="-912.3" font-family="Times New Roman,serif" font-size="14.00"> Works a copy of this License</text>
</g>
<!-- Apache4a_9&#45;&gt;Apache4a -->
<g id="edge9" class="edge"><title>Apache4a_9&#45;&gt;Apache4a</title>
<path fill="none" stroke="black" d="M515.621,-957.802C483.516,-982.619 435.89,-1019.44 408.192,-1040.85"/>
<polygon fill="black" stroke="black" points="405.716,-1038.34 399.945,-1047.22 409.997,-1043.87 405.716,-1038.34"/>
<text text-anchor="middle" x="514.5" y="-980.3" font-family="Times New Roman,serif" font-size="14.00">satisfies</text>
</g>
<!-- Apache4a_10 -->
<g id="node12" class="node"><title>Apache4a_10</title>
<polygon fill="none" stroke="black" points="438,-950 292,-950 292,-912 438,-912 438,-950"/>
<text text-anchor="middle" x="365" y="-934.8" font-family="Times New Roman,serif" font-size="14.00">intent to reproduce and</text>
<text text-anchor="middle" x="365" y="-919.8" font-family="Times New Roman,serif" font-size="14.00"> distribute</text>
</g>
<!-- Apache4a_10&#45;&gt;Apache4a -->
<g id="edge10" class="edge"><title>Apache4a_10&#45;&gt;Apache4a</title>
<path fill="none" stroke="black" d="M368.009,-950.053C371.864,-973.184 378.531,-1013.19 382.576,-1037.46"/>
<polygon fill="black" stroke="black" points="379.135,-1038.1 384.231,-1047.39 386.039,-1036.95 379.135,-1038.1"/>
<text text-anchor="middle" x="399.5" y="-980.3" font-family="Times New Roman,serif" font-size="14.00">activates</text>
</g>
<!-- Apache4b_11 -->
<g id="node14" class="node"><title>Apache4b_11</title>
<polygon fill="none" stroke="black" points="996,-831 830,-831 830,-763 996,-763 996,-831"/>
<text text-anchor="middle" x="913" y="-815.8" font-family="Times New Roman,serif" font-size="14.00">cause any modified files to</text>
<text text-anchor="middle" x="913" y="-800.8" font-family="Times New Roman,serif" font-size="14.00"> carry prominent notices</text>
<text text-anchor="middle" x="913" y="-785.8" font-family="Times New Roman,serif" font-size="14.00"> stating that You changed</text>
<text text-anchor="middle" x="913" y="-770.8" font-family="Times New Roman,serif" font-size="14.00"> the files</text>
</g>
<!-- Apache4b_11&#45;&gt;Apache4b -->
<g id="edge11" class="edge"><title>Apache4b_11&#45;&gt;Apache4b</title>
<path fill="none" stroke="black" d="M874.896,-831.309C845.198,-857.271 805.172,-892.261 781.621,-912.848"/>
<polygon fill="black" stroke="black" points="779.248,-910.274 774.022,-919.49 783.855,-915.544 779.248,-910.274"/>
<text text-anchor="middle" x="874.5" y="-853.3" font-family="Times New Roman,serif" font-size="14.00">satisfies</text>
</g>
<!-- Apache4b_12 -->
<g id="node15" class="node"><title>Apache4b_12</title>
<polygon fill="none" stroke="black" points="812,-816 666,-816 666,-778 812,-778 812,-816"/>
<text text-anchor="middle" x="739" y="-800.8" font-family="Times New Roman,serif" font-size="14.00">intent to reproduce and</text>
<text text-anchor="middle" x="739" y="-785.8" font-family="Times New Roman,serif" font-size="14.00"> distribute</text>
</g>
<!-- Apache4b_12&#45;&gt;Apache4b -->
<g id="edge12" class="edge"><title>Apache4b_12&#45;&gt;Apache4b</title>
<path fill="none" stroke="black" d="M742.15,-816.077C746.394,-840.434 753.93,-883.683 758.395,-909.311"/>
<polygon fill="black" stroke="black" points="754.99,-910.162 760.155,-919.412 761.887,-908.96 754.99,-910.162"/>
<text text-anchor="middle" x="775.5" y="-853.3" font-family="Times New Roman,serif" font-size="14.00">activates</text>
</g>
<!-- Apache4c_13 -->
<g id="node17" class="node"><title>Apache4c_13</title>
<polygon fill="grey" stroke="black" points="1238,-685 1184,-685 1184,-649 1238,-649 1238,-685"/>
<text text-anchor="middle" x="1211" y="-663.3" font-family="Times New Roman,serif" font-size="14.00">and</text>
</g>
<!-- Apache4c_13&#45;&gt;Apache4c -->
<g id="edge13" class="edge"><title>Apache4c_13&#45;&gt;Apache4c</title>
<path fill="none" stroke="black" d="M1198.05,-685.263C1180.09,-709.208 1147.74,-752.347 1129.16,-777.122"/>
<polygon fill="black" stroke="black" points="1126.19,-775.25 1122.99,-785.35 1131.79,-779.45 1126.19,-775.25"/>
<text text-anchor="middle" x="1202.5" y="-712.3" font-family="Times New Roman,serif" font-size="14.00">satisfies</text>
</g>
<!-- Apache4c_14 -->
<g id="node18" class="node"><title>Apache4c_14</title>
<polygon fill="none" stroke="black" points="1266,-575.5 1092,-575.5 1092,-462.5 1266,-462.5 1266,-575.5"/>
<text text-anchor="middle" x="1179" y="-560.3" font-family="Times New Roman,serif" font-size="14.00">retain, in the Source form of</text>
<text text-anchor="middle" x="1179" y="-545.3" font-family="Times New Roman,serif" font-size="14.00"> any Derivative Works that</text>
<text text-anchor="middle" x="1179" y="-530.3" font-family="Times New Roman,serif" font-size="14.00"> You distribute, all</text>
<text text-anchor="middle" x="1179" y="-515.3" font-family="Times New Roman,serif" font-size="14.00"> copyright, patent,</text>
<text text-anchor="middle" x="1179" y="-500.3" font-family="Times New Roman,serif" font-size="14.00"> trademark, and attribution</text>
<text text-anchor="middle" x="1179" y="-485.3" font-family="Times New Roman,serif" font-size="14.00"> notices from the Source</text>
<text text-anchor="middle" x="1179" y="-470.3" font-family="Times New Roman,serif" font-size="14.00"> form of the Work</text>
</g>
<!-- Apache4c_14&#45;&gt;Apache4c_13 -->
<g id="edge14" class="edge"><title>Apache4c_14&#45;&gt;Apache4c_13</title>
<path fill="none" stroke="black" d="M1191.19,-575.613C1195.95,-597.337 1201.19,-621.242 1205.08,-639.009"/>
<polygon fill="black" stroke="black" points="1201.7,-639.932 1207.26,-648.951 1208.54,-638.433 1201.7,-639.932"/>
</g>
<!-- Apache4c_15 -->
<g id="node19" class="node"><title>Apache4c_15</title>
<polygon fill="grey" stroke="black" points="1074,-537 1020,-537 1020,-501 1074,-501 1074,-537"/>
<text text-anchor="middle" x="1047" y="-515.3" font-family="Times New Roman,serif" font-size="14.00">not</text>
</g>
<!-- Apache4c_15&#45;&gt;Apache4c_13 -->
<g id="edge15" class="edge"><title>Apache4c_15&#45;&gt;Apache4c_13</title>
<path fill="none" stroke="black" d="M1054.68,-537.032C1060.88,-549.199 1070.6,-565.254 1083,-576 1116.97,-605.43 1139.99,-589.815 1175,-618 1182.75,-624.236 1189.72,-632.496 1195.42,-640.404"/>
<polygon fill="black" stroke="black" points="1192.57,-642.432 1201.09,-648.734 1198.36,-638.496 1192.57,-642.432"/>
</g>
<!-- Apache4c_16 -->
<g id="node20" class="node"><title>Apache4c_16</title>
<polygon fill="none" stroke="black" points="1187.5,-417.5 1020.5,-417.5 1020.5,-364.5 1187.5,-364.5 1187.5,-417.5"/>
<text text-anchor="middle" x="1104" y="-402.3" font-family="Times New Roman,serif" font-size="14.00">retain those notices that do</text>
<text text-anchor="middle" x="1104" y="-387.3" font-family="Times New Roman,serif" font-size="14.00"> not pertain to any part of</text>
<text text-anchor="middle" x="1104" y="-372.3" font-family="Times New Roman,serif" font-size="14.00"> the Derivative Works</text>
</g>
<!-- Apache4c_16&#45;&gt;Apache4c_15 -->
<g id="edge16" class="edge"><title>Apache4c_16&#45;&gt;Apache4c_15</title>
<path fill="none" stroke="black" d="M1092.33,-417.802C1082.61,-439.28 1068.83,-469.744 1059.02,-491.432"/>
<polygon fill="black" stroke="black" points="1055.75,-490.162 1054.82,-500.716 1062.13,-493.047 1055.75,-490.162"/>
</g>
<!-- Apache4c_17 -->
<g id="node21" class="node"><title>Apache4c_17</title>
<polygon fill="none" stroke="black" points="1166,-686 1020,-686 1020,-648 1166,-648 1166,-686"/>
<text text-anchor="middle" x="1093" y="-670.8" font-family="Times New Roman,serif" font-size="14.00">intent to reproduce and</text>
<text text-anchor="middle" x="1093" y="-655.8" font-family="Times New Roman,serif" font-size="14.00"> distribute</text>
</g>
<!-- Apache4c_17&#45;&gt;Apache4c -->
<g id="edge17" class="edge"><title>Apache4c_17&#45;&gt;Apache4c</title>
<path fill="none" stroke="black" d="M1096.11,-686.068C1100.13,-709.494 1107.14,-750.273 1111.4,-775.036"/>
<polygon fill="black" stroke="black" points="1107.99,-775.904 1113.14,-785.166 1114.89,-774.718 1107.99,-775.904"/>
<text text-anchor="middle" x="1127.5" y="-712.3" font-family="Times New Roman,serif" font-size="14.00">activates</text>
</g>
<!-- Apache4d_18 -->
<g id="node23" class="node"><title>Apache4d_18</title>
<polygon fill="grey" stroke="black" points="1688,-685 1634,-685 1634,-649 1688,-649 1688,-685"/>
<text text-anchor="middle" x="1661" y="-663.3" font-family="Times New Roman,serif" font-size="14.00">and</text>
</g>
<!-- Apache4d_18&#45;&gt;Apache4d -->
<g id="edge18" class="edge"><title>Apache4d_18&#45;&gt;Apache4d</title>
<path fill="none" stroke="black" d="M1633.59,-683.186C1589.3,-707.73 1502.44,-755.857 1457.86,-780.562"/>
<polygon fill="black" stroke="black" points="1456.07,-777.553 1449.02,-785.461 1459.46,-783.676 1456.07,-777.553"/>
<text text-anchor="middle" x="1609.5" y="-712.3" font-family="Times New Roman,serif" font-size="14.00">satisfies</text>
</g>
<!-- Apache4d_19 -->
<g id="node24" class="node"><title>Apache4d_19</title>
<polygon fill="grey" stroke="black" points="1688,-537 1634,-537 1634,-501 1688,-501 1688,-537"/>
<text text-anchor="middle" x="1661" y="-515.3" font-family="Times New Roman,serif" font-size="14.00">and</text>
</g>
<!-- Apache4d_19&#45;&gt;Apache4d_18 -->
<g id="edge19" class="edge"><title>Apache4d_19&#45;&gt;Apache4d_18</title>
<path fill="none" stroke="black" d="M1661,-537.034C1661,-561.955 1661,-608.626 1661,-638.463"/>
<polygon fill="black" stroke="black" points="1657.5,-638.622 1661,-648.622 1664.5,-638.622 1657.5,-638.622"/>
</g>
<!-- Apache4d_20 -->
<g id="node25" class="node"><title>Apache4d_20</title>
<polygon fill="grey" stroke="black" points="1688,-409 1634,-409 1634,-373 1688,-373 1688,-409"/>
<text text-anchor="middle" x="1661" y="-387.3" font-family="Times New Roman,serif" font-size="14.00">and</text>
</g>
<!-- Apache4d_20&#45;&gt;Apache4d_19 -->
<g id="edge20" class="edge"><title>Apache4d_20&#45;&gt;Apache4d_19</title>
<path fill="none" stroke="black" d="M1661,-409.256C1661,-430.274 1661,-466.031 1661,-490.775"/>
<polygon fill="black" stroke="black" points="1657.5,-490.953 1661,-500.953 1664.5,-490.953 1657.5,-490.953"/>
</g>
<!-- Apache4d_21 -->
<g id="node26" class="node"><title>Apache4d_21</title>
<polygon fill="none" stroke="black" points="1861.5,-305 1676.5,-305 1676.5,-237 1861.5,-237 1861.5,-305"/>
<text text-anchor="middle" x="1769" y="-289.8" font-family="Times New Roman,serif" font-size="14.00">include a readable copy of the</text>
<text text-anchor="middle" x="1769" y="-274.8" font-family="Times New Roman,serif" font-size="14.00"> attribution notices</text>
<text text-anchor="middle" x="1769" y="-259.8" font-family="Times New Roman,serif" font-size="14.00"> contained within such</text>
<text text-anchor="middle" x="1769" y="-244.8" font-family="Times New Roman,serif" font-size="14.00"> NOTICE file</text>
</g>
<!-- Apache4d_21&#45;&gt;Apache4d_20 -->
<g id="edge21" class="edge"><title>Apache4d_21&#45;&gt;Apache4d_20</title>
<path fill="none" stroke="black" d="M1738.63,-305.184C1721.21,-324.218 1699.7,-347.718 1683.74,-365.152"/>
<polygon fill="black" stroke="black" points="1681.01,-362.957 1676.84,-372.697 1686.17,-367.683 1681.01,-362.957"/>
</g>
<!-- Apache4d_22 -->
<g id="node27" class="node"><title>Apache4d_22</title>
<polygon fill="grey" stroke="black" points="1658,-289 1604,-289 1604,-253 1658,-253 1658,-289"/>
<text text-anchor="middle" x="1631" y="-267.3" font-family="Times New Roman,serif" font-size="14.00">or</text>
</g>
<!-- Apache4d_22&#45;&gt;Apache4d_20 -->
<g id="edge22" class="edge"><title>Apache4d_22&#45;&gt;Apache4d_20</title>
<path fill="none" stroke="black" d="M1635.36,-289.158C1640.29,-308.559 1648.39,-340.395 1654.16,-363.106"/>
<polygon fill="black" stroke="black" points="1650.78,-363.992 1656.63,-372.821 1657.56,-362.267 1650.78,-363.992"/>
</g>
<!-- Apache4d_23 -->
<g id="node28" class="node"><title>Apache4d_23</title>
<polygon fill="none" stroke="black" points="1858,-198.5 1676,-198.5 1676,-145.5 1858,-145.5 1858,-198.5"/>
<text text-anchor="middle" x="1767" y="-183.3" font-family="Times New Roman,serif" font-size="14.00">include within a NOTICE text</text>
<text text-anchor="middle" x="1767" y="-168.3" font-family="Times New Roman,serif" font-size="14.00"> file distributed as part of</text>
<text text-anchor="middle" x="1767" y="-153.3" font-family="Times New Roman,serif" font-size="14.00"> the Derivative Works</text>
</g>
<!-- Apache4d_23&#45;&gt;Apache4d_22 -->
<g id="edge23" class="edge"><title>Apache4d_23&#45;&gt;Apache4d_22</title>
<path fill="none" stroke="black" d="M1723.57,-198.523C1705.58,-209.667 1684.81,-223.303 1667,-237 1663.35,-239.809 1659.62,-242.913 1656.02,-246.059"/>
<polygon fill="black" stroke="black" points="1653.5,-243.623 1648.41,-252.918 1658.19,-248.822 1653.5,-243.623"/>
</g>
<!-- Apache4d_24 -->
<g id="node29" class="node"><title>Apache4d_24</title>
<polygon fill="grey" stroke="black" points="1658,-190 1604,-190 1604,-154 1658,-154 1658,-190"/>
<text text-anchor="middle" x="1631" y="-168.3" font-family="Times New Roman,serif" font-size="14.00">or</text>
</g>
<!-- Apache4d_24&#45;&gt;Apache4d_22 -->
<g id="edge24" class="edge"><title>Apache4d_24&#45;&gt;Apache4d_22</title>
<path fill="none" stroke="black" d="M1631,-190.342C1631,-204.825 1631,-225.737 1631,-242.501"/>
<polygon fill="black" stroke="black" points="1627.5,-242.808 1631,-252.808 1634.5,-242.809 1627.5,-242.808"/>
</g>
<!-- Apache4d_25 -->
<g id="node30" class="node"><title>Apache4d_25</title>
<polygon fill="orange" stroke="black" points="1700.5,-84 1563.5,-84 1563.5,-48 1700.5,-48 1700.5,-84"/>
<text text-anchor="middle" x="1632" y="-62.3" font-family="Times New Roman,serif" font-size="14.00">SS_Apache4dSource</text>
</g>
<!-- Apache4d_25&#45;&gt;Apache4d_24 -->
<g id="edge25" class="edge"><title>Apache4d_25&#45;&gt;Apache4d_24</title>
<path fill="none" stroke="black" d="M1631.83,-84.1735C1631.68,-100.357 1631.44,-124.869 1631.26,-143.727"/>
<polygon fill="black" stroke="black" points="1627.76,-143.768 1631.17,-153.801 1634.76,-143.835 1627.76,-143.768"/>
</g>
<!-- Apache4dSource -->
<g id="node38" class="node"><title>Apache4dSource</title>
<g id="a_node38"><a xlink:title="include within the Source form or documentation, if provided along with the Derivative Works">
<polygon fill="red" stroke="black" points="2033,-195 1886.23,-160.5 2179.77,-160.5 2033,-195"/>
<text text-anchor="middle" x="2033" y="-168.3" font-family="Times New Roman,serif" font-size="14.00">Apache4dSource</text>
</a>
</g>
</g>
<!-- Apache4d_25&#45;&gt;Apache4dSource -->
<g id="edge43" class="edge"><title>Apache4d_25&#45;&gt;Apache4dSource</title>
<path fill="none" stroke="grey" stroke-dasharray="5,2" d="M1677.76,-84.0214C1713.86,-97.0157 1765.67,-114.719 1812,-127 1830.1,-131.799 1849.16,-136.342 1868.19,-140.556"/>
<polygon fill="grey" stroke="grey" points="1867.61,-144.013 1878.13,-142.73 1869.11,-137.174 1867.61,-144.013"/>
</g>
<!-- Apache4d_26 -->
<g id="node31" class="node"><title>Apache4d_26</title>
<polygon fill="orange" stroke="black" points="1861,-84 1721,-84 1721,-48 1861,-48 1861,-84"/>
<text text-anchor="middle" x="1791" y="-62.3" font-family="Times New Roman,serif" font-size="14.00">SS_Apache4dDisplay</text>
</g>
<!-- Apache4d_26&#45;&gt;Apache4d_24 -->
<g id="edge26" class="edge"><title>Apache4d_26&#45;&gt;Apache4d_24</title>
<path fill="none" stroke="black" d="M1762.6,-84.1511C1737.25,-99.6275 1699.26,-123.238 1667,-145 1665.55,-145.978 1664.07,-146.987 1662.59,-148.014"/>
<polygon fill="black" stroke="black" points="1660.25,-145.38 1654.08,-153.996 1664.28,-151.105 1660.25,-145.38"/>
</g>
<!-- Apache4dDisplay -->
<g id="node41" class="node"><title>Apache4dDisplay</title>
<g id="a_node41"><a xlink:title="include within a display generated by the Derivative Works, if and wherever such third&#45;party notices normally appear">
<polygon fill="red" stroke="black" points="2457,-195 2306.43,-160.5 2607.57,-160.5 2457,-195"/>
<text text-anchor="middle" x="2457" y="-168.3" font-family="Times New Roman,serif" font-size="14.00">Apache4dDisplay</text>
</a>
</g>
</g>
<!-- Apache4d_26&#45;&gt;Apache4dDisplay -->
<g id="edge44" class="edge"><title>Apache4d_26&#45;&gt;Apache4dDisplay</title>
<path fill="none" stroke="grey" stroke-dasharray="5,2" d="M1808.32,-84.2699C1824,-98.6411 1848.47,-118.13 1874,-127 1959.31,-156.64 2185.36,-137.032 2288.03,-144.555"/>
<polygon fill="grey" stroke="grey" points="2287.9,-148.057 2298.16,-145.43 2288.5,-141.083 2287.9,-148.057"/>
</g>
<!-- Apache4d_27 -->
<g id="node32" class="node"><title>Apache4d_27</title>
<polygon fill="grey" stroke="black" points="1593,-409 1539,-409 1539,-373 1593,-373 1593,-409"/>
<text text-anchor="middle" x="1566" y="-387.3" font-family="Times New Roman,serif" font-size="14.00">not</text>
</g>
<!-- Apache4d_27&#45;&gt;Apache4d_19 -->
<g id="edge27" class="edge"><title>Apache4d_27&#45;&gt;Apache4d_19</title>
<path fill="none" stroke="black" d="M1588.32,-409.067C1600.23,-418.948 1614.54,-432.147 1625,-446 1635.54,-459.956 1644.37,-477.47 1650.65,-491.73"/>
<polygon fill="black" stroke="black" points="1647.46,-493.159 1654.58,-500.999 1653.9,-490.426 1647.46,-493.159"/>
</g>
<!-- Apache4d_28 -->
<g id="node33" class="node"><title>Apache4d_28</title>
<polygon fill="none" stroke="black" points="1586,-297.5 1410,-297.5 1410,-244.5 1586,-244.5 1586,-297.5"/>
<text text-anchor="middle" x="1498" y="-282.3" font-family="Times New Roman,serif" font-size="14.00">include those notices that do</text>
<text text-anchor="middle" x="1498" y="-267.3" font-family="Times New Roman,serif" font-size="14.00"> not pertain to any part of</text>
<text text-anchor="middle" x="1498" y="-252.3" font-family="Times New Roman,serif" font-size="14.00"> the Derivative Works</text>
</g>
<!-- Apache4d_28&#45;&gt;Apache4d_27 -->
<g id="edge28" class="edge"><title>Apache4d_28&#45;&gt;Apache4d_27</title>
<path fill="none" stroke="black" d="M1512.75,-297.604C1524.09,-317.265 1539.67,-344.304 1551.05,-364.051"/>
<polygon fill="black" stroke="black" points="1548.08,-365.909 1556.1,-372.826 1554.14,-362.414 1548.08,-365.909"/>
</g>
<!-- Apache4d_29 -->
<g id="node34" class="node"><title>Apache4d_29</title>
<polygon fill="orange" stroke="black" points="1861.5,-537 1706.5,-537 1706.5,-501 1861.5,-501 1861.5,-537"/>
<text text-anchor="middle" x="1784" y="-515.3" font-family="Times New Roman,serif" font-size="14.00">SS_Apache4dAddAttrib</text>
</g>
<!-- Apache4d_29&#45;&gt;Apache4d_18 -->
<g id="edge29" class="edge"><title>Apache4d_29&#45;&gt;Apache4d_18</title>
<path fill="none" stroke="black" d="M1769.65,-537.034C1748.1,-562.611 1707.25,-611.097 1682.24,-640.783"/>
<polygon fill="black" stroke="black" points="1679.41,-638.719 1675.64,-648.622 1684.76,-643.229 1679.41,-638.719"/>
</g>
<!-- Apache4dAddAttrib -->
<g id="node44" class="node"><title>Apache4dAddAttrib</title>
<g id="a_node44"><a xlink:title="You may add Your own attribution notices within Derivative Works that You distribute, alongside or as an addendum to the NOTICE text from the Work, provided that such additional attribution notices cannot be construed as modifying the License.">
<polygon fill="green" stroke="black" points="2226.07,-667 1970.96,-690 1970.96,-644 2226.07,-667"/>
<text text-anchor="middle" x="2056" y="-663.3" font-family="Times New Roman,serif" font-size="14.00">Apache4dAddAttrib</text>
</a>
</g>
</g>
<!-- Apache4d_29&#45;&gt;Apache4dAddAttrib -->
<g id="edge45" class="edge"><title>Apache4d_29&#45;&gt;Apache4dAddAttrib</title>
<path fill="none" stroke="grey" stroke-dasharray="5,2" d="M1809.98,-537.103C1825.73,-547.264 1846.57,-560.347 1869.37,-573.353"/>
<polygon fill="grey" stroke="grey" points="1867.77,-576.469 1878.2,-578.328 1871.21,-570.37 1867.77,-576.469"/>
</g>
<!-- Apache4d_30 -->
<g id="node35" class="node"><title>Apache4d_30</title>
<polygon fill="grey" stroke="black" points="1457,-685 1403,-685 1403,-649 1457,-649 1457,-685"/>
<text text-anchor="middle" x="1430" y="-663.3" font-family="Times New Roman,serif" font-size="14.00">and</text>
</g>
<!-- Apache4d_30&#45;&gt;Apache4d -->
<g id="edge30" class="edge"><title>Apache4d_30&#45;&gt;Apache4d</title>
<path fill="none" stroke="black" d="M1430,-685.263C1430,-708.578 1430,-750.09 1430,-775.129"/>
<polygon fill="black" stroke="black" points="1426.5,-775.35 1430,-785.35 1433.5,-775.35 1426.5,-775.35"/>
<text text-anchor="middle" x="1454.5" y="-712.3" font-family="Times New Roman,serif" font-size="14.00">activates</text>
</g>
<!-- Apache4d_31 -->
<g id="node36" class="node"><title>Apache4d_31</title>
<polygon fill="none" stroke="black" points="1616,-538 1498,-538 1498,-500 1616,-500 1616,-538"/>
<text text-anchor="middle" x="1557" y="-522.8" font-family="Times New Roman,serif" font-size="14.00">intent to distribute</text>
<text text-anchor="middle" x="1557" y="-507.8" font-family="Times New Roman,serif" font-size="14.00"> Derivative Works</text>
</g>
<!-- Apache4d_31&#45;&gt;Apache4d_30 -->
<g id="edge31" class="edge"><title>Apache4d_31&#45;&gt;Apache4d_30</title>
<path fill="none" stroke="black" d="M1541.17,-538.196C1518.56,-564.188 1476.95,-612.026 1451.55,-641.228"/>
<polygon fill="black" stroke="black" points="1448.76,-639.095 1444.84,-648.937 1454.05,-643.689 1448.76,-639.095"/>
</g>
<!-- Apache4d_32 -->
<g id="node37" class="node"><title>Apache4d_32</title>
<polygon fill="none" stroke="black" points="1480,-545.5 1290,-545.5 1290,-492.5 1480,-492.5 1480,-545.5"/>
<text text-anchor="middle" x="1385" y="-530.3" font-family="Times New Roman,serif" font-size="14.00">the Work includes a &#39;NOTICE&#39;</text>
<text text-anchor="middle" x="1385" y="-515.3" font-family="Times New Roman,serif" font-size="14.00"> text file as part of its</text>
<text text-anchor="middle" x="1385" y="-500.3" font-family="Times New Roman,serif" font-size="14.00"> distribution</text>
</g>
<!-- Apache4d_32&#45;&gt;Apache4d_30 -->
<g id="edge32" class="edge"><title>Apache4d_32&#45;&gt;Apache4d_30</title>
<path fill="none" stroke="black" d="M1392.94,-545.766C1401,-571.927 1413.44,-612.273 1421.65,-638.903"/>
<polygon fill="black" stroke="black" points="1418.38,-640.193 1424.67,-648.718 1425.07,-638.131 1418.38,-640.193"/>
</g>
<!-- Apache4dSource_33 -->
<g id="node39" class="node"><title>Apache4dSource_33</title>
<polygon fill="none" stroke="black" points="2282,-85 2094,-85 2094,-47 2282,-47 2282,-85"/>
<text text-anchor="middle" x="2188" y="-69.8" font-family="Times New Roman,serif" font-size="14.00">include within the Source form</text>
<text text-anchor="middle" x="2188" y="-54.8" font-family="Times New Roman,serif" font-size="14.00"> or documentation</text>
</g>
<!-- Apache4dSource_33&#45;&gt;Apache4dSource -->
<g id="edge33" class="edge"><title>Apache4dSource_33&#45;&gt;Apache4dSource</title>
<path fill="none" stroke="black" d="M2161,-85.1154C2131.73,-104.755 2085.43,-135.818 2057.28,-154.712"/>
<polygon fill="black" stroke="black" points="2055.17,-151.911 2048.81,-160.389 2059.07,-157.724 2055.17,-151.911"/>
<text text-anchor="middle" x="2142.5" y="-115.3" font-family="Times New Roman,serif" font-size="14.00">satisfies</text>
</g>
<!-- Apache4dSource_34 -->
<g id="node40" class="node"><title>Apache4dSource_34</title>
<polygon fill="none" stroke="black" points="2075.5,-85 1886.5,-85 1886.5,-47 2075.5,-47 2075.5,-85"/>
<text text-anchor="middle" x="1981" y="-69.8" font-family="Times New Roman,serif" font-size="14.00">source provided along with the</text>
<text text-anchor="middle" x="1981" y="-54.8" font-family="Times New Roman,serif" font-size="14.00"> Derivative Works</text>
</g>
<!-- Apache4dSource_34&#45;&gt;Apache4dSource -->
<g id="edge34" class="edge"><title>Apache4dSource_34&#45;&gt;Apache4dSource</title>
<path fill="none" stroke="black" d="M1990.06,-85.1154C1999.33,-103.65 2013.68,-132.358 2023.21,-151.411"/>
<polygon fill="black" stroke="black" points="2020.09,-153.01 2027.69,-160.389 2026.35,-149.88 2020.09,-153.01"/>
<text text-anchor="middle" x="2035.5" y="-115.3" font-family="Times New Roman,serif" font-size="14.00">activates</text>
</g>
<!-- Apache4dDisplay_35 -->
<g id="node42" class="node"><title>Apache4dDisplay_35</title>
<polygon fill="none" stroke="black" points="2665.5,-92.5 2494.5,-92.5 2494.5,-39.5 2665.5,-39.5 2665.5,-92.5"/>
<text text-anchor="middle" x="2580" y="-77.3" font-family="Times New Roman,serif" font-size="14.00">include within a display</text>
<text text-anchor="middle" x="2580" y="-62.3" font-family="Times New Roman,serif" font-size="14.00"> generated by the Derivative</text>
<text text-anchor="middle" x="2580" y="-47.3" font-family="Times New Roman,serif" font-size="14.00"> Works</text>
</g>
<!-- Apache4dDisplay_35&#45;&gt;Apache4dDisplay -->
<g id="edge35" class="edge"><title>Apache4dDisplay_35&#45;&gt;Apache4dDisplay</title>
<path fill="none" stroke="black" d="M2549.6,-92.7079C2527.06,-111.761 2496.97,-137.204 2477.3,-153.839"/>
<polygon fill="black" stroke="black" points="2474.93,-151.255 2469.55,-160.385 2479.45,-156.601 2474.93,-151.255"/>
<text text-anchor="middle" x="2547.5" y="-115.3" font-family="Times New Roman,serif" font-size="14.00">satisfies</text>
</g>
<!-- Apache4dDisplay_36 -->
<g id="node43" class="node"><title>Apache4dDisplay_36</title>
<polygon fill="none" stroke="black" points="2476,-85 2306,-85 2306,-47 2476,-47 2476,-85"/>
<text text-anchor="middle" x="2391" y="-69.8" font-family="Times New Roman,serif" font-size="14.00">third&#45;party notices normally</text>
<text text-anchor="middle" x="2391" y="-54.8" font-family="Times New Roman,serif" font-size="14.00"> appear in display</text>
</g>
<!-- Apache4dDisplay_36&#45;&gt;Apache4dDisplay -->
<g id="edge36" class="edge"><title>Apache4dDisplay_36&#45;&gt;Apache4dDisplay</title>
<path fill="none" stroke="black" d="M2402.5,-85.1154C2414.37,-103.82 2432.81,-132.885 2444.9,-151.933"/>
<polygon fill="black" stroke="black" points="2441.95,-153.821 2450.27,-160.389 2447.86,-150.07 2441.95,-153.821"/>
<text text-anchor="middle" x="2451.5" y="-115.3" font-family="Times New Roman,serif" font-size="14.00">activates</text>
</g>
<!-- Apache4dAddAttrib_37 -->
<g id="node45" class="node"><title>Apache4dAddAttrib_37</title>
<polygon fill="none" stroke="black" points="2300,-560.5 2082,-560.5 2082,-477.5 2300,-477.5 2300,-560.5"/>
<text text-anchor="middle" x="2191" y="-545.3" font-family="Times New Roman,serif" font-size="14.00">add Your own attribution</text>
<text text-anchor="middle" x="2191" y="-530.3" font-family="Times New Roman,serif" font-size="14.00"> notices within Derivative</text>
<text text-anchor="middle" x="2191" y="-515.3" font-family="Times New Roman,serif" font-size="14.00"> Works that You distribute,</text>
<text text-anchor="middle" x="2191" y="-500.3" font-family="Times New Roman,serif" font-size="14.00"> alongside or as an addendum</text>
<text text-anchor="middle" x="2191" y="-485.3" font-family="Times New Roman,serif" font-size="14.00"> to the NOTICE text from the Work</text>
</g>
<!-- Apache4dAddAttrib_37&#45;&gt;Apache4dAddAttrib -->
<g id="edge37" class="edge"><title>Apache4dAddAttrib_37&#45;&gt;Apache4dAddAttrib</title>
<path fill="none" stroke="black" d="M2153.39,-560.669C2127.96,-588.173 2095.44,-623.35 2075.16,-645.281"/>
<polygon fill="black" stroke="black" points="2072.5,-643.005 2068.28,-652.723 2077.64,-647.757 2072.5,-643.005"/>
<text text-anchor="middle" x="2142.5" y="-598.3" font-family="Times New Roman,serif" font-size="14.00">satisfies</text>
</g>
<!-- Apache4dAddAttrib_38 -->
<g id="node46" class="node"><title>Apache4dAddAttrib_38</title>
<polygon fill="none" stroke="black" points="2064,-545.5 1886,-545.5 1886,-492.5 2064,-492.5 2064,-545.5"/>
<text text-anchor="middle" x="1975" y="-530.3" font-family="Times New Roman,serif" font-size="14.00">such additional attribution</text>
<text text-anchor="middle" x="1975" y="-515.3" font-family="Times New Roman,serif" font-size="14.00"> notices cannot be construed</text>
<text text-anchor="middle" x="1975" y="-500.3" font-family="Times New Roman,serif" font-size="14.00"> as modifying the License</text>
</g>
<!-- Apache4dAddAttrib_38&#45;&gt;Apache4dAddAttrib -->
<g id="edge38" class="edge"><title>Apache4dAddAttrib_38&#45;&gt;Apache4dAddAttrib</title>
<path fill="none" stroke="black" d="M1989.29,-545.766C2004.34,-572.888 2027.85,-615.255 2042.56,-641.78"/>
<polygon fill="black" stroke="black" points="2039.64,-643.731 2047.55,-650.778 2045.76,-640.336 2039.64,-643.731"/>
<text text-anchor="middle" x="2047.5" y="-598.3" font-family="Times New Roman,serif" font-size="14.00">activates</text>
</g>
</g>
</svg>
